{
.appVersion = "3108";
.formatVersion = 3;
axes = (
{
name = Weight;
tag = wght;
}
);
customParameters = (
{
name = "Variable Font Origin";
value = m01;
}
);
date = "2022-02-27 10:52:09 +0000";
familyName = "NSW ACT Foundation";
featurePrefixes = (
{
automatic = 1;
code = "languagesystem DFLT dflt;
";
name = Languagesystems;
}
);
features = (
{
automatic = 1;
code = "feature c2sc;
feature smcp;
";
tag = aalt;
},
{
automatic = 1;
code = "sub A by a.sc;
sub B by b.sc;
sub C by c.sc;
sub D by d.sc;
sub E by e.sc;
sub F by f.sc;
sub G by g.sc;
sub H by h.sc;
sub I by i.sc;
sub J by j.sc;
sub K by k.sc;
sub L by l.sc;
sub M by m.sc;
sub N by n.sc;
sub O by o.sc;
sub P by p.sc;
sub Q by q.sc;
sub R by r.sc;
sub S by s.sc;
sub T by t.sc;
sub U by u.sc;
sub V by v.sc;
sub W by w.sc;
sub X by x.sc;
sub Y by y.sc;
sub Z by z.sc;
sub zero by zero.c2sc;
sub one by one.c2sc;
sub two by two.c2sc;
sub three by three.c2sc;
sub four by four.c2sc;
sub five by five.c2sc;
sub six by six.c2sc;
sub seven by seven.c2sc;
sub eight by eight.c2sc;
sub nine by nine.c2sc;
";
tag = c2sc;
},
{
automatic = 1;
code = "sub a by a.sc;
sub b by b.sc;
sub c by c.sc;
sub d by d.sc;
sub e by e.sc;
sub f by f.sc;
sub g by g.sc;
sub h by h.sc;
sub i by i.sc;
sub j by j.sc;
sub k by k.sc;
sub l by l.sc;
sub m by m.sc;
sub n by n.sc;
sub o by o.sc;
sub p by p.sc;
sub q by q.sc;
sub r by r.sc;
sub s by s.sc;
sub t by t.sc;
sub u by u.sc;
sub v by v.sc;
sub w by w.sc;
sub x by x.sc;
sub y by y.sc;
sub z by z.sc;
";
tag = smcp;
}
);
fontMaster = (
{
axesValues = (
300
);
guides = (
{
pos = (180,650);
},
{
angle = 180;
pos = (266,350);
}
);
iconName = SemiLight;
id = m01;
metricValues = (
{
over = 4;
pos = 700;
},
{
over = -4;
},
{
over = -4;
pos = -300;
},
{
over = 4;
pos = 650;
},
{
over = 4;
pos = 350;
},
{
pos = 6;
},
{
over = -4;
pos = 396;
}
);
name = "NSW ACT Foundation Regular";
stemValues = (
50,
50
);
userData = {
GSOffsetHorizontal = 10;
GSOffsetVertical = 11;
};
visible = 1;
},
{
axesValues = (

glyphs = (
{
glyphname = A;
lastChange = "2022-03-08 23:51:56 +0000";
layers = (
{
layerId = m01;
name = "QBeginners Light";
shapes = (
{
closed = 1;
nodes = (
(340,625,ls),
(344,636,o),
(335,650,o),
(316,650,cs),
(294,650,o),
(293,639,o),
(287,625,cs),
(20,32,ls),
(11,12,o),
(24,0,o),
(39,0,cs),
(59,0,o),
(64,7,o),
(71,25,cs),
(339,619,l)
);
},
{
closed = 1;
nodes = (
(354,327,l),
(346,372,l),
(214,372,l),
(195,327,l)
);
},
{
closed = 1;
nodes = (
(303,563,l),
(387,19,ls),
(388,9,o),
(392,0,o),
(414,0,c),
(432,0,o),
(437,11,o),
(435,26,cs),
(341,635,l)
);
}
);
width = 480;
},
{
associatedMasterId = m002;
attr = {
axisRules = (
{
max = 800;
min = 600;
}
);
};
layerId = "2BD1AC13-F975-43DE-9324-FFA3EF678F39";
name = "28 Feb 22, 07:34";
shapes = (
{
closed = 1;
nodes = (
(376,604,l),
(379,630,o),
(357,650,o),
(326,650,cs),
(292,650,o),
(285,636,o),
(277,616,c),
(26,60,ls),
(9,24,o),
(37,0,o),
(67,0,cs),
(94,0,o),
(109,8,o),
(120,33,cs),
(312,492,l)
);
},
{
closed = 1;
nodes = (
(345,292,l),
(331,372,l),
(248,372,l),
(214,292,l)
);
},
{
closed = 1;
nodes = (
(306,506,l),
(370,40,ls),
(374,16,o),
(391,0,o),
(422,0,cs),
(450,0,o),
(469,15,o),
(464,46,cs),
(375,619,l)
);
}
);
width = 509;
},
{
layerId = m002;
name = "NSW ACT Print ExtraBold";
shapes = (
{
closed = 1;
nodes = (
(376,604,l),
(379,630,o),
(357,650,o),
(326,650,cs),
(292,650,o),
(285,636,o),
(277,616,c),
(26,60,ls),
(9,24,o),
(37,0,o),
(67,0,cs),
(94,0,o),
(109,8,o),
(120,33,cs),
(312,492,l)
);
},
{
closed = 1;
nodes = (
(345,292,l),
(331,372,l),
(248,372,l),
(214,292,l)
);
},
{
closed = 1;
nodes = (
(306,506,l),
(370,40,ls),
(374,16,o),
(391,0,o),
(422,0,cs),
(450,0,o),
(469,15,o),
(464,46,cs),
(375,619,l)
);
}
);
width = 510;
},
{
associatedMasterId = m01;
attr = {
axisRules = (
{
max = 800;
min = 600;
}
);
};
layerId = "F26795CF-3851-46EB-8335-361574138B0A";
name = "28 Feb 22, 07:35";
shapes = (
{
closed = 1;
nodes = (
(340,625,ls),
(344,636,o),
(335,650,o),
(316,650,cs),
(294,650,o),
(293,639,o),
(287,625,cs),
(20,32,ls),
(11,12,o),
(24,0,o),
(39,0,cs),
(59,0,o),
(64,7,o),
(71,25,cs),
(339,619,l)
);
},
{
closed = 1;
nodes = (
(354,327,l),
(346,372,l),
(214,372,l),
(195,327,l)
);
},
{
closed = 1;
nodes = (
(303,563,l),
(387,19,ls),
(388,9,o),
(392,0,o),
(414,0,c),
(432,0,o),
(437,11,o),
(435,26,cs),
(341,635,l)
);
}
);
width = 479;
}
);
unicode = 65;
},
{
glyphname = B;
lastChange = "2022-03-08 23:56:31 +0000";
layers = (
{
layerId = m01;
shapes = (
{
closed = 1;
nodes = (
(425,300,o),
(448,367,o),
(460,475,cs),
(473,593,o),
(366,650,o),
(141,650,c),
(135,605,l),
(321,605,o),
(419,565,o),
(410,477,cs),
(402,405,o),
(394,350,o),
(127,350,c),
(122,300,l)
);
},
{
closed = 1;
nodes = (
(363,0,o),
(438,31,o),
(450,144,cs),
(463,270,o),
(333,350,o),
(123,350,c),
(119,300,l),
(309,300,o),
(409,239,o),
(400,151,cs),
(391,66,o),
(286,45,o),
(76,45,c),
(72,0,l)
);
},
{
closed = 1;
nodes = (
(165,641,o),
(160,650,o),
(141,650,cs),
(124,650,o),
(115,643,o),
(113,623,cs),
(51,31,ls),
(49,14,o),
(60,0,o),
(77,0,cs),
(91,0,o),
(99,9,o),
(101,29,cs),
(163,619,ls)
);
}
);
width = 499;
},
{
layerId = m002;
shapes = (
{
closed = 1;
nodes = (
(476,282,o),
(500,384,o),
(509,462,cs),
(518,548,o),
(474,650,o),
(171,650,c),
(160,559,l),
(437,559,o),
(418,494,o),
(414,467,cs),
(409,435,o),
(384,358,o),
(184,358,c),
(176,282,l)
);
},
{
closed = 1;
nodes = (
(405,0,o),
(498,21,o),
(512,151,cs),
(526,285,o),
(366,358,o),
(179,358,c),
(170,282,l),
(347,282,o),
(425,241,o),
(418,168,cs),
(411,99,o),
(338,96,o),
(120,96,c),
(112,0,l)
);
},
{
closed = 1;
nodes = (
(229,643,o),
(197,650,o),
(173,650,cs),
(149,650,o),
(128,642,o),
(124,609,cs),
(65,53,ls),
(62,23,o),
(86,0,o),
(116,0,cs),
(139,0,o),
(161,11,o),
(165,44,cs),
(224,599,ls)
);
}
);
width = 565;
}
);
metricLeft = N;
metricRight = O;
unicode = 66;
},
{
glyphname = C;
lastChange = "2022-03-08 23:56:31 +0000";
layers = (
{
layerId = m01;
shapes = (
{
closed = 1;
nodes = (
(469,580,o),
(486,578,o),
(494,595,cs),
(502,611,o),
(492,625,o),
(482,629,cs),
(451,642,o),
(419,649,o),
(332,649,cs),
(177,649,o),
(98,510,o),
(81,338,cs),
(80,318,o),
(69,218,o),
(72,172,cs),
(78,85,o),
(113,-4,o),
(239,-4,cs),
(329,-4,o),
(409,60,o),
(438,119,cs),
(453,152,o),
(456,164,o),
(439,173,cs),
(418,183,o),
(406,171,o),
(395,148,cs),
(369,98,o),
(307,46,o),
(235,46,cs),
(144,46,o),
(126,114,o),
(122,171,cs),
(118,225,o),
(129,310,o),
(134,349,cs),
(147,484,o),
(216,599,o),
(335,599,cs),
(413,599,o),
(437,592,o),
(459,584,cs)
);
}
);
width = 499;
},
{
layerId = m002;
shapes = (
{
closed = 1;
nodes = (
(519,533,o),
(548,537,o),
(558,570,cs),
(567,601,o),
(555,620,o),
(537,628,cs),
(498,645,o),
(430,650,o),
(379,650,cs),
(179,650,o),
(114,497,o),
(99,348,cs),
(95,327,o),
(85,219,o),
(88,168,cs),
(93,104,o),
(134,-4,o),
(282,-4,cs),
(391,-4,o),
(479,58,o),
(505,127,cs),
(526,188,o),
(529,220,o),
(480,232,cs),
(437,242,o),
(429,214,o),
(415,176,cs),
(398,131,o),
(345,96,o),
(276,96,cs),
(215,96,o),
(192,120,o),
(188,167,cs),
(185,220,o),
(195,310,o),
(201,347,cs),
(212,451,o),
(252,550,o),
(386,550,cs),
(415,550,o),
(464,546,o),
(502,537,cs)
);
}
);
width = 568;
}
);
metricLeft = O;
metricRight = O;
unicode = 67;
},
{
glyphname = D;
lastChange = "2022-03-09 01:29:27 +0000";
layers = (
{
layerId = m01;
shapes = (
{
closed = 1;
nodes = (
(139,0,ls),
(331,0,o),
(448,128,o),
(471,351,cs),
(490,521,o),
(366,650,o),
(177,650,cs),
(141,650,l),
(151,604,l),
(184,604,ls),
(343,604,o),
(436,489,o),
(422,350,cs),
(401,155,o),
(298,46,o),
(136,46,cs),
(92,46,l),
(76,0,l)
);
},
{
closed = 1;
nodes = (
(165,637,o),
(163,650,o),
(142,650,cs),
(120,650,o),
(115,639,o),
(113,623,cs),
(50,27,ls),
(48,12,o),
(57,0,o),
(75,0,cs),
(97,0,o),
(99,15,o),
(100,25,cs),
(163,619,ls)
);
}
);
width = 489;
},
{
layerId = m002;
shapes = (
{
closed = 1;
nodes = (
(191,0,ls),
(384,0,o),
(510,129,o),
(533,351,cs),
(551,523,o),
(415,650,o),
(223,650,cs),
(173,650,l),
(171,562,l),
(234,562,ls),
(372,562,o),
(450,473,o),
(437,350,cs),
(418,177,o),
(328,89,o),
(185,89,cs),
(125,89,l),
(113,0,l)
);
},
{
closed = 1;
nodes = (
(228,641,o),
(202,650,o),
(174,650,cs),
(142,650,o),
(127,636,o),
(124,609,cs),
(65,49,ls),
(62,21,o),
(83,0,o),
(115,0,cs),
(142,0,o),
(162,15,o),
(165,41,cs),
(224,600,ls)
);
}
);
width = 555;
}
);
metricLeft = N;
metricRight = "=O-10";
unicode = 68;
},
{
glyphname = E;
lastChange = "2022-03-09 00:19:24 +0000";
layers = (
{
layerId = m01;
shapes = (
{
closed = 1;
nodes = (
(164,637,o),
(163,650,o),
(142,650,cs),
(120,650,o),
(115,639,o),
(113,623,c),
(50,27,l),
(48,12,o),
(57,0,o),
(75,0,cs),
(97,0,o),
(99,15,o),
(100,25,c),
(163,619,l)
);
},
{
closed = 1;
nodes = (
(412,0,ls),
(432,0,o),
(436,14,o),
(436,26,cs),
(436,38,o),
(429,50,o),
(409,50,cs),
(81,50,l),
(76,0,l)
);
},
{
closed = 1;
nodes = (
(423,328,ls),
(443,328,o),
(448,338,o),
(448,350,cs),
(448,362,o),
(440,373,o),
(420,373,cs),
(116,373,l),
(111,328,l)
);
},
{
closed = 1;
nodes = (
(476,600,ls),
(496,600,o),
(500,613,o),
(500,625,cs),
(500,637,o),
(493,650,o),
(473,650,cs),
(146,650,l),
(140,600,l)
);
}
);
width = 497;
},
{
layerId = m002;
shapes = (
{
closed = 1;
nodes = (
(227,638,o),
(203,650,o),
(175,650,cs),
(144,650,o),
(127,639,o),
(124,611,cs),
(65,50,ls),
(62,22,o),
(75,0,o),
(105,0,cs),
(137,0,o),
(162,18,o),
(164,40,cs),
(223,597,ls)
);
},
{
closed = 1;
nodes = (
(453,0,ls),
(483,0,o),
(500,26,o),
(500,52,cs),
(500,76,o),
(481,95,o),
(449,95,cs),
(120,95,l),
(112,0,l)
);
},
{
closed = 1;
nodes = (
(456,288,ls),
(488,288,o),
(507,307,o),
(507,331,cs),
(507,357,o),
(485,373,o),
(455,373,cs),
(154,373,l),
(144,288,l)
);
},
{
closed = 1;
nodes = (
(512,555,ls),
(542,555,o),
(560,580,o),
(560,606,cs),
(560,631,o),
(539,650,o),
(508,650,cs),
(182,650,l),
(172,555,l)
);
}
);
width = 575;
}
);
metricLeft = N;
metricRight = "=N-20";
unicode = 69;
},
{
glyphname = F;
lastChange = "2022-03-09 00:19:24 +0000";
layers = (
{
layerId = m01;
shapes = (
{
closed = 1;
nodes = (
(165,637,o),
(163,650,o),
(142,650,cs),
(120,650,o),
(115,639,o),
(113,623,cs),
(50,27,ls),
(48,12,o),
(57,0,o),
(75,0,cs),
(97,0,o),
(99,15,o),
(100,25,cs),
(163,619,ls)
);
},
{
closed = 1;
nodes = (
(414,328,ls),
(434,328,o),
(439,338,o),
(439,350,cs),
(439,362,o),
(431,373,o),
(411,373,cs),
(115,373,l),
(111,328,l)
);
},
{
closed = 1;
nodes = (
(476,600,ls),
(496,600,o),
(500,613,o),
(500,625,cs),
(500,637,o),
(493,650,o),
(473,650,cs),
(143,650,l),
(139,600,l)
);
}
);
width = 467;
},
{
layerId = m002;
shapes = (
{
closed = 1;
nodes = (
(227,638,o),
(201,650,o),
(173,650,cs),
(142,650,o),
(127,638,o),
(124,610,cs),
(65,54,ls),
(62,27,o),
(76,0,o),
(104,0,cs),
(145,0,o),
(162,21,o),
(165,51,cs),
(223,597,ls)
);
},
{
closed = 1;
nodes = (
(455,290,ls),
(487,290,o),
(501,309,o),
(501,333,cs),
(501,359,o),
(480,375,o),
(450,375,cs),
(144,375,l),
(135,290,l)
);
},
{
closed = 1;
nodes = (
(509,555,ls),
(539,555,o),
(560,575,o),
(560,604,cs),
(560,632,o),
(539,650,o),
(508,650,cs),
(176,650,l),
(163,555,l)
);
}
);
width = 545;
}
);
metricLeft = N;
metricRight = "=N-50";
unicode = 70;
},
{
glyphname = G;
lastChange = "2022-03-09 06:13:42 +0000";
layers = (
{
layerId = m01;
shapes = (
{
closed = 1;
nodes = (
(423,350,o),
(419,343,o),
(367,255,cs),
(334,199,o),
(242,42,o),
(187,42,cs),
(137,42,o),
(124,89,o),
(120,140,cs),
(116,200,o),
(128,310,o),
(134,364,cs),
(144,450,o),
(171,604,o),
(360,604,cs),
(408,604,o),
(433,581,o),
(443,544,cs),
(447,531,o),
(466,528,o),
(478,531,cs),
(493,535,o),
(492,549,o),
(489,559,cs),
(475,617,o),
(423,650,o),
(360,650,cs),
(139,650,o),
(96,483,o),
(84,364,cs),
(80,318,o),
(67,203,o),
(71,140,cs),
(76,70,o),
(106,-4,o),
(187,-4,cs),
(267,-4,o),
(357,134,o),
(439,275,c),
(447,350,l)
);
},
{
closed = 1;
nodes = (
(468,340,o),
(463,350,o),
(446,350,cs),
(426,350,o),
(418,342,o),
(416,323,cs),
(385,27,ls),
(384,15,o),
(387,1,o),
(407,0,cs),
(430,-1,o),
(434,16,o),
(435,27,cs),
(466,323,ls)
);
}
);
width = 516;
},
{
layerId = m002;
shapes = (
{
closed = 1;
nodes = (
(430,370,o),
(425,361,o),
(373,271,cs),
(342,217,o),
(264,85,o),
(225,85,cs),
(197,85,o),
(191,114,o),
(188,155,cs),
(184,214,o),
(194,304,o),
(199,354,cs),
(209,445,o),
(225,560,o),
(390,560,cs),
(413,560,o),
(435,536,o),
(439,519,cs),
(447,487,o),
(483,480,o),
(507,486,cs),
(534,494,o),
(541,521,o),
(534,546,cs),
(516,617,o),
(451,650,o),
(383,650,cs),
(148,650,o),
(113,487,o),
(97,341,cs),
(95,321,o),
(84,212,o),
(88,151,cs),
(93,79,o),
(123,-4,o),
(219,-4,cs),
(314,-4,o),
(402,153,o),
(465,265,c),
(468,370,l)
);
},
{
closed = 1;
nodes = (
(519,351,o),
(498,370,o),
(467,370,cs),
(428,370,o),
(417,343,o),
(415,327,cs),
(386,49,ls),
(383,18,o),
(404,0,o),
(438,0,cs),
(473,0,o),
(483,18,o),
(486,42,cs),
(516,320,ls)
);
}
);
width = 581;
}
);
metricLeft = O;
metricRight = N;
unicode = 71;
},
{
glyphname = H;
lastChange = "2022-03-09 06:11:07 +0000";
layers = (
{
layerId = m01;
shapes = (
{
closed = 1;
nodes = (
(165,637,o),
(159,650,o),
(142,650,cs),
(123,650,o),
(115,639,o),
(113,623,cs),
(50,27,ls),
(48,12,o),
(57,0,o),
(75,0,cs),
(97,0,o),
(99,15,o),
(100,25,cs),
(163,619,ls)
);
},
{
closed = 1;
nodes = (
(430,327,l),
(435,373,l),
(126,373,l),
(121,327,l)
);
},
{
closed = 1;
nodes = (
(502,638,o),
(495,650,o),
(475,650,cs),
(457,650,o),
(451,638,o),
(450,628,cs),
(386,27,ls),
(385,15,o),
(388,0,o),
(411,0,cs),
(430,0,o),
(435,13,o),
(436,22,cs),
(500,621,ls)
);
}
);
width = 517;
},
{
layerId = m002;
shapes = (
{
closed = 1;
nodes = (
(227,632,o),
(209,650,o),
(180,650,cs),
(153,650,o),
(127,637,o),
(124,609,cs),
(66,49,ls),
(63,21,o),
(84,0,o),
(116,0,cs),
(150,0,o),
(164,20,o),
(166,40,cs),
(223,597,ls)
);
},
{
closed = 1;
nodes = (
(446,292,l),
(454,372,l),
(180,372,l),
(172,292,l)
);
},
{
closed = 1;
nodes = (
(562,631,o),
(541,650,o),
(510,650,cs),
(482,650,o),
(462,635,o),
(460,613,cs),
(401,49,ls),
(398,20,o),
(416,0,o),
(449,0,cs),
(478,0,o),
(498,17,o),
(500,37,cs),
(559,599,ls)
);
}
);
width = 595;
}
);
metricLeft = N;
metricRight = N;
unicode = 72;
},
{
glyphname = I;
lastChange = "2022-03-08 22:52:02 +0000";
layers = (
{
layerId = m01;
shapes = (
{
closed = 1;
nodes = (
(185,637,o),
(182,650,o),
(162,650,cs),
(142,650,o),
(135,639,o),
(133,623,cs),
(70,27,ls),
(68,12,o),
(77,0,o),
(95,0,cs),
(117,0,o),
(119,15,o),
(120,25,cs),
(183,619,ls)
);
}
);
width = 220;
},
{
layerId = m002;
shapes = (
{
closed = 1;
nodes = (
(247,639,o),
(222,650,o),
(197,650,cs),
(168,650,o),
(147,637,o),
(144,609,cs),
(85,49,ls),
(82,21,o),
(98,0,o),
(128,0,cs),
(162,0,o),
(182,18,o),
(184,39,cs),
(243,597,ls)
);
}
);
width = 299;
}
);
metricLeft = "=N+20";
metricRight = "=N+20";
unicode = 73;
},
{
glyphname = J;
lastChange = "2022-03-09 06:11:31 +0000";
layers = (
{
layerId = m01;
shapes = (
{
closed = 1;
nodes = (
(305,205,ls),
(300,157,o),
(291,105,o),
(261,76,cs),
(243,57,o),
(214,46,o),
(180,46,cs),
(154,46,o),
(130,64,o),
(111,88,cs),
(98,105,o),
(77,113,o),
(66,103,cs),
(51,90,o),
(56,77,o),
(75,55,cs),
(100,26,o),
(136,0,o),
(183,0,cs),
(234,0,o),
(270,13,o),
(295,37,cs),
(332,72,o),
(347,131,o),
(355,205,cs),
(398,623,ls),
(400,641,o),
(396,654,o),
(376,654,cs),
(356,654,o),
(350,643,o),
(348,627,cs)
);
}
);
width = 416;
},
{
layerId = m002;
shapes = (
{
closed = 1;
nodes = (
(327,276,ls),
(320,213,o),
(321,152,o),
(292,122,cs),
(275,103,o),
(243,94,o),
(222,94,cs),
(186,94,o),
(161,118,o),
(151,127,cs),
(131,146,o),
(94,147,o),
(76,119,cs),
(66,105,o),
(70,78,o),
(84,63,cs),
(102,44,o),
(141,-4,o),
(231,-4,cs),
(286,-4,o),
(336,20,o),
(372,59,cs),
(417,107,o),
(416,184,o),
(425,268,cs),
(460,597,ls),
(464,639,o),
(440,650,o),
(415,650,cs),
(386,650,o),
(365,637,o),
(362,609,cs)
);
}
);
width = 496;
}
);
metricLeft = N;
metricRight = N;
unicode = 74;
},
{
glyphname = K;
lastChange = "2022-03-09 00:19:24 +0000";
layers = (
{
layerId = m01;
shapes = (
{
closed = 1;
nodes = (
(483,600,ls),
(494,610,o),
(500,619,o),
(501,628,cs),
(501,640,o),
(493,650,o),
(480,650,cs),
(471,651,o),
(461,647,o),
(449,637,cs),
(132,360,l),
(133,348,l),
(190,344,l)
);
},
{
closed = 1;
nodes = (
(132,356,l),
(133,345,l),
(383,19,ls),
(390,9,o),
(401,0,o),
(414,0,cs),
(424,0,o),
(434,6,o),
(436,17,cs),
(437,24,o),
(436,32,o),
(428,42,cs),
(189,354,l)
);
},
{
closed = 1;
nodes = (
(166,637,o),
(162,650,o),
(143,650,cs),
(123,650,o),
(116,639,o),
(114,623,cs),
(51,32,ls),
(49,17,o),
(58,0,o),
(76,0,cs),
(97,0,o),
(100,18,o),
(101,31,cs),
(164,619,ls)
);
}
);
width = 467;
},
{
layerId = m002;
shapes = (
{
closed = 1;
nodes = (
(535,562,ls),
(548,574,o),
(559,587,o),
(560,602,cs),
(561,625,o),
(542,650,o),
(513,650,cs),
(497,650,o),
(477,644,o),
(462,631,cs),
(159,368,l),
(162,326,l),
(256,320,l)
);
},
{
closed = 1;
nodes = (
(158,382,l),
(161,338,l),
(401,25,ls),
(413,9,o),
(432,0,o),
(451,0,cs),
(471,0,o),
(493,10,o),
(496,31,cs),
(498,44,o),
(496,60,o),
(485,74,cs),
(259,368,l)
);
},
{
closed = 1;
nodes = (
(228,636,o),
(202,650,o),
(178,650,cs),
(152,650,o),
(128,637,o),
(125,609,cs),
(65,54,ls),
(62,24,o),
(85,0,o),
(117,0,cs),
(148,0,o),
(162,19,o),
(165,45,cs),
(224,597,ls)
);
}
);
width = 545;
}
);
metricLeft = N;
metricRight = "=N-50";
unicode = 75;
},
{
glyphname = L;
lastChange = "2022-03-09 06:11:59 +0000";
layers = (
{
layerId = m01;
shapes = (
{
closed = 1;
nodes = (
(165,637,o),
(162,650,o),
(142,650,cs),
(122,650,o),
(115,639,o),
(113,623,cs),
(50,27,ls),
(48,12,o),
(57,0,o),
(75,0,cs),
(97,0,o),
(99,15,o),
(100,25,cs),
(163,619,ls)
);
},
{
closed = 1;
nodes = (
(412,0,ls),
(430,0,o),
(437,14,o),
(436,26,cs),
(435,38,o),
(427,50,o),
(409,50,cs),
(77,50,l),
(80,0,l)
);
}
);
width = 486;
},
{
layerId = m002;
shapes = (
{
closed = 1;
nodes = (
(227,639,o),
(202,650,o),
(177,650,cs),
(148,650,o),
(127,637,o),
(124,609,cs),
(65,49,ls),
(62,21,o),
(78,0,o),
(108,0,cs),
(142,0,o),
(162,18,o),
(164,39,cs),
(223,597,ls)
);
},
{
closed = 1;
nodes = (
(454,0,ls),
(484,0,o),
(501,22,o),
(501,46,cs),
(501,70,o),
(478,91,o),
(448,91,cs),
(119,91,l),
(109,0,l)
);
}
);
width = 565;
}
);
metricLeft = N;
metricRight = "=N-30";
unicode = 76;
},
{
glyphname = M;
lastChange = "2022-03-09 06:12:32 +0000";
layers = (
{
layerId = m01;
shapes = (
{
closed = 1;
nodes = (
(175,630,ls),
(172,639,o),
(162,650,o),
(141,650,c),
(137,589,l),
(341,18,ls),
(345,8,o),
(356,0,o),
(370,0,c),
(377,67,l)
);
},
{
closed = 1;
nodes = (
(142,650,l),
(120,650,o),
(115,639,o),
(113,623,cs),
(50,27,ls),
(48,12,o),
(57,0,o),
(75,0,cs),
(97,0,o),
(99,16,o),
(100,28,cs),
(162,612,l)
);
},
{
closed = 1;
nodes = (
(685,0,o),
(688,15,o),
(689,25,cs),
(752,619,ls),
(754,637,o),
(750,650,o),
(731,650,c),
(696,569,l),
(639,27,ls),
(638,15,o),
(644,0,o),
(663,0,c)
);
},
{
closed = 1;
nodes = (
(369,0,l),
(383,0,o),
(388,8,o),
(394,18,cs),
(727,573,l),
(730,650,l),
(712,650,o),
(710,643,o),
(705,634,cs),
(362,62,l)
);
}
);
width = 769;
},
{
layerId = m002;
shapes = (
{
closed = 1;
nodes = (
(233,620,ls),
(225,641,o),
(199,650,o),
(173,650,c),
(177,491,l),
(345,35,ls),
(353,13,o),
(382,0,o),
(418,0,c),
(424,100,l)
);
},
{
closed = 1;
nodes = (
(176,650,l),
(144,650,o),
(127,636,o),
(124,609,cs),
(66,49,ls),
(63,21,o),
(83,0,o),
(112,0,cs),
(145,0,o),
(164,19,o),
(166,42,cs),
(213,498,l)
);
},
{
closed = 1;
nodes = (
(745,0,o),
(754,19,o),
(756,40,cs),
(814,597,ls),
(817,629,o),
(801,650,o),
(768,650,c),
(700,464,l),
(656,45,ls),
(653,19,o),
(681,0,o),
(711,0,c)
);
},
{
closed = 1;
nodes = (
(412,0,l),
(448,0,o),
(465,13,o),
(478,35,cs),
(728,462,l),
(770,650,l),
(734,650,o),
(720,641,o),
(708,620,cs),
(405,103,l)
);
}
);
width = 850;
}
);
metricLeft = N;
metricRight = N;
unicode = 77;
},
{
glyphname = N;
lastChange = "2022-03-09 06:13:22 +0000";
layers = (
{
layerId = m01;
shapes = (
{
closed = 1;
nodes = (
(173,630,ls),
(168,639,o),
(159,650,o),
(141,650,c),
(138,589,l),
(453,18,ls),
(458,8,o),
(467,0,o),
(481,0,c),
(483,67,l)
);
},
{
closed = 1;
nodes = (
(142,650,l),
(120,650,o),
(115,639,o),
(113,623,cs),
(50,27,ls),
(48,12,o),
(57,0,o),
(75,0,cs),
(97,0,o),
(99,16,o),
(100,28,cs),
(162,612,l)
);
},
{
closed = 1;
nodes = (
(502,0,o),
(503,15,o),
(504,25,cs),
(567,619,ls),
(569,637,o),
(565,650,o),
(546,650,cs),
(526,650,o),
(519,639,o),
(517,623,cs),
(456,48,l),
(480,0,l)
);
}
);
width = 584;
},
{
layerId = m002;
shapes = (
{
closed = 1;
nodes = (
(229,621,ls),
(217,642,o),
(199,650,o),
(173,650,c),
(148,569,l),
(448,28,ls),
(458,10,o),
(473,0,o),
(499,0,c),
(503,127,l)
);
},
{
closed = 1;
nodes = (
(176,650,l),
(144,650,o),
(127,636,o),
(124,609,cs),
(66,49,ls),
(63,21,o),
(83,0,o),
(112,0,cs),
(145,0,o),
(164,19,o),
(166,42,cs),
(223,592,l)
);
},
{
closed = 1;
nodes = (
(532,0,o),
(541,19,o),
(543,40,cs),
(601,597,ls),
(604,629,o),
(587,653,o),
(554,653,cs),
(526,653,o),
(505,637,o),
(502,609,cs),
(449,105,l),
(498,0,l)
);
}
);
width = 637;
}
);
unicode = 78;
},
{
glyphname = O;
lastChange = "2022-03-09 06:14:13 +0000";
layers = (
{
layerId = m01;
shapes = (
{
closed = 1;
nodes = (
(355,-4,o),
(458,247,o),
(478,435,cs),
(490,548,o),
(428,650,o),
(300,650,cs),
(177,650,o),
(124,557,o),
(92,409,cs),
(84,369,o),
(78,322,o),
(78,278,cs),
(75,143,o),
(107,-4,o),
(194,-4,cs)
);
},
{
closed = 1;
nodes = (
(143,42,o),
(128,178,o),
(128,268,cs),
(129,310,o),
(132,355,o),
(139,388,cs),
(167,526,o),
(209,604,o),
(296,604,cs),
(417,604,o),
(436,511,o),
(427,425,cs),
(410,263,o),
(311,42,o),
(190,42,cs)
);
}
);
width = 497;
},
{
layerId = m002;
shapes = (
{
closed = 1;
nodes = (
(400,-4,o),
(525,242,o),
(544,429,cs),
(556,548,o),
(467,652,o),
(339,652,cs),
(211,652,o),
(140,555,o),
(108,410,cs),
(100,370,o),
(94,325,o),
(94,283,cs),
(92,150,o),
(110,-4,o),
(230,-4,cs)
);
},
{
closed = 1;
nodes = (
(198,86,o),
(193,187,o),
(194,269,cs),
(194,308,o),
(198,348,o),
(204,378,cs),
(230,505,o),
(264,562,o),
(341,562,cs),
(445,562,o),
(449,484,o),
(443,427,cs),
(427,281,o),
(317,86,o),
(240,86,cs)
);
}
);
width = 567;
}
);
unicode = 79;
},
{
glyphname = P;
lastChange = "2022-03-09 06:14:55 +0000";
layers = (
{
layerId = m01;
shapes = (
{
closed = 1;
nodes = (
(297,304,o),
(451,321,o),
(467,476,cs),
(479,597,o),
(342,650,o),
(146,650,c),
(149,604,l),
(330,604,o),
(426,561,o),
(417,481,cs),
(405,367,o),
(273,350,o),
(129,350,c),
(125,304,l)
);
},
{
closed = 1;
nodes = (
(165,637,o),
(163,650,o),
(142,650,cs),
(120,650,o),
(115,639,o),
(113,623,cs),
(50,27,ls),
(48,12,o),
(57,-4,o),
(75,-4,cs),
(97,-4,o),
(99,15,o),
(100,25,cs),
(163,619,ls)
);
}
);
width = 431;
},
{
layerId = m002;
shapes = (
{
closed = 1;
nodes = (
(300,269,o),
(488,289,o),
(507,467,cs),
(522,602,o),
(381,656,o),
(170,652,c),
(177,561,l),
(359,564,o),
(424,535,o),
(417,472,cs),
(407,382,o),
(268,359,o),
(175,358,c),
(166,268,l)
);
},
{
closed = 1;
nodes = (
(227,639,o),
(199,652,o),
(174,652,cs),
(144,652,o),
(127,637,o),
(124,609,cs),
(65,48,ls),
(62,21,o),
(82,-6,o),
(115,-6,cs),
(149,-6,o),
(163,17,o),
(165,39,cs),
(223,597,ls)
);
}
);
width = 476;
}
);
metricLeft = N;
metricRight = "=O-50";
unicode = 80;
},
{
glyphname = Q;
lastChange = "2022-03-09 06:15:43 +0000";
layers = (
{
layerId = m01;
shapes = (
{
closed = 1;
nodes = (
(236,146,o),
(217,149,o),
(206,135,cs),
(197,125,o),
(201,111,o),
(215,97,cs),
(353,-34,ls),
(367,-47,o),
(386,-51,o),
(396,-41,cs),
(407,-32,o),
(403,-13,o),
(392,-2,cs),
(249,134,ls)
);
},
{
closed = 1;
nodes = (
(355,-4,o),
(460,250,o),
(478,438,cs),
(489,551,o),
(428,650,o),
(300,650,cs),
(177,650,o),
(124,557,o),
(92,409,cs),
(84,369,o),
(78,322,o),
(78,278,cs),
(75,143,o),
(107,-4,o),
(194,-4,cs)
);
},
{
closed = 1;
nodes = (
(143,46,o),
(127,178,o),
(127,268,cs),
(128,310,o),
(132,355,o),
(139,388,cs),
(167,526,o),
(209,600,o),
(296,600,cs),
(417,600,o),
(436,511,o),
(427,425,cs),
(410,263,o),
(311,46,o),
(190,46,cs)
);
}
);
width = 496;
},
{
layerId = m002;
shapes = (
{
closed = 1;
nodes = (
(297,180,o),
(262,179,o),
(249,161,cs),
(234,143,o),
(233,117,o),
(258,94,cs),
(388,-30,ls),
(412,-52,o),
(445,-54,o),
(463,-38,cs),
(484,-20,o),
(479,9,o),
(458,30,cs),
(325,158,l)
);
},
{
closed = 1;
nodes = (
(400,-4,o),
(525,242,o),
(544,429,cs),
(556,548,o),
(467,652,o),
(339,652,cs),
(211,652,o),
(140,555,o),
(108,410,cs),
(100,370,o),
(94,325,o),
(94,283,cs),
(92,150,o),
(110,-4,o),
(230,-4,cs)
);
},
{
closed = 1;
nodes = (
(198,86,o),
(193,187,o),
(194,269,cs),
(194,308,o),
(198,348,o),
(204,378,cs),
(230,505,o),
(264,562,o),
(341,562,cs),
(445,562,o),
(449,482,o),
(443,425,cs),
(427,279,o),
(317,86,o),
(240,86,cs)
);
}
);
width = 567;
}
);
metricLeft = O;
metricRight = O;
unicode = 81;
},
{
glyphname = R;
lastChange = "2022-03-09 06:18:39 +0000";
layers = (
{
layerId = m01;
shapes = (
{
closed = 1;
nodes = (
(307,304,o),
(469,321,o),
(485,476,cs),
(497,597,o),
(363,650,o),
(146,650,c),
(149,604,l),
(342,604,o),
(444,560,o),
(435,481,cs),
(423,368,o),
(282,350,o),
(121,350,c),
(117,304,l)
);
},
{
closed = 1;
nodes = (
(116,319,l),
(386,19,ls),
(397,6,o),
(405,0,o),
(413,0,cs),
(423,0,o),
(433,7,o),
(435,15,cs),
(437,23,o),
(439,34,o),
(432,42,cs),
(183,319,l)
);
},
{
closed = 1;
nodes = (
(165,637,o),
(163,650,o),
(142,650,cs),
(120,650,o),
(115,639,o),
(113,623,cs),
(51,33,ls),
(49,16,o),
(57,0,o),
(75,0,cs),
(97,0,o),
(99,16,o),
(101,31,cs),
(163,619,ls)
);
}
);
width = 499;
},
{
layerId = m002;
shapes = (
{
closed = 1;
nodes = (
(338,270,o),
(526,289,o),
(545,467,cs),
(560,602,o),
(420,650,o),
(173,650,c),
(179,559,l),
(395,562,o),
(452,533,o),
(445,470,cs),
(436,382,o),
(308,359,o),
(181,359,c),
(172,270,l)
);
},
{
closed = 1;
nodes = (
(175,285,l),
(409,23,ls),
(427,2,o),
(443,0,o),
(456,0,cs),
(475,0,o),
(495,11,o),
(499,29,cs),
(502,42,o),
(511,59,o),
(500,71,cs),
(304,291,l)
);
},
{
closed = 1;
nodes = (
(227,638,o),
(205,650,o),
(177,650,cs),
(146,650,o),
(127,637,o),
(124,609,cs),
(65,54,ls),
(62,24,o),
(76,0,o),
(108,0,cs),
(147,0,o),
(162,23,o),
(165,53,cs),
(223,597,ls)
);
}
);
width = 568;
}
);
metricLeft = N;
metricRight = O;
unicode = 82;
},
{
glyphname = S;
lastChange = "2022-03-09 06:55:01 +0000";
layers = (
{
layerId = m01;
shapes = (
{
closed = 1;
nodes = (
(146,46,o),
(113,66,o),
(104,103,cs),
(100,116,o),
(81,119,o),
(69,116,cs),
(54,112,o),
(55,98,o),
(58,88,cs),
(72,30,o),
(128,0,o),
(174,0,cs),
(318,0,o),
(397,50,o),
(410,172,cs),
(419,258,o),
(354,318,o),
(279,368,cs),
(202,419,o),
(146,452,o),
(151,497,cs),
(157,555,o),
(232,604,o),
(308,604,cs),
(377,604,o),
(394,584,o),
(403,547,cs),
(406,534,o),
(426,531,o),
(438,534,cs),
(452,538,o),
(451,552,o),
(449,562,cs),
(432,626,o),
(391,650,o),
(306,650,cs),
(178,650,o),
(109,576,o),
(102,505,cs),
(93,422,o),
(166,385,o),
(241,334,cs),
(324,278,o),
(365,236,o),
(360,177,cs),
(351,88,o),
(290,46,o),
(171,46,cs)
);
}
);
width = 457;
},
{
layerId = m002;
shapes = (
{
closed = 1;
nodes = (
(189,94,o),
(172,103,o),
(166,124,cs),
(158,153,o),
(124,160,o),
(103,154,cs),
(78,148,o),
(69,126,o),
(76,102,cs),
(93,34,o),
(140,0,o),
(214,0,cs),
(351,0,o),
(458,51,o),
(472,174,cs),
(483,285,o),
(398,341,o),
(333,385,cs),
(280,421,o),
(213,456,o),
(211,484,cs),
(208,522,o),
(271,556,o),
(349,556,cs),
(393,556,o),
(410,549,o),
(415,526,cs),
(422,496,o),
(460,489,o),
(481,495,cs),
(506,503,o),
(513,524,o),
(508,548,cs),
(489,621,o),
(438,650,o),
(358,650,cs),
(201,650,o),
(108,573,o),
(114,480,cs),
(121,392,o),
(214,352,o),
(271,313,cs),
(338,266,o),
(380,227,o),
(376,184,cs),
(370,122,o),
(322,94,o),
(251,94,cs)
);
}
);
width = 522;
}
);
metricLeft = O;
metricRight = O;
unicode = 83;
},
{
glyphname = T;
lastChange = "2022-03-09 07:05:32 +0000";
layers = (
{
layerId = m01;
shapes = (
{
closed = 1;
nodes = (
(281,611,l),
(219,27,ls),
(217,12,o),
(225,0,o),
(243,0,cs),
(265,0,o),
(268,18,o),
(269,28,cs),
(331,611,l)
);
},
{
closed = 1;
nodes = (
(496,600,o),
(500,613,o),
(500,625,cs),
(500,637,o),
(493,650,o),
(473,650,cs),
(139,650,ls),
(119,650,o),
(114,637,o),
(114,625,cs),
(114,613,o),
(122,600,o),
(142,600,cs),
(476,600,ls)
);
}
);
width = 517;
},
{
layerId = m002;
shapes = (
{
closed = 1;
nodes = (
(288,576,l),
(232,49,ls),
(229,21,o),
(250,-2,o),
(281,-2,cs),
(314,-2,o),
(329,22,o),
(332,43,cs),
(389,576,l)
);
},
{
closed = 1;
nodes = (
(544,563,o),
(560,583,o),
(559,607,cs),
(557,633,o),
(535,653,o),
(505,653,cs),
(170,653,ls),
(140,653,o),
(122,633,o),
(124,607,cs),
(125,583,o),
(145,563,o),
(177,563,cs),
(512,563,ls)
);
}
);
width = 594;
}
);
metricLeft = N;
metricRight = N;
unicode = 84;
},
{
glyphname = U;
lastChange = "2022-03-09 06:55:45 +0000";
layers = (
{
layerId = m01;
shapes = (
{
closed = 1;
nodes = (
(461,520,l),
(451,520,l),
(448,509,l),
(436,467,o),
(387,351,o),
(374,320,cs),
(315,192,o),
(200,42,o),
(150,42,cs),
(103,42,o),
(110,116,o),
(117,180,cs),
(167,622,ls),
(169,636,o),
(159,649,o),
(144,650,cs),
(128,650,o),
(118,636,o),
(116,620,cs),
(67,183,ls),
(52,52,o),
(88,-4,o),
(147,-4,cs),
(224,-4,o),
(333,118,o),
(410,283,c),
(433,327,l)
);
},
{
closed = 1;
nodes = (
(503,639,o),
(496,650,o),
(476,650,cs),
(458,650,o),
(452,638,o),
(451,626,cs),
(387,27,ls),
(385,8,o),
(398,-1,o),
(412,-1,cs),
(424,-1,o),
(435,7,o),
(437,22,cs),
(501,624,ls)
);
}
);
width = 518;
},
{
layerId = m002;
shapes = (
{
closed = 1;
nodes = (
(475,543,l),
(456,543,l),
(450,510,ls),
(434,423,o),
(405,364,o),
(388,337,cs),
(345,265,o),
(241,86,o),
(194,86,cs),
(175,86,o),
(173,125,o),
(180,185,cs),
(226,600,ls),
(229,629,o),
(207,650,o),
(178,650,cs),
(145,651,o),
(128,624,o),
(126,606,cs),
(80,195,ls),
(65,57,o),
(111,-4,o),
(184,-4,cs),
(269,-4,o),
(352,76,o),
(436,215,c),
(452,385,l)
);
},
{
closed = 1;
nodes = (
(563,630,o),
(544,650,o),
(510,650,cs),
(482,650,o),
(462,635,o),
(460,612,cs),
(401,49,ls),
(398,16,o),
(422,0,o),
(450,0,cs),
(473,0,o),
(497,12,o),
(500,37,cs),
(560,602,ls)
);
}
);
width = 595;
}
);
metricLeft = N;
metricRight = N;
unicode = 85;
},
{
glyphname = V;
lastChange = "2022-03-09 06:57:55 +0000";
layers = (
{
layerId = m01;
shapes = (
{
closed = 1;
nodes = (
(220,0,o),
(223,11,o),
(229,25,cs),
(466,618,ls),
(474,638,o),
(464,650,o),
(449,650,cs),
(430,650,o),
(422,642,o),
(415,625,cs),
(181,39,l),
(201,0,l)
);
},
{
closed = 1;
nodes = (
(131,626,ls),
(129,636,o),
(125,650,o),
(103,650,c),
(85,650,o),
(79,639,o),
(81,624,cs),
(172,28,ls),
(174,15,o),
(183,0,o),
(202,0,c),
(221,37,l)
);
}
);
width = 449;
},
{
layerId = m002;
shapes = (
{
closed = 1;
nodes = (
(252,-2,o),
(265,15,o),
(273,34,cs),
(494,591,ls),
(508,625,o),
(486,650,o),
(454,650,cs),
(425,650,o),
(405,638,o),
(397,618,cs),
(192,98,l),
(223,-2,l)
);
},
{
closed = 1;
nodes = (
(182,610,ls),
(178,633,o),
(157,650,o),
(125,650,cs),
(96,650,o),
(77,634,o),
(82,604,cs),
(171,44,ls),
(175,19,o),
(195,-1,o),
(225,-2,c),
(264,98,l)
);
}
);
width = 472;
}
);
metricLeft = A;
unicode = 86;
},
{
glyphname = W;
lastChange = "2022-03-09 07:02:30 +0000";
layers = (
{
layerId = m01;
shapes = (
{
closed = 1;
nodes = (
(558,0,o),
(562,11,o),
(568,25,cs),
(806,618,ls),
(815,639,o),
(801,650,o),
(787,650,cs),
(768,650,o),
(762,644,o),
(755,625,cs),
(541,92,l),
(539,0,l)
);
},
{
closed = 1;
nodes = (
(131,626,ls),
(129,636,o),
(125,650,o),
(103,650,c),
(85,650,o),
(79,639,o),
(81,624,cs),
(172,28,ls),
(174,12,o),
(186,0,o),
(201,0,c),
(214,87,l)
);
},
{
closed = 1;
nodes = (
(220,0,o),
(225,15,o),
(229,26,cs),
(444,570,l),
(441,650,l),
(425,650,o),
(415,633,o),
(412,626,cs),
(200,89,l),
(200,0,l)
);
},
{
closed = 1;
nodes = (
(471,626,ls),
(469,636,o),
(465,650,o),
(440,650,c),
(428,575,l),
(513,19,ls),
(514,13,o),
(522,0,o),
(540,0,c),
(553,89,l)
);
}
);
width = 789;
},
{
layerId = m002;
shapes = (
{
closed = 1;
nodes = (
(591,0,o),
(603,12,o),
(612,33,cs),
(841,591,ls),
(851,615,o),
(836,650,o),
(798,650,cs),
(766,650,o),
(749,630,o),
(743,616,cs),
(562,171,l),
(560,0,l)
);
},
{
closed = 1;
nodes = (
(182,610,ls),
(179,633,o),
(158,650,o),
(126,650,cs),
(97,650,o),
(77,634,o),
(82,604,cs),
(167,44,ls),
(171,15,o),
(191,0,o),
(225,0,c),
(253,139,l)
);
},
{
closed = 1;
nodes = (
(255,0,o),
(277,14,o),
(285,34,cs),
(460,479,l),
(461,650,l),
(428,650,o),
(413,631,o),
(408,619,cs),
(222,147,l),
(224,0,l)
);
},
{
closed = 1;
nodes = (
(519,610,ls),
(515,635,o),
(495,650,o),
(460,650,c),
(438,483,l),
(508,32,ls),
(511,15,o),
(529,0,o),
(559,0,c),
(588,171,l)
);
}
);
width = 818;
}
);
metricLeft = A;
metricRight = V;
unicode = 87;
},
{
glyphname = X;
lastChange = "2022-03-09 07:03:09 +0000";
layers = (
{
layerId = m01;
shapes = (
{
closed = 1;
nodes = (
(505,624,o),
(502,638,o),
(493,645,cs),
(482,653,o),
(463,652,o),
(453,637,cs),
(55,38,ls),
(47,26,o),
(50,13,o),
(60,6,cs),
(71,-3,o),
(88,-2,o),
(98,13,cs),
(495,609,ls)
);
},
{
closed = 1;
nodes = (
(160,650,o),
(139,654,o),
(128,649,cs),
(116,645,o),
(113,632,o),
(121,614,cs),
(387,20,ls),
(395,1,o),
(413,-3,o),
(426,3,cs),
(435,8,o),
(442,20,o),
(435,35,cs),
(168,631,ls)
);
}
);
width = 486;
},
{
layerId = m002;
shapes = (
{
closed = 1;
nodes = (
(549,602,o),
(542,623,o),
(523,639,cs),
(504,655,o),
(465,656,o),
(448,631,cs),
(73,69,ls),
(59,48,o),
(63,29,o),
(82,13,cs),
(102,-3,o),
(142,-8,o),
(158,16,cs),
(533,578,ls)
);
},
{
closed = 1;
nodes = (
(214,651,o),
(179,654,o),
(157,647,cs),
(131,637,o),
(120,617,o),
(134,586,cs),
(383,28,ls),
(396,-1,o),
(438,-6,o),
(461,6,cs),
(481,17,o),
(489,36,o),
(478,61,cs),
(227,623,ls)
);
}
);
width = 537;
}
);
metricLeft = N;
metricRight = "=N/2";
unicode = 88;
},
{
glyphname = Y;
lastChange = "2022-03-09 07:04:32 +0000";
layers = (
{
layerId = m01;
shapes = (
{
closed = 1;
nodes = (
(286,353,l),
(166,630,ls),
(161,642,o),
(146,655,o),
(127,648,cs),
(110,642,o),
(112,629,o),
(119,613,cs),
(257,295,l)
);
},
{
closed = 1;
nodes = (
(451,624,o),
(450,638,o),
(441,645,cs),
(430,653,o),
(408,650,o),
(401,635,cs),
(131,38,ls),
(126,26,o),
(125,13,o),
(135,6,cs),
(146,-3,o),
(167,-4,o),
(174,11,cs),
(444,609,ls)
);
}
);
width = 434;
},
{
layerId = m002;
shapes = (
{
closed = 1;
nodes = (
(313,407,l),
(224,621,ls),
(216,641,o),
(186,658,o),
(151,646,cs),
(124,637,o),
(119,612,o),
(129,588,cs),
(253,292,l)
);
},
{
closed = 1;
nodes = (
(490,602,o),
(486,630,o),
(460,645,cs),
(439,656,o),
(402,650,o),
(390,624,cs),
(137,69,ls),
(128,48,o),
(127,29,o),
(146,13,cs),
(166,-3,o),
(212,-8,o),
(223,16,cs),
(479,578,ls)
);
}
);
width = 473;
}
);
metricLeft = N;
unicode = 89;
},
{
glyphname = Z;
lastChange = "2022-03-09 07:05:14 +0000";
layers = (
{
layerId = m01;
shapes = (
{
closed = 1;
nodes = (
(502,619,o),
(502,630,o),
(497,638,cs),
(492,645,o),
(481,650,o),
(470,650,cs),
(463,650,o),
(458,645,o),
(454,638,cs),
(56,39,ls),
(52,32,o),
(47,22,o),
(53,13,cs),
(58,6,o),
(68,0,o),
(85,0,cs),
(91,0,o),
(96,7,o),
(98,11,cs),
(494,608,ls)
);
},
{
closed = 1;
nodes = (
(412,0,ls),
(432,0,o),
(437,13,o),
(436,25,cs),
(435,37,o),
(429,50,o),
(409,50,cs),
(116,50,l),
(78,0,l)
);
},
{
closed = 1;
nodes = (
(474,650,l),
(139,650,ls),
(119,650,o),
(113,637,o),
(114,625,cs),
(115,613,o),
(122,600,o),
(142,600,cs),
(434,600,l)
);
}
);
width = 517;
},
{
layerId = m002;
shapes = (
{
closed = 1;
nodes = (
(546,595,o),
(548,614,o),
(539,629,cs),
(530,644,o),
(512,653,o),
(488,653,cs),
(474,653,o),
(458,644,o),
(451,633,cs),
(73,70,ls),
(64,57,o),
(60,39,o),
(69,23,cs),
(76,11,o),
(95,0,o),
(124,0,cs),
(140,0,o),
(153,10,o),
(158,17,cs),
(534,577,ls)
);
},
{
closed = 1;
nodes = (
(436,0,ls),
(468,0,o),
(485,19,o),
(483,43,cs),
(481,69,o),
(460,90,o),
(430,90,cs),
(194,90,l),
(121,0,l)
);
},
{
closed = 1;
nodes = (
(490,653,l),
(172,653,ls),
(142,653,o),
(124,633,o),
(126,607,cs),
(127,583,o),
(147,563,o),
(179,563,cs),
(417,563,l)
);
}
);
width = 579;
}
);
metricLeft = N;
metricRight = N;
unicode = 90;
},
{
glyphname = a;
lastChange = "2022-03-09 00:19:24 +0000";
layers = (
{
layerId = m01;
shapes = (
{
closed = 1;
nodes = (
(280,241,l),
(227,110,o),
(170,46,o),
(141,46,cs),
(114,46,o),
(104,61,o),
(104,126,cs),
(104,184,o),
(137,300,o),
(208,300,cs),
(221,300,o),
(274,300,o),
(282,300,c),
(287,350,l),
(275,350,o),
(221,350,o),
(205,350,cs),
(102,350,o),
(54,211,o),
(54,121,cs),
(54,21,o),
(95,-4,o),
(133,-4,cs),
(187,-4,o),
(231,45,o),
(267,109,c)
);
},
{
closed = 1;
nodes = (
(328,329,o),
(327,337,o),
(324,342,cs),
(321,347,o),
(317,350,o),
(310,350,cs),
(280,350,l),
(245,23,ls),
(244,15,o),
(246,0,o),
(268,0,cs),
(294,0,o),
(294,18,o),
(295,23,cs),
(327,316,ls)
);
}
);
width = 376;
},
{
layerId = m002;
shapes = (
{
closed = 1;
nodes = (
(255,195,l),
(206,112,o),
(170,83,o),
(148,83,cs),
(130,83,o),
(120,101,o),
(123,130,cs),
(128,175,o),
(124,263,o),
(237,263,cs),
(243,263,o),
(257,263,o),
(264,263,c),
(273,350,l),
(265,350,o),
(240,350,o),
(233,350,cs),
(77,350,o),
(49,261,o),
(34,120,cs),
(23,21,o),
(85,-4,o),
(142,-4,cs),
(172,-4,o),
(210,17,o),
(241,47,c)
);
},
{
closed = 1;
nodes = (
(342,310,o),
(341,320,o),
(337,329,cs),
(330,342,o),
(315,350,o),
(299,350,cs),
(250,350,l),
(218,44,ls),
(216,21,o),
(233,0,o),
(265,0,cs),
(301,0,o),
(311,22,o),
(313,37,cs),
(340,295,ls)
);
}
);
width = 408;
}
);
metricLeft = o;
metricRight = n;
unicode = 97;
},
{
glyphname = b;
lastChange = "2022-03-08 22:52:02 +0000";
layers = (
{
layerId = m01;
shapes = (
{
closed = 1;
nodes = (
(163,621,ls),
(165,640,o),
(154,650,o),
(142,650,cs),
(129,650,o),
(115,641,o),
(113,621,cs),
(48,22,ls),
(47,10,o),
(54,0,o),
(66,0,c),
(97,0,l)
);
},
{
closed = 1;
nodes = (
(96,108,l),
(149,239,o),
(206,303,o),
(235,303,cs),
(262,303,o),
(272,288,o),
(272,223,cs),
(272,165,o),
(239,50,o),
(168,50,cs),
(155,50,o),
(102,50,o),
(94,50,c),
(89,0,l),
(101,0,o),
(155,0,o),
(171,0,cs),
(274,0,o),
(322,138,o),
(322,228,cs),
(322,328,o),
(281,353,o),
(243,353,cs),
(189,353,o),
(145,304,o),
(109,240,c)
);
}
);
width = 372;
},
{
layerId = m002;
shapes = (
{
closed = 1;
nodes = (
(226,599,ls),
(229,632,o),
(204,650,o),
(177,650,cs),
(157,650,o),
(130,640,o),
(126,607,cs),
(66,44,ls),
(63,18,o),
(82,0,o),
(109,0,cs),
(163,0,l)
);
},
{
closed = 1;
nodes = (
(152,155,l),
(201,238,o),
(240,267,o),
(259,267,cs),
(277,267,o),
(285,249,o),
(282,220,cs),
(277,175,o),
(283,87,o),
(170,87,cs),
(164,87,o),
(150,87,o),
(143,87,c),
(134,0,l),
(142,0,o),
(167,0,o),
(174,0,cs),
(330,0,o),
(358,89,o),
(373,230,cs),
(384,329,o),
(322,354,o),
(265,354,cs),
(235,354,o),
(197,333,o),
(166,303,c)
);
}
);
width = 407;
}
);
metricLeft = n;
metricRight = o;
unicode = 98;
},
{
glyphname = c;
lastChange = "2022-03-08 22:52:02 +0000";
layers = (
{
layerId = m01;
shapes = (
{
closed = 1;
nodes = (
(286,141,o),
(276,154,o),
(269,158,cs),
(261,162,o),
(243,165,o),
(237,154,cs),
(207,96,o),
(162,46,o),
(138,46,cs),
(110,46,o),
(102,77,o),
(103,105,cs),
(105,181,o),
(132,300,o),
(206,300,cs),
(224,300,o),
(249,296,o),
(262,294,cs),
(274,292,o),
(290,292,o),
(298,309,cs),
(305,324,o),
(301,337,o),
(287,340,cs),
(268,344,o),
(233,350,o),
(206,350,cs),
(93,350,o),
(53,207,o),
(52,95,cs),
(52,20,o),
(97,-4,o),
(138,-4,cs),
(191,-4,o),
(245,60,o),
(281,131,cs)
);
}
);
width = 340;
},
{
layerId = m002;
shapes = (
{
closed = 1;
nodes = (
(300,132,o),
(299,159,o),
(273,172,cs),
(247,185,o),
(221,179,o),
(213,164,cs),
(191,122,o),
(161,83,o),
(144,83,cs),
(130,83,o),
(121,99,o),
(123,118,cs),
(128,164,o),
(138,264,o),
(197,264,cs),
(208,264,o),
(237,264,o),
(259,259,cs),
(270,256,o),
(294,257,o),
(309,290,cs),
(323,321,o),
(311,332,o),
(298,337,cs),
(276,346,o),
(235,350,o),
(204,350,cs),
(74,350,o),
(46,233,o),
(34,120,cs),
(23,24,o),
(85,-4,o),
(134,-4,cs),
(202,-4,o),
(259,56,o),
(294,121,cs)
);
}
);
width = 341;
}
);
metricLeft = o;
metricRight = o;
unicode = 99;
},
{
glyphname = d;
lastChange = "2022-03-09 00:19:28 +0000";
layers = (
{
layerId = m01;
shapes = (
{
closed = 1;
nodes = (
(361,640,o),
(348,650,o),
(334,650,cs),
(323,650,o),
(311,644,o),
(309,629,cs),
(245,27,ls),
(243,9,o),
(258,0,o),
(272,0,cs),
(283,0,o),
(293,7,o),
(295,22,cs),
(359,624,ls)
);
},
{
closed = 1;
nodes = (
(280,241,l),
(227,110,o),
(170,46,o),
(141,46,cs),
(114,46,o),
(104,61,o),
(104,126,cs),
(104,184,o),
(137,300,o),
(208,300,cs),
(221,300,o),
(274,300,o),
(282,300,c),
(287,350,l),
(275,350,o),
(221,350,o),
(205,350,cs),
(102,350,o),
(54,211,o),
(54,121,cs),
(54,21,o),
(95,-4,o),
(133,-4,cs),
(187,-4,o),
(231,45,o),
(267,109,c)
);
}
);
width = 376;
},
{
layerId = m002;
shapes = (
{
closed = 1;
nodes = (
(376,631,o),
(354,650,o),
(326,650,cs),
(304,650,o),
(282,640,o),
(279,612,cs),
(219,50,ls),
(215,15,o),
(241,0,o),
(264,0,cs),
(286,0,o),
(311,15,o),
(314,44,cs),
(373,599,ls)
);
},
{
closed = 1;
nodes = (
(255,195,l),
(206,112,o),
(170,83,o),
(148,83,cs),
(130,83,o),
(120,101,o),
(123,130,cs),
(128,175,o),
(124,263,o),
(237,263,cs),
(243,263,o),
(257,263,o),
(264,263,c),
(273,350,l),
(265,350,o),
(240,350,o),
(233,350,cs),
(77,350,o),
(49,261,o),
(34,120,cs),
(23,21,o),
(85,-4,o),
(142,-4,cs),
(172,-4,o),
(210,17,o),
(241,47,c)
);
}
);
width = 408;
}
);
metricLeft = a;
metricRight = n;
unicode = 100;
},
{
glyphname = e;
lastChange = "2022-03-08 22:52:02 +0000";
layers = (
{
layerId = m01;
shapes = (
{
closed = 1;
nodes = (
(180,145,o),
(299,222,o),
(306,287,cs),
(310,328,o),
(267,350,o),
(216,350,cs),
(100,350,o),
(56,225,o),
(52,107,cs),
(48,19,o),
(93,-4,o),
(131,-4,cs),
(184,-4,o),
(236,37,o),
(256,68,cs),
(275,97,o),
(277,114,o),
(266,121,cs),
(255,129,o),
(237,130,o),
(220,105,cs),
(209,92,o),
(171,46,o),
(134,46,cs),
(121,46,o),
(101,64,o),
(102,98,cs),
(105,193,o),
(128,300,o),
(225,300,cs),
(243,300,o),
(256,292,o),
(255,284,cs),
(253,267,o),
(160,194,o),
(96,194,c),
(88,145,l)
);
}
);
width = 348;
},
{
layerId = m002;
shapes = (
{
closed = 1;
nodes = (
(192,136,o),
(282,180,o),
(311,251,cs),
(332,303,o),
(301,350,o),
(217,351,cs),
(87,352,o),
(38,247,o),
(36,117,cs),
(35,19,o),
(81,-4,o),
(124,-4,cs),
(213,-4,o),
(255,45,o),
(274,71,cs),
(297,102,o),
(283,130,o),
(268,141,cs),
(247,155,o),
(226,145,o),
(207,120,cs),
(196,106,o),
(173,81,o),
(135,81,cs),
(122,81,o),
(121,102,o),
(122,118,cs),
(125,177,o),
(149,281,o),
(204,281,cs),
(218,281,o),
(233,278,o),
(230,270,cs),
(220,235,o),
(129,210,o),
(94,210,c),
(86,136,l)
);
}
);
width = 347;
}
);
metricLeft = o;
metricRight = o;
unicode = 101;
},
{
glyphname = f;
lastChange = "2022-03-09 00:19:24 +0000";
layers = (
{
layerId = m01;
shapes = (
{
closed = 1;
nodes = (
(318,594,o),
(336,592,o),
(343,611,cs),
(350,629,o),
(338,639,o),
(330,642,cs),
(313,647,o),
(294,650,o),
(275,650,cs),
(225,650,o),
(175,616,o),
(166,527,cs),
(113,28,ls),
(112,16,o),
(121,0,o),
(139,0,cs),
(156,0,o),
(162,15,o),
(163,27,cs),
(215,518,ls),
(221,578,o),
(245,600,o),
(278,600,cs),
(289,600,o),
(300,599,o),
(310,596,cs)
);
},
{
closed = 1;
nodes = (
(291,305,o),
(295,316,o),
(295,328,cs),
(295,340,o),
(288,350,o),
(268,350,cs),
(73,350,ls),
(53,350,o),
(48,340,o),
(48,328,cs),
(48,316,o),
(56,305,o),
(76,305,cs),
(271,305,ls)
);
}
);
width = 309;
},
{
layerId = m002;
shapes = (
{
closed = 1;
nodes = (
(353,548,o),
(373,550,o),
(387,578,cs),
(400,604,o),
(396,624,o),
(376,634,cs),
(349,648,o),
(327,650,o),
(286,650,cs),
(235,650,o),
(175,614,o),
(165,519,cs),
(115,49,ls),
(113,26,o),
(134,-2,o),
(168,-2,cs),
(195,-2,o),
(212,18,o),
(215,42,cs),
(264,502,ls),
(268,541,o),
(282,560,o),
(300,560,cs),
(320,560,o),
(331,556,o),
(339,553,cs)
);
},
{
closed = 1;
nodes = (
(319,265,o),
(337,281,o),
(336,307,cs),
(334,331,o),
(316,350,o),
(284,350,cs),
(101,350,ls),
(70,350,o),
(53,331,o),
(55,307,cs),
(56,283,o),
(75,265,o),
(106,265,cs),
(289,265,ls)
);
}
);
width = 350;
}
);
metricLeft = "=n/2";
unicode = 102;
},
{
glyphname = g;
lastChange = "2022-03-09 00:19:28 +0000";
layers = (
{
layerId = m01;
shapes = (
{
closed = 1;
nodes = (
(280,241,l),
(227,110,o),
(170,46,o),
(141,46,cs),
(114,46,o),
(104,61,o),
(104,126,cs),
(104,184,o),
(137,300,o),
(208,300,cs),
(221,300,o),
(274,300,o),
(282,300,c),
(287,350,l),
(275,350,o),
(221,350,o),
(205,350,cs),
(102,350,o),
(54,211,o),
(54,121,cs),
(54,21,o),
(95,-4,o),
(133,-4,cs),
(187,-4,o),
(231,45,o),
(267,109,c)
);
},
{
closed = 1;
nodes = (
(44,-230,o),
(30,-228,o),
(20,-240,cs),
(10,-252,o),
(13,-266,o),
(24,-274,cs),
(42,-287,o),
(76,-300,o),
(112,-300,cs),
(163,-300,o),
(199,-287,o),
(224,-263,cs),
(261,-228,o),
(275,-169,o),
(283,-95,cs),
(328,326,ls),
(330,343,o),
(319,350,o),
(302,350,c),
(280,350,l),
(263,198,l),
(233,-95,ls),
(228,-143,o),
(220,-195,o),
(190,-224,cs),
(172,-243,o),
(142,-250,o),
(108,-250,cs),
(89,-250,o),
(66,-240,o),
(51,-233,cs)
);
}
);
width = 376;
},
{
layerId = m002;
shapes = (
{
closed = 1;
nodes = (
(258,195,l),
(209,112,o),
(173,83,o),
(151,83,cs),
(133,83,o),
(122,101,o),
(125,130,cs),
(130,175,o),
(127,263,o),
(240,263,cs),
(246,263,o),
(260,263,o),
(267,263,c),
(276,350,l),
(268,350,o),
(243,350,o),
(236,350,cs),
(80,350,o),
(49,261,o),
(34,120,cs),
(23,21,o),
(88,-4,o),
(145,-4,cs),
(175,-4,o),
(213,17,o),
(244,47,c)
);
},
{
closed = 1;
nodes = (
(63,-189,o),
(25,-181,o),
(7,-208,cs),
(-16,-243,o),
(3,-268,o),
(19,-278,cs),
(33,-287,o),
(75,-300,o),
(123,-300,cs),
(178,-300,o),
(217,-276,o),
(254,-237,cs),
(298,-189,o),
(299,-112,o),
(308,-28,cs),
(345,305,l),
(347,335,o),
(319,350,o),
(292,350,cs),
(247,350,l),
(232,192,l),
(208,-20,ls),
(201,-83,o),
(203,-144,o),
(174,-174,cs),
(156,-193,o),
(135,-202,o),
(114,-202,cs),
(101,-202,o),
(83,-200,o),
(76,-196,cs)
);
}
);
width = 411;
}
);
metricLeft = a;
metricRight = n;
unicode = 103;
},
{
glyphname = h;
lastChange = "2022-03-08 23:59:54 +0000";
layers = (
{
layerId = m01;
shapes = (
{
closed = 1;
nodes = (
(98,114,l),
(160,251,o),
(199,305,o),
(241,305,cs),
(266,305,o),
(275,261,o),
(272,234,cs),
(249,23,ls),
(248,15,o),
(250,0,o),
(272,0,c),
(298,0,o),
(298,18,o),
(299,23,cs),
(322,234,ls),
(328,291,o),
(302,354,o),
(244,354,cs),
(189,354,o),
(152,313,o),
(108,246,c)
);
},
{
closed = 1;
nodes = (
(164,641,o),
(154,650,o),
(141,650,cs),
(128,650,o),
(114,641,o),
(112,623,cs),
(48,23,ls),
(46,8,o),
(58,0,o),
(71,0,cs),
(84,0,o),
(96,7,o),
(98,23,cs),
(162,623,ls)
);
}
);
width = 380;
},
{
layerId = m002;
shapes = (
{
closed = 1;
nodes = (
(163,173,l),
(203,236,o),
(238,266,o),
(261,266,cs),
(277,266,o),
(277,239,o),
(274,214,cs),
(256,46,ls),
(253,22,o),
(271,0,o),
(303,0,cs),
(339,0,o),
(354,23,o),
(356,38,cs),
(374,206,ls),
(384,301,o),
(351,354,o),
(273,354,cs),
(234,354,o),
(202,332,o),
(176,315,c)
);
},
{
closed = 1;
nodes = (
(229,633,o),
(204,653,o),
(177,653,cs),
(153,653,o),
(129,637,o),
(126,609,cs),
(67,45,ls),
(64,17,o),
(87,-2,o),
(114,-2,cs),
(138,-2,o),
(164,11,o),
(167,37,cs),
(226,601,ls)
);
}
);
width = 451;
}
);
metricLeft = n;
metricRight = n;
unicode = 104;
},
{
glyphname = i;
lastChange = "2022-03-08 22:52:02 +0000";
layers = (
{
layerId = m01;
shapes = (
{
closed = 1;
nodes = (
(134,340,o),
(122,350,o),
(110,350,cs),
(97,350,o),
(84,341,o),
(82,323,cs),
(51,28,ls),
(49,9,o),
(61,0,o),
(74,0,cs),
(86,0,o),
(99,10,o),
(101,28,cs),
(132,320,ls)
);
},
{
closed = 1;
nodes = (
(138,440,o),
(150,454,o),
(150,468,cs),
(150,483,o),
(138,495,o),
(123,495,cs),
(109,495,o),
(95,483,o),
(95,468,cs),
(95,454,o),
(109,440,o),
(123,440,cs)
);
}
);
width = 183;
},
{
layerId = m002;
shapes = (
{
closed = 1;
nodes = (
(196,327,o),
(170,350,o),
(145,350,cs),
(121,350,o),
(97,332,o),
(94,305,cs),
(67,49,ls),
(64,19,o),
(88,0,o),
(114,0,cs),
(136,0,o),
(163,10,o),
(166,37,cs),
(193,294,ls)
);
},
{
closed = 1;
nodes = (
(191,417,o),
(211,439,o),
(211,466,cs),
(211,493,o),
(191,515,o),
(164,515,cs),
(138,515,o),
(113,493,o),
(113,466,cs),
(113,439,o),
(138,417,o),
(164,417,cs)
);
}
);
width = 261;
}
);
metricLeft = n;
metricRight = n;
unicode = 105;
},
{
glyphname = j;
lastChange = "2022-03-09 00:18:37 +0000";
layers = (
{
layerId = m01;
shapes = (
{
closed = 1;
nodes = (
(27,-197,o),
(-3,-226,cs),
(-21,-245,o),
(-52,-250,o),
(-86,-250,cs),
(-105,-250,o),
(-128,-240,o),
(-143,-233,cs),
(-150,-230,o),
(-164,-228,o),
(-174,-240,cs),
(-184,-252,o),
(-181,-266,o),
(-170,-274,cs),
(-152,-287,o),
(-118,-300,o),
(-82,-300,cs),
(-31,-300,o),
(5,-287,o),
(30,-263,cs),
(71,-224,o),
(83,-156,o),
(89,-94,cs),
(133,327,ls),
(135,344,o),
(123,351,o),
(106,351,cs),
(95,351,o),
(84,340,o),
(83,329,cs),
(39,-94,ls),
(35,-129,o)
);
},
{
closed = 1;
nodes = (
(139,440,o),
(150,453,o),
(150,469,cs),
(150,484,o),
(139,495,o),
(124,495,cs),
(109,495,o),
(95,484,o),
(95,469,cs),
(95,453,o),
(109,440,o),
(124,440,cs)
);
}
);
width = 183;
},
{
layerId = m002;
shapes = (
{
closed = 1;
nodes = (
(46,-149,o),
(22,-174,cs),
(4,-193,o),
(-15,-202,o),
(-36,-202,cs),
(-49,-202,o),
(-67,-200,o),
(-74,-196,cs),
(-87,-189,o),
(-125,-181,o),
(-143,-208,cs),
(-166,-243,o),
(-147,-268,o),
(-131,-278,cs),
(-117,-287,o),
(-75,-300,o),
(-27,-300,cs),
(28,-300,o),
(64,-276,o),
(100,-236,cs),
(143,-189,o),
(153,-78,o),
(158,-28,cs),
(193,305,ls),
(196,335,o),
(172,350,o),
(142,350,cs),
(114,350,o),
(96,335,o),
(93,306,cs),
(58,-20,ls),
(55,-51,o)
);
},
{
closed = 1;
nodes = (
(185,417,o),
(205,442,o),
(205,470,cs),
(205,499,o),
(183,516,o),
(159,516,cs),
(131,516,o),
(105,494,o),
(105,466,cs),
(105,437,o),
(133,417,o),
(158,417,cs)
);
}
);
width = 259;
}
);
metricRight = n;
unicode = 106;
},
{
glyphname = k;
lastChange = "2022-03-08 22:52:02 +0000";
layers = (
{
layerId = m01;
shapes = (
{
closed = 1;
nodes = (
(164,642,o),
(153,650,o),
(137,650,cs),
(122,650,o),
(114,639,o),
(112,622,cs),
(48,26,ls),
(46,10,o),
(57,0,o),
(70,0,cs),
(86,0,o),
(96,7,o),
(98,26,cs),
(162,621,ls)
);
},
{
closed = 1;
nodes = (
(100,175,l),
(246,18,ls),
(255,8,o),
(264,-1,o),
(277,-1,cs),
(287,-1,o),
(297,5,o),
(299,16,cs),
(300,23,o),
(302,32,o),
(293,42,cs),
(168,175,l)
);
},
{
closed = 1;
nodes = (
(106,167,o),
(120,189,o),
(127,197,cs),
(142,215,o),
(168,259,o),
(185,274,cs),
(204,290,o),
(224,305,o),
(244,305,cs),
(258,305,o),
(268,287,o),
(267,274,cs),
(264,248,o),
(247,236,o),
(219,219,cs),
(199,207,o),
(128,185,o),
(100,175,c),
(162,144,l),
(175,148,o),
(224,164,o),
(242,175,cs),
(277,196,o),
(313,225,o),
(316,254,cs),
(320,288,o),
(305,354,o),
(246,354,cs),
(213,354,o),
(181,336,o),
(152,311,cs),
(136,297,o),
(120,271,o),
(104,254,c),
(100,158,l)
);
}
);
width = 380;
},
{
layerId = m002;
shapes = (
{
closed = 1;
nodes = (
(230,633,o),
(204,653,o),
(176,653,cs),
(151,653,o),
(129,638,o),
(126,608,cs),
(68,48,ls),
(65,19,o),
(87,-2,o),
(114,-2,cs),
(141,-2,o),
(165,11,o),
(168,40,cs),
(226,599,ls)
);
},
{
closed = 1;
nodes = (
(129,153,l),
(250,27,ls),
(265,11,o),
(281,0,o),
(299,0,cs),
(319,0,o),
(340,13,o),
(344,33,cs),
(346,45,o),
(346,57,o),
(333,71,cs),
(243,164,l)
);
},
{
closed = 1;
nodes = (
(172,176,o),
(176,183,o),
(181,189,cs),
(187,196,o),
(228,246,o),
(240,256,cs),
(257,271,o),
(273,275,o),
(281,275,cs),
(288,275,o),
(296,268,o),
(296,261,cs),
(296,251,o),
(281,240,o),
(258,228,cs),
(227,212,o),
(185,199,o),
(155,190,c),
(223,128,l),
(235,131,o),
(281,146,o),
(298,157,cs),
(331,177,o),
(370,207,o),
(374,242,cs),
(378,279,o),
(360,353,o),
(290,353,cs),
(254,353,o),
(220,346,o),
(194,323,cs),
(175,308,o),
(160,279,o),
(144,266,c),
(167,168,l)
);
}
);
width = 447;
}
);
metricLeft = n;
metricRight = n;
unicode = 107;
},
{
glyphname = l;
lastChange = "2022-03-08 22:52:02 +0000";
layers = (
{
layerId = m01;
shapes = (
{
closed = 1;
nodes = (
(164,640,o),
(150,650,o),
(136,650,cs),
(125,650,o),
(114,644,o),
(112,629,cs),
(48,27,ls),
(46,9,o),
(60,0,o),
(74,0,cs),
(85,0,o),
(97,7,o),
(98,22,cs),
(162,624,ls)
);
}
);
width = 179;
},
{
layerId = m002;
shapes = (
{
closed = 1;
nodes = (
(228,631,o),
(201,650,o),
(173,650,cs),
(151,650,o),
(129,640,o),
(126,612,cs),
(67,50,ls),
(63,15,o),
(93,0,o),
(116,0,cs),
(138,0,o),
(164,15,o),
(167,44,cs),
(225,599,ls)
);
}
);
width = 261;
}
);
metricLeft = n;
metricRight = n;
unicode = 108;
},
{
glyphname = m;
lastChange = "2022-03-08 22:52:02 +0000";
layers = (
{
layerId = m01;
shapes = (
{
closed = 1;
nodes = (
(132,340,o),
(129,350,o),
(112,350,c),
(93,350,o),
(82,342,o),
(80,323,cs),
(48,23,ls),
(47,15,o),
(50,0,o),
(72,0,cs),
(98,0,o),
(97,18,o),
(98,23,cs),
(130,323,ls)
);
},
{
closed = 1;
nodes = (
(92,114,l),
(154,251,o),
(193,305,o),
(235,305,cs),
(260,305,o),
(269,261,o),
(266,234,cs),
(243,23,ls),
(242,15,o),
(244,0,o),
(266,0,c),
(292,0,o),
(292,18,o),
(293,23,cs),
(316,234,ls),
(322,291,o),
(296,354,o),
(238,354,cs),
(183,354,o),
(146,313,o),
(102,246,c)
);
},
{
closed = 1;
nodes = (
(287,114,l),
(349,251,o),
(388,305,o),
(430,305,cs),
(455,305,o),
(464,261,o),
(461,234,cs),
(438,23,ls),
(437,15,o),
(439,0,o),
(461,0,c),
(487,0,o),
(487,18,o),
(488,23,cs),
(511,234,ls),
(517,291,o),
(491,354,o),
(433,354,cs),
(378,354,o),
(341,313,o),
(297,246,c)
);
}
);
width = 569;
},
{
layerId = m002;
shapes = (
{
closed = 1;
nodes = (
(198,331,o),
(180,350,o),
(151,350,cs),
(122,350,o),
(100,337,o),
(94,309,c),
(66,43,ls),
(63,15,o),
(82,0,o),
(111,0,cs),
(148,0,o),
(164,23,o),
(166,37,cs),
(195,302,ls)
);
},
{
closed = 1;
nodes = (
(163,173,l),
(203,236,o),
(238,266,o),
(261,266,cs),
(277,266,o),
(277,239,o),
(274,214,cs),
(256,46,ls),
(253,22,o),
(271,0,o),
(303,0,cs),
(339,0,o),
(354,23,o),
(356,38,cs),
(374,206,ls),
(384,301,o),
(351,354,o),
(273,354,cs),
(234,354,o),
(202,332,o),
(176,315,c)
);
},
{
closed = 1;
nodes = (
(344,173,l),
(384,236,o),
(419,266,o),
(442,266,cs),
(458,266,o),
(458,239,o),
(455,214,cs),
(437,46,ls),
(434,22,o),
(452,0,o),
(484,0,cs),
(520,0,o),
(535,23,o),
(537,38,cs),
(555,206,ls),
(565,301,o),
(532,354,o),
(454,354,cs),
(415,354,o),
(383,332,o),
(357,315,c)
);
}
);
width = 632;
}
);
metricLeft = n;
metricRight = n;
unicode = 109;
},
{
glyphname = n;
lastChange = "2022-03-08 22:50:33 +0000";
layers = (
{
layerId = m01;
shapes = (
{
closed = 1;
nodes = (
(132,340,o),
(129,350,o),
(112,350,cs),
(92,350,o),
(82,341,o),
(80,323,cs),
(48,23,ls),
(47,15,o),
(50,0,o),
(72,0,cs),
(98,0,o),
(97,18,o),
(98,23,cs),
(130,323,ls)
);
},
{
closed = 1;
nodes = (
(92,114,l),
(154,251,o),
(193,305,o),
(235,305,cs),
(260,305,o),
(269,261,o),
(266,234,cs),
(243,23,ls),
(242,15,o),
(244,0,o),
(266,0,c),
(292,0,o),
(292,18,o),
(293,23,cs),
(316,234,ls),
(322,291,o),
(296,354,o),
(238,354,cs),
(183,354,o),
(146,313,o),
(102,246,c)
);
}
);
width = 374;
},
{
layerId = m002;
shapes = (
{
closed = 1;
nodes = (
(198,332,o),
(181,350,o),
(149,350,cs),
(107,350,o),
(96,320,o),
(94,308,cs),
(66,44,ls),
(64,20,o),
(76,0,o),
(110,0,cs),
(147,0,o),
(164,22,o),
(166,37,cs),
(195,302,ls)
);
},
{
closed = 1;
nodes = (
(163,173,l),
(203,236,o),
(238,266,o),
(261,266,cs),
(277,266,o),
(277,239,o),
(274,214,cs),
(256,46,ls),
(253,22,o),
(271,0,o),
(303,0,cs),
(339,0,o),
(354,23,o),
(356,38,cs),
(374,206,ls),
(384,301,o),
(351,354,o),
(273,354,cs),
(234,354,o),
(202,332,o),
(176,315,c)
);
}
);
width = 451;
}
);
unicode = 110;
},
{
glyphname = o;
lastChange = "2022-03-08 22:51:27 +0000";
layers = (
{
layerId = m01;
shapes = (
{
closed = 1;
nodes = (
(222,-4,o),
(309,157,o),
(319,248,cs),
(325,308,o),
(276,350,o),
(206,350,cs),
(93,350,o),
(53,207,o),
(52,95,cs),
(52,20,o),
(97,-4,o),
(138,-4,cs)
);
},
{
closed = 1;
nodes = (
(110,46,o),
(102,77,o),
(103,105,cs),
(105,181,o),
(132,300,o),
(206,300,cs),
(246,300,o),
(272,287,o),
(268,247,cs),
(259,163,o),
(175,46,o),
(138,46,cs)
);
}
);
width = 365;
},
{
layerId = m002;
shapes = (
{
closed = 1;
nodes = (
(243,-4,o),
(324,151,o),
(333,236,cs),
(342,313,o),
(280,350,o),
(204,350,cs),
(74,350,o),
(46,233,o),
(34,120,cs),
(23,24,o),
(85,-4,o),
(134,-4,cs)
);
},
{
closed = 1;
nodes = (
(130,83,o),
(121,99,o),
(123,118,cs),
(128,164,o),
(138,264,o),
(197,264,cs),
(217,264,o),
(240,254,o),
(238,235,cs),
(233,184,o),
(172,83,o),
(144,83,cs)
);
}
);
width = 367;
}
);
unicode = 111;
},
{
glyphname = p;
lastChange = "2022-03-09 00:18:45 +0000";
layers = (
{
layerId = m01;
shapes = (
{
closed = 1;
nodes = (
(134,342,o),
(123,350,o),
(110,350,cs),
(98,350,o),
(84,342,o),
(82,327,cs),
(17,-276,ls),
(15,-292,o),
(28,-300,o),
(41,-300,cs),
(53,-300,o),
(65,-292,o),
(67,-277,cs),
(132,327,ls)
);
},
{
closed = 1;
nodes = (
(96,108,l),
(149,239,o),
(206,303,o),
(235,303,cs),
(262,303,o),
(272,288,o),
(272,223,cs),
(272,165,o),
(239,50,o),
(168,50,cs),
(155,50,o),
(102,50,o),
(94,50,c),
(89,0,l),
(101,0,o),
(155,0,o),
(171,0,cs),
(274,0,o),
(322,138,o),
(322,228,cs),
(322,328,o),
(281,353,o),
(243,353,cs),
(189,353,o),
(145,304,o),
(109,240,c)
);
}
);
width = 372;
},
{
layerId = m002;
shapes = (
{
closed = 1;
nodes = (
(197,327,o),
(174,350,o),
(147,350,cs),
(124,350,o),
(97,335,o),
(94,310,cs),
(35,-254,ls),
(32,-283,o),
(58,-303,o),
(85,-303,cs),
(108,-303,o),
(132,-288,o),
(135,-263,cs),
(194,299,ls)
);
},
{
closed = 1;
nodes = (
(152,155,l),
(201,238,o),
(240,267,o),
(259,267,cs),
(277,267,o),
(285,249,o),
(282,220,cs),
(277,175,o),
(283,87,o),
(170,87,cs),
(164,87,o),
(150,87,o),
(143,87,c),
(134,0,l),
(142,0,o),
(167,0,o),
(174,0,cs),
(330,0,o),
(358,89,o),
(373,230,cs),
(384,329,o),
(322,354,o),
(265,354,cs),
(235,354,o),
(197,333,o),
(166,303,c)
);
}
);
width = 407;
}
);
metricLeft = n;
metricRight = o;
unicode = 112;
},
{
glyphname = q;
lastChange = "2022-03-09 00:19:28 +0000";
layers = (
{
layerId = m01;
shapes = (
{
closed = 1;
nodes = (
(227,-154,ls),
(220,-223,o),
(225,-300,o),
(295,-300,cs),
(346,-300,o),
(378,-218,o),
(377,-206,cs),
(376,-191,o),
(364,-184,o),
(353,-184,cs),
(341,-184,o),
(333,-192,o),
(331,-196,cs),
(305,-241,o),
(298,-252,o),
(291,-252,cs),
(271,-252,o),
(272,-203,o),
(276,-168,cs),
(328,327,ls),
(329,335,o),
(327,350,o),
(305,350,cs),
(280,350,l)
);
},
{
closed = 1;
nodes = (
(280,241,l),
(227,110,o),
(170,46,o),
(141,46,cs),
(114,46,o),
(104,61,o),
(104,126,cs),
(104,184,o),
(137,300,o),
(208,300,cs),
(221,300,o),
(274,300,o),
(282,300,c),
(287,350,l),
(275,350,o),
(221,350,o),
(205,350,cs),
(102,350,o),
(54,211,o),
(54,121,cs),
(54,21,o),
(95,-4,o),
(133,-4,cs),
(187,-4,o),
(231,45,o),
(267,109,c)
);
}
);
width = 367;
},
{
layerId = m002;
shapes = (
{
closed = 1;
nodes = (
(202,-62,ls),
(189,-188,o),
(182,-300,o),
(291,-300,cs),
(355,-300,o),
(414,-242,o),
(410,-187,cs),
(408,-160,o),
(387,-147,o),
(365,-147,cs),
(353,-147,o),
(342,-158,o),
(334,-171,cs),
(318,-196,o),
(311,-201,o),
(303,-201,cs),
(295,-201,o),
(289,-187,o),
(293,-154,cs),
(342,306,ls),
(344,328,o),
(327,350,o),
(294,350,cs),
(247,350,l)
);
},
{
closed = 1;
nodes = (
(255,195,l),
(206,112,o),
(170,83,o),
(148,83,cs),
(130,83,o),
(120,101,o),
(123,130,cs),
(128,175,o),
(124,263,o),
(237,263,cs),
(243,263,o),
(257,263,o),
(264,263,c),
(273,350,l),
(265,350,o),
(240,350,o),
(233,350,cs),
(77,350,o),
(49,261,o),
(34,120,cs),
(23,21,o),
(85,-4,o),
(142,-4,cs),
(172,-4,o),
(210,17,o),
(241,47,c)
);
}
);
width = 384;
}
);
metricLeft = a;
unicode = 113;
},
{
glyphname = r;
lastChange = "2022-03-09 00:19:24 +0000";
layers = (
{
layerId = m01;
shapes = (
{
closed = 1;
nodes = (
(132,340,o),
(121,350,o),
(108,350,cs),
(96,350,o),
(82,341,o),
(80,323,cs),
(49,27,ls),
(47,9,o),
(59,0,o),
(72,0,cs),
(85,0,o),
(97,9,o),
(99,27,cs),
(130,320,ls)
);
},
{
closed = 1;
nodes = (
(267,251,o),
(285,247,o),
(297,253,cs),
(308,258,o),
(316,268,o),
(312,287,cs),
(303,324,o),
(278,354,o),
(238,354,cs),
(183,354,o),
(146,313,o),
(102,246,c),
(92,114,l),
(154,251,o),
(193,305,o),
(235,305,cs),
(252,305,o),
(260,284,o),
(265,262,cs)
);
}
);
width = 356;
},
{
layerId = m002;
shapes = (
{
closed = 1;
nodes = (
(196,329,o),
(170,351,o),
(144,351,cs),
(122,351,o),
(97,336,o),
(94,309,cs),
(67,48,ls),
(64,18,o),
(90,-1,o),
(116,-1,cs),
(139,-1,o),
(164,14,o),
(167,41,cs),
(193,297,ls)
);
},
{
closed = 1;
nodes = (
(279,229,o),
(323,223,o),
(339,230,cs),
(369,243,o),
(374,271,o),
(369,290,cs),
(356,332,o),
(324,354,o),
(273,354,cs),
(234,354,o),
(202,332,o),
(176,315,c),
(163,173,l),
(203,236,o),
(238,266,o),
(261,266,cs),
(269,266,o),
(272,260,o),
(274,251,cs)
);
}
);
width = 400;
}
);
metricLeft = n;
metricRight = o;
unicode = 114;
},
{
glyphname = s;
lastChange = "2022-03-08 22:52:02 +0000";
layers = (
{
layerId = m01;
shapes = (
{
closed = 1;
nodes = (
(140,46,o),
(108,68,o),
(92,80,cs),
(77,90,o),
(55,85,o),
(49,73,cs),
(40,56,o),
(55,45,o),
(73,32,cs),
(109,7,o),
(148,-4,o),
(175,-4,cs),
(223,-4,o),
(271,22,o),
(277,80,cs),
(281,117,o),
(264,145,o),
(245,162,cs),
(221,184,o),
(194,197,o),
(166,216,cs),
(143,231,o),
(115,246,o),
(117,265,cs),
(119,287,o),
(150,300,o),
(182,300,cs),
(214,300,o),
(242,289,o),
(254,279,cs),
(267,269,o),
(291,272,o),
(297,284,cs),
(306,301,o),
(293,315,o),
(274,325,cs),
(237,346,o),
(206,350,o),
(179,350,cs),
(119,350,o),
(74,319,o),
(67,265,cs),
(63,226,o),
(104,194,o),
(135,176,cs),
(163,159,o),
(188,144,o),
(203,133,cs),
(216,122,o),
(229,102,o),
(227,83,cs),
(224,55,o),
(199,48,o),
(172,46,cs)
);
}
);
width = 341;
},
{
layerId = m002;
shapes = (
{
closed = 1;
nodes = (
(139,82,o),
(115,103,o),
(105,108,cs),
(81,120,o),
(46,117,o),
(34,94,cs),
(22,68,o),
(37,42,o),
(80,20,cs),
(107,6,o),
(140,-4,o),
(167,-4,cs),
(217,-4,o),
(277,21,o),
(283,87,cs),
(287,128,o),
(265,159,o),
(245,177,cs),
(233,188,o),
(207,203,o),
(186,216,cs),
(165,229,o),
(142,239,o),
(141,252,cs),
(141,262,o),
(158,264,o),
(176,264,cs),
(195,264,o),
(219,255,o),
(230,249,cs),
(255,237,o),
(288,236,o),
(299,258,cs),
(313,288,o),
(294,314,o),
(256,333,cs),
(229,344,o),
(197,350,o),
(170,350,cs),
(106,350,o),
(55,319,o),
(49,259,cs),
(44,213,o),
(91,173,o),
(121,156,cs),
(144,142,o),
(165,129,o),
(179,120,cs),
(187,113,o),
(188,110,o),
(188,102,cs),
(187,92,o),
(182,84,o),
(162,82,cs)
);
}
);
width = 333;
}
);
metricLeft = o;
metricRight = o;
unicode = 115;
},
{
glyphname = t;
lastChange = "2022-03-09 00:19:24 +0000";
layers = (
{
layerId = m01;
shapes = (
{
closed = 1;
nodes = (
(271,640,o),
(257,650,o),
(243,650,cs),
(232,650,o),
(220,643,o),
(219,629,cs),
(154,24,ls),
(152,8,o),
(166,0,o),
(179,0,cs),
(192,0,o),
(202,7,o),
(204,23,cs),
(269,622,ls)
);
},
{
closed = 1;
nodes = (
(346,305,o),
(350,316,o),
(350,328,cs),
(350,340,o),
(343,350,o),
(323,350,cs),
(99,350,ls),
(79,350,o),
(74,340,o),
(74,328,cs),
(74,316,o),
(82,305,o),
(102,305,cs),
(326,305,ls)
);
}
);
width = 388;
},
{
layerId = m002;
shapes = (
{
closed = 1;
nodes = (
(293,631,o),
(270,650,o),
(242,650,cs),
(214,650,o),
(192,631,o),
(190,611,cs),
(132,44,ls),
(129,12,o),
(156,0,o),
(182,0,cs),
(207,0,o),
(229,9,o),
(232,35,cs),
(290,602,ls)
);
},
{
closed = 1;
nodes = (
(348,265,o),
(364,283,o),
(364,307,cs),
(364,332,o),
(343,350,o),
(311,350,cs),
(101,350,ls),
(69,350,o),
(54,332,o),
(54,307,cs),
(54,283,o),
(74,265,o),
(106,265,cs),
(316,265,ls)
);
}
);
width = 390;
}
);
metricLeft = o;
metricRight = o;
unicode = 116;
},
{
glyphname = u;
lastChange = "2022-03-08 22:52:02 +0000";
layers = (
{
layerId = m01;
shapes = (
{
closed = 1;
nodes = (
(243,10,o),
(247,0,o),
(264,0,c),
(284,0,o),
(293,9,o),
(295,27,cs),
(327,327,ls),
(328,335,o),
(326,350,o),
(304,350,cs),
(278,350,o),
(278,332,o),
(277,327,cs),
(245,27,ls)
);
},
{
closed = 1;
nodes = (
(282,236,l),
(220,99,o),
(181,45,o),
(139,45,cs),
(114,45,o),
(105,89,o),
(108,116,cs),
(131,327,ls),
(132,335,o),
(130,350,o),
(108,350,c),
(82,350,o),
(82,332,o),
(81,327,cs),
(58,116,ls),
(52,59,o),
(78,-4,o),
(136,-4,cs),
(191,-4,o),
(228,37,o),
(272,104,c)
);
}
);
width = 375;
},
{
layerId = m002;
shapes = (
{
closed = 1;
nodes = (
(253,18,o),
(270,0,o),
(302,0,cs),
(344,0,o),
(355,30,o),
(357,42,cs),
(385,306,ls),
(387,330,o),
(375,350,o),
(341,350,cs),
(304,350,o),
(287,328,o),
(285,313,cs),
(256,48,ls)
);
},
{
closed = 1;
nodes = (
(288,177,l),
(248,114,o),
(213,84,o),
(190,84,cs),
(174,84,o),
(174,111,o),
(177,136,cs),
(195,304,ls),
(198,328,o),
(180,350,o),
(148,350,cs),
(112,350,o),
(97,327,o),
(95,312,cs),
(77,144,ls),
(67,49,o),
(100,-4,o),
(178,-4,cs),
(217,-4,o),
(249,18,o),
(275,35,c)
);
}
);
width = 451;
}
);
metricLeft = n;
metricRight = n;
unicode = 117;
},
{
glyphname = v;
lastChange = "2022-03-08 22:52:02 +0000";
layers = (
{
layerId = m01;
shapes = (
{
closed = 1;
nodes = (
(132,340,o),
(122,350,o),
(109,350,cs),
(97,350,o),
(82,341,o),
(80,323,cs),
(57,102,ls),
(51,49,o),
(70,-4,o),
(112,-4,cs),
(172,-4,o),
(231,69,o),
(261,138,cs),
(283,189,o),
(312,269,o),
(326,314,cs),
(333,336,o),
(328,350,o),
(308,350,cs),
(290,350,o),
(281,336,o),
(276,322,cs),
(261,279,o),
(245,229,o),
(226,183,cs),
(209,142,o),
(155,47,o),
(121,47,cs),
(100,47,o),
(105,79,o),
(107,102,cs),
(130,320,ls)
);
}
);
width = 377;
},
{
layerId = m002;
shapes = (
{
closed = 1;
nodes = (
(198,331,o),
(174,350,o),
(147,350,cs),
(125,350,o),
(97,335,o),
(94,308,cs),
(74,115,ls),
(68,56,o),
(89,-4,o),
(152,-4,cs),
(238,-4,o),
(289,55,o),
(328,129,cs),
(351,173,o),
(380,248,o),
(393,289,cs),
(409,340,o),
(372,350,o),
(350,350,cs),
(323,350,o),
(311,337,o),
(299,308,cs),
(293,293,o),
(283,262,o),
(267,223,cs),
(253,188,o),
(229,125,o),
(201,96,cs),
(161,53,o),
(173,99,o),
(179,157,cs),
(194,298,ls)
);
}
);
width = 463;
}
);
metricLeft = n;
metricRight = n;
unicode = 118;
},
{
glyphname = w;
lastChange = "2022-03-08 22:52:02 +0000";
layers = (
{
layerId = m01;
shapes = (
{
closed = 1;
nodes = (
(132,340,o),
(122,350,o),
(109,350,cs),
(97,350,o),
(82,341,o),
(80,323,cs),
(57,102,ls),
(51,49,o),
(70,-4,o),
(112,-4,cs),
(172,-4,o),
(233,68,o),
(261,138,cs),
(284,195,l),
(308,350,l),
(290,350,o),
(281,336,o),
(276,322,cs),
(261,279,o),
(245,229,o),
(226,183,cs),
(209,142,o),
(155,47,o),
(121,47,cs),
(100,47,o),
(105,79,o),
(107,102,cs),
(130,320,ls)
);
},
{
closed = 1;
nodes = (
(330,340,o),
(320,350,o),
(307,350,c),
(265,196,l),
(255,102,ls),
(249,49,o),
(268,-4,o),
(310,-4,cs),
(370,-4,o),
(429,69,o),
(459,138,cs),
(481,189,o),
(510,269,o),
(524,314,cs),
(531,336,o),
(526,350,o),
(506,350,cs),
(488,350,o),
(479,336,o),
(474,322,cs),
(459,279,o),
(443,229,o),
(424,183,cs),
(407,142,o),
(353,47,o),
(319,47,cs),
(298,47,o),
(303,79,o),
(305,102,cs),
(328,320,ls)
);
}
);
width = 575;
},
{
layerId = m002;
shapes = (
{
closed = 1;
nodes = (
(198,331,o),
(174,350,o),
(147,350,cs),
(125,350,o),
(97,335,o),
(94,308,cs),
(74,115,ls),
(68,56,o),
(89,-4,o),
(152,-4,cs),
(238,-4,o),
(291,54,o),
(328,129,cs),
(340,153,l),
(353,350,l),
(326,350,o),
(311,337,o),
(299,308,cs),
(293,293,o),
(283,262,o),
(267,223,cs),
(253,188,o),
(229,125,o),
(201,96,cs),
(161,53,o),
(173,99,o),
(179,157,cs),
(194,298,ls)
);
},
{
closed = 1;
nodes = (
(405,331,o),
(379,350,o),
(352,350,c),
(284,148,l),
(281,115,ls),
(276,56,o),
(296,-4,o),
(359,-4,cs),
(445,-4,o),
(496,55,o),
(535,129,cs),
(558,173,o),
(587,248,o),
(600,289,cs),
(616,340,o),
(579,350,o),
(557,350,cs),
(530,350,o),
(518,337,o),
(506,308,cs),
(500,293,o),
(490,262,o),
(474,223,cs),
(460,188,o),
(436,125,o),
(408,96,cs),
(368,53,o),
(380,99,o),
(386,157,cs),
(401,298,ls)
);
}
);
width = 670;
}
);
metricLeft = n;
metricRight = v;
unicode = 119;
},
{
glyphname = x;
lastChange = "2022-03-08 22:52:02 +0000";
layers = (
{
layerId = m01;
shapes = (
{
closed = 1;
nodes = (
(311,314,o),
(316,317,o),
(315,327,cs),
(315,333,o),
(312,339,o),
(307,344,cs),
(302,349,o),
(295,350,o),
(288,350,cs),
(281,349,o),
(273,347,o),
(269,341,cs),
(46,43,ls),
(40,34,o),
(37,28,o),
(39,21,cs),
(40,16,o),
(43,11,o),
(48,6,cs),
(52,2,o),
(57,0,o),
(64,0,cs),
(72,0,o),
(80,5,o),
(84,10,cs),
(307,308,ls)
);
},
{
closed = 1;
nodes = (
(115,344,o),
(104,350,o),
(96,350,cs),
(89,350,o),
(83,347,o),
(78,343,cs),
(73,339,o),
(71,333,o),
(70,327,cs),
(71,321,o),
(74,314,o),
(77,309,cs),
(238,12,ls),
(242,5,o),
(252,1,o),
(257,0,cs),
(264,-1,o),
(272,3,o),
(276,8,cs),
(281,13,o),
(285,20,o),
(284,27,cs),
(284,33,o),
(280,38,o),
(277,44,cs),
(119,336,ls)
);
}
);
width = 364;
},
{
layerId = m002;
shapes = (
{
closed = 1;
nodes = (
(353,285,o),
(359,294,o),
(358,309,cs),
(358,321,o),
(353,331,o),
(343,340,cs),
(335,348,o),
(320,350,o),
(307,350,cs),
(296,350,o),
(279,345,o),
(272,337,cs),
(69,76,ls),
(59,64,o),
(54,52,o),
(57,38,cs),
(59,29,o),
(64,21,o),
(71,12,cs),
(79,4,o),
(93,0,o),
(106,0,cs),
(120,0,o),
(136,7,o),
(143,16,cs),
(346,277,ls)
);
},
{
closed = 1;
nodes = (
(163,345,o),
(148,350,o),
(134,350,cs),
(122,350,o),
(111,347,o),
(101,339,cs),
(93,332,o),
(88,321,o),
(87,310,cs),
(88,299,o),
(95,288,o),
(99,281,cs),
(247,18,ls),
(256,2,o),
(279,0,o),
(289,0,cs),
(301,0,o),
(312,7,o),
(318,14,cs),
(324,22,o),
(331,33,o),
(330,45,cs),
(329,54,o),
(324,62,o),
(319,71,cs),
(174,331,l)
);
}
);
width = 425;
}
);
metricLeft = "=n-10";
metricRight = n;
unicode = 120;
},
{
glyphname = y;
lastChange = "2022-03-08 22:52:02 +0000";
layers = (
{
layerId = m01;
shapes = (
{
closed = 1;
nodes = (
(225,99,o),
(186,45,o),
(144,45,cs),
(119,45,o),
(110,89,o),
(113,116,cs),
(136,327,ls),
(137,335,o),
(135,350,o),
(113,350,c),
(87,350,o),
(87,332,o),
(86,327,cs),
(63,116,ls),
(57,59,o),
(83,-4,o),
(141,-4,cs),
(196,-4,o),
(233,37,o),
(277,104,c),
(287,236,l)
);
},
{
closed = 1;
nodes = (
(334,344,o),
(322,351,o),
(305,351,cs),
(294,351,o),
(283,340,o),
(282,329,cs),
(238,-94,ls),
(234,-129,o),
(226,-197,o),
(196,-226,cs),
(178,-245,o),
(147,-250,o),
(113,-250,cs),
(94,-250,o),
(71,-240,o),
(56,-233,cs),
(49,-230,o),
(35,-228,o),
(25,-240,cs),
(15,-252,o),
(18,-266,o),
(29,-274,cs),
(47,-287,o),
(81,-300,o),
(117,-300,cs),
(168,-300,o),
(204,-287,o),
(229,-263,cs),
(270,-224,o),
(282,-156,o),
(288,-94,cs),
(332,327,ls)
);
}
);
width = 380;
},
{
layerId = m002;
shapes = (
{
closed = 1;
nodes = (
(248,114,o),
(213,84,o),
(190,84,cs),
(174,84,o),
(174,111,o),
(177,136,cs),
(195,304,ls),
(198,328,o),
(180,350,o),
(148,350,cs),
(112,350,o),
(97,327,o),
(95,312,cs),
(77,144,ls),
(67,49,o),
(100,-4,o),
(178,-4,cs),
(217,-4,o),
(249,18,o),
(275,35,c),
(288,177,l)
);
},
{
closed = 1;
nodes = (
(387,335,o),
(363,350,o),
(333,350,cs),
(305,350,o),
(287,335,o),
(284,306,cs),
(249,-20,ls),
(246,-51,o),
(237,-149,o),
(213,-174,cs),
(195,-193,o),
(176,-202,o),
(155,-202,cs),
(142,-202,o),
(124,-200,o),
(117,-196,cs),
(104,-189,o),
(66,-181,o),
(48,-208,cs),
(25,-243,o),
(44,-268,o),
(60,-278,cs),
(74,-287,o),
(116,-300,o),
(164,-300,cs),
(219,-300,o),
(255,-276,o),
(291,-236,cs),
(334,-189,o),
(344,-78,o),
(349,-28,cs),
(384,305,ls)
);
}
);
width = 450;
}
);
metricLeft = n;
metricRight = n;
unicode = 121;
},
{
glyphname = z;
lastChange = "2022-03-08 22:52:02 +0000";
layers = (
{
layerId = m01;
shapes = (
{
closed = 1;
nodes = (
(332,326,o),
(326,337,o),
(319,344,cs),
(314,349,o),
(307,350,o),
(300,350,cs),
(293,349,o),
(285,347,o),
(281,341,cs),
(55,44,ls),
(45,31,o),
(47,19,o),
(58,6,cs),
(62,2,o),
(67,0,o),
(74,0,cs),
(82,0,o),
(89,6,o),
(93,11,cs),
(319,309,ls)
);
},
{
closed = 1;
nodes = (
(271,0,ls),
(291,0,o),
(295,13,o),
(295,25,cs),
(295,37,o),
(288,50,o),
(268,50,cs),
(109,50,l),
(72,0,l)
);
},
{
closed = 1;
nodes = (
(302,350,l),
(105,350,ls),
(85,350,o),
(80,337,o),
(80,325,cs),
(80,313,o),
(88,300,o),
(108,300,cs),
(265,300,l)
);
}
);
width = 375;
},
{
background = {
shapes = (
{
closed = 1;
nodes = (
(224,599,ls),
(227,632,o),
(202,650,o),
(175,650,cs),
(155,650,o),
(128,640,o),
(124,607,cs),
(64,44,ls),
(61,18,o),
(80,0,o),
(107,0,cs),
(161,0,l)
);
},
{
closed = 1;
nodes = (
(405,631,o),
(383,650,o),
(355,650,cs),
(333,650,o),
(311,640,o),
(308,612,cs),
(248,50,ls),
(244,15,o),
(270,0,o),
(293,0,cs),
(315,0,o),
(340,15,o),
(343,44,cs),
(402,599,ls)
);
}
);
};
layerId = m002;
shapes = (
{
closed = 1;
nodes = (
(375,296,o),
(375,321,o),
(357,340,cs),
(348,348,o),
(334,350,o),
(321,350,cs),
(309,350,o),
(295,345,o),
(288,337,cs),
(78,75,ls),
(63,57,o),
(62,34,o),
(80,12,cs),
(88,4,o),
(102,0,o),
(115,0,cs),
(129,0,o),
(144,7,o),
(152,16,cs),
(360,277,ls)
);
},
{
closed = 1;
nodes = (
(300,0,ls),
(330,0,o),
(347,19,o),
(345,43,cs),
(343,67,o),
(324,85,o),
(294,85,cs),
(184,85,l),
(114,0,l)
);
},
{
closed = 1;
nodes = (
(322,350,l),
(139,350,ls),
(109,350,o),
(92,329,o),
(94,305,cs),
(95,281,o),
(115,260,o),
(145,260,cs),
(256,260,l)
);
}
);
width = 440;
}
);
metricLeft = n;
metricRight = n;
unicode = 122;
},
{
glyphname = a.sc;
lastChange = "2022-03-08 23:30:18 +0000";
layers = (
{
layerId = m01;
name = "QBeginners Light";
shapes = (
{
closed = 1;
nodes = (
(223,365,l),
(226,381,o),
(215,396,o),
(197,396,cs),
(182,396,o),
(178,387,o),
(174,377,cs),
(20,35,ls),
(12,18,o),
(25,0,o),
(42,0,cs),
(57,0,o),
(63,6,o),
(70,21,cs),
(222,359,l)
);
},
{
closed = 1;
nodes = (
(235,175,l),
(228,216,l),
(114,216,l),
(94,175,l)
);
},
{
closed = 1;
nodes = (
(176,358,l),
(228,25,ls),
(230,13,o),
(237,0,o),
(256,0,cs),
(271,0,o),
(281,10,o),
(278,28,cs),
(224,378,l)
);
}
);
width = 323;
},
{
layerId = m002;
name = "QBeginners Light";
shapes = (
{
closed = 1;
nodes = (
(248,348,l),
(254,380,o),
(235,396,o),
(204,396,cs),
(180,396,o),
(169,383,o),
(162,367,cs),
(26,65,ls),
(13,34,o),
(25,0,o),
(58,0,cs),
(80,0,o),
(94,9,o),
(104,31,cs),
(233,317,l)
);
},
{
closed = 1;
nodes = (
(269,151,l),
(258,221,l),
(118,221,l),
(79,151,l)
);
},
{
closed = 1;
nodes = (
(184,326,l),
(221,45,ls),
(225,18,o),
(238,0,o),
(266,0,cs),
(293,0,o),
(308,21,o),
(303,50,cs),
(248,371,l)
);
}
);
width = 349;
},
{
associatedMasterId = m01;
attr = {
axisRules = (
{
max = 800;
min = 600;
}
);
};
layerId = "4A5161CB-C52A-439D-9936-046CF82AA347";
name = "5 Mar 22, 05:23";
shapes = (
{
closed = 1;
nodes = (
(223,365,l),
(226,381,o),
(215,396,o),
(197,396,cs),
(182,396,o),
(178,387,o),
(174,377,cs),
(20,35,ls),
(12,18,o),
(25,0,o),
(42,0,cs),
(57,0,o),
(63,6,o),
(70,21,cs),
(222,359,l)
);
},
{
closed = 1;
nodes = (
(235,175,l),
(228,216,l),
(114,216,l),
(94,175,l)
);
},
{
closed = 1;
nodes = (
(176,358,l),
(228,25,ls),
(230,13,o),
(237,0,o),
(256,0,cs),
(271,0,o),
(281,10,o),
(278,28,cs),
(224,378,l)
);
}
);
width = 322;
},
{
associatedMasterId = m002;
attr = {
axisRules = (
{
max = 800;
min = 600;
}
);
};
layerId = "0C86E8E2-A06F-4424-A96B-ACA4383749A9";
name = "5 Mar 22, 05:23";
shapes = (
{
closed = 1;
nodes = (
(248,348,l),
(254,380,o),
(235,396,o),
(204,396,cs),
(180,396,o),
(169,383,o),
(162,367,cs),
(26,65,ls),
(13,34,o),
(25,0,o),
(58,0,cs),
(80,0,o),
(94,9,o),
(104,31,cs),
(233,317,l)
);
},
{
closed = 1;
nodes = (
(272,120,l),
(260,190,l),
(120,190,l),
(82,120,l)
);
},
{
closed = 1;
nodes = (
(184,326,l),
(221,45,ls),
(225,18,o),
(238,0,o),
(266,0,cs),
(293,0,o),
(308,21,o),
(303,50,cs),
(248,371,l)
);
}
);
width = 348;
}
);
metricLeft = A;
metricRight = A;
},
{
glyphname = b.sc;
lastChange = "2022-03-09 00:19:28 +0000";
layers = (
{
layerId = m01;
shapes = (
{
closed = 1;
nodes = (
(138,384,o),
(127,396,o),
(112,396,cs),
(97,396,o),
(88,387,o),
(86,369,cs),
(51,32,ls),
(49,15,o),
(61,0,o),
(77,0,cs),
(89,0,o),
(99,8,o),
(101,27,cs),
(136,363,ls)
);
},
{
closed = 1;
nodes = (
(233,-1,o),
(296,18,o),
(305,92,cs),
(313,175,o),
(220,224,o),
(110,224,c),
(106,171,l),
(204,171,o),
(260,144,o),
(256,100,cs),
(251,59,o),
(190,49,o),
(80,50,c),
(75,0,l)
);
},
{
closed = 1;
nodes = (
(285,171,o),
(317,212,o),
(324,281,cs),
(333,360,o),
(230,396,o),
(111,396,c),
(105,345,l),
(208,346,o),
(279,329,o),
(274,286,cs),
(271,247,o),
(253,224,o),
(114,224,c),
(109,171,l)
);
}
);
width = 360;
},
{
layerId = m002;
shapes = (
{
closed = 1;
nodes = (
(196,374,o),
(172,396,o),
(143,396,cs),
(118,396,o),
(100,380,o),
(97,352,cs),
(65,54,ls),
(62,25,o),
(86,0,o),
(116,0,cs),
(138,0,o),
(158,16,o),
(161,43,cs),
(192,340,ls)
);
},
{
closed = 1;
nodes = (
(258,0,o),
(339,12,o),
(347,95,cs),
(357,193,o),
(241,236,o),
(167,236,c),
(159,153,l),
(219,153,o),
(260,141,o),
(258,115,cs),
(256,91,o),
(206,80,o),
(122,80,c),
(114,0,l)
);
},
{
closed = 1;
nodes = (
(317,153,o),
(355,197,o),
(364,270,cs),
(374,364,o),
(264,396,o),
(141,396,c),
(130,317,l),
(225,317,o),
(278,302,o),
(275,280,cs),
(272,253,o),
(262,236,o),
(170,236,c),
(162,153,l)
);
}
);
width = 405;
}
);
metricLeft = B;
metricRight = B;
},
{
glyphname = c.sc;
lastChange = "2022-03-09 00:19:28 +0000";
layers = (
{
layerId = m01;
shapes = (
{
closed = 1;
nodes = (
(313,141,o),
(303,154,o),
(296,158,cs),
(288,162,o),
(270,165,o),
(264,154,cs),
(234,96,o),
(188,46,o),
(162,46,cs),
(129,46,o),
(114,119,o),
(114,169,cs),
(114,227,o),
(153,346,o),
(232,346,cs),
(250,346,o),
(280,343,o),
(293,338,cs),
(305,333,o),
(321,335,o),
(329,352,cs),
(336,367,o),
(332,378,o),
(318,383,cs),
(299,390,o),
(259,396,o),
(232,396,cs),
(119,396,o),
(64,249,o),
(64,169,cs),
(64,62,o),
(106,-4,o),
(162,-4,cs),
(215,-4,o),
(272,60,o),
(308,131,cs)
);
}
);
width = 359;
},
{
layerId = m002;
shapes = (
{
closed = 1;
nodes = (
(356,132,o),
(355,159,o),
(329,172,cs),
(303,185,o),
(278,178,o),
(270,163,cs),
(248,121,o),
(211,86,o),
(193,86,cs),
(174,86,o),
(166,138,o),
(171,183,cs),
(175,218,o),
(190,302,o),
(249,302,cs),
(260,302,o),
(300,301,o),
(310,299,cs),
(332,296,o),
(355,299,o),
(370,332,cs),
(384,363,o),
(370,372,o),
(346,382,cs),
(335,386,o),
(298,392,o),
(256,392,cs),
(126,392,o),
(91,275,o),
(81,185,cs),
(68,66,o),
(124,-4,o),
(197,-4,cs),
(241,-4,o),
(315,56,o),
(350,121,cs)
);
}
);
width = 407;
}
);
metricLeft = C;
metricRight = C;
},
{
glyphname = d.sc;
lastChange = "2022-03-09 00:19:28 +0000";
layers = (
{
layerId = m01;
shapes = (
{
closed = 1;
nodes = (
(114,0,ls),
(215,0,o),
(305,78,o),
(318,210,cs),
(329,315,o),
(239,396,o),
(133,396,cs),
(112,396,l),
(127,342,l),
(140,342,ls),
(217,342,o),
(276,287,o),
(268,214,cs),
(258,107,o),
(186,50,o),
(111,50,cs),
(96,50,l),
(77,0,l)
);
},
{
closed = 1;
nodes = (
(139,377,o),
(131,396,o),
(113,396,cs),
(96,396,o),
(89,388,o),
(87,369,cs),
(51,29,ls),
(49,14,o),
(60,0,o),
(78,0,cs),
(96,0,o),
(100,12,o),
(101,22,cs),
(137,359,ls)
);
}
);
width = 350;
},
{
layerId = m002;
shapes = (
{
closed = 1;
nodes = (
(148,0,ls),
(249,0,o),
(344,78,o),
(358,205,cs),
(368,313,o),
(269,396,o),
(161,396,cs),
(143,396,l),
(159,316,l),
(170,316,ls),
(227,316,o),
(268,270,o),
(262,216,cs),
(255,129,o),
(200,74,o),
(143,74,cs),
(133,74,l),
(115,0,l)
);
},
{
closed = 1;
nodes = (
(195,367,o),
(175,396,o),
(143,396,cs),
(120,396,o),
(100,385,o),
(97,353,cs),
(65,52,ls),
(62,24,o),
(85,0,o),
(116,0,cs),
(143,0,o),
(158,17,o),
(160,38,cs),
(192,336,ls)
);
}
);
width = 395;
}
);
metricLeft = D;
metricRight = D;
},
{
glyphname = e.sc;
lastChange = "2022-03-09 00:19:28 +0000";
layers = (
{
layerId = m01;
shapes = (
{
closed = 1;
nodes = (
(139,385,o),
(132,396,o),
(114,396,cs),
(97,396,o),
(89,387,o),
(88,374,cs),
(51,29,ls),
(49,13,o),
(60,0,o),
(77,0,cs),
(94,0,o),
(100,12,o),
(101,23,cs),
(137,368,ls)
);
},
{
closed = 1;
nodes = (
(273,0,ls),
(288,0,o),
(296,12,o),
(296,26,cs),
(296,39,o),
(286,51,o),
(269,51,cs),
(93,51,l),
(75,0,l)
);
},
{
closed = 1;
nodes = (
(281,190,ls),
(298,190,o),
(304,201,o),
(304,214,cs),
(304,227,o),
(294,238,o),
(277,238,cs),
(113,238,l),
(109,190,l)
);
},
{
closed = 1;
nodes = (
(311,346,ls),
(327,346,o),
(335,358,o),
(335,372,cs),
(335,384,o),
(325,396,o),
(307,396,cs),
(116,396,l),
(127,346,l)
);
}
);
width = 358;
},
{
layerId = m002;
shapes = (
{
closed = 1;
nodes = (
(200,374,o),
(175,396,o),
(145,396,cs),
(114,396,o),
(99,377,o),
(97,355,cs),
(65,52,ls),
(62,25,o),
(79,0,o),
(111,0,cs),
(141,0,o),
(162,19,o),
(164,39,cs),
(196,339,ls)
);
},
{
closed = 1;
nodes = (
(295,0,ls),
(324,0,o),
(341,18,o),
(341,44,cs),
(341,69,o),
(320,85,o),
(291,85,cs),
(152,85,l),
(111,0,l)
);
},
{
closed = 1;
nodes = (
(297,150,ls),
(327,150,o),
(346,169,o),
(346,194,cs),
(346,220,o),
(322,238,o),
(294,238,cs),
(170,238,l),
(159,150,l)
);
},
{
closed = 1;
nodes = (
(328,303,ls),
(356,303,o),
(373,325,o),
(373,351,cs),
(373,377,o),
(351,396,o),
(322,396,cs),
(144,396,l),
(175,303,l)
);
}
);
width = 415;
}
);
metricLeft = E;
metricRight = E;
},
{
glyphname = f.sc;
lastChange = "2022-03-09 00:19:28 +0000";
layers = (
{
layerId = m01;
shapes = (
{
closed = 1;
nodes = (
(139,384,o),
(130,396,o),
(113,396,cs),
(96,396,o),
(89,387,o),
(88,374,cs),
(51,29,ls),
(49,14,o),
(59,0,o),
(76,0,cs),
(94,0,o),
(99,13,o),
(100,23,cs),
(137,368,ls)
);
},
{
closed = 1;
nodes = (
(276,190,ls),
(292,190,o),
(299,200,o),
(299,214,cs),
(299,228,o),
(288,238,o),
(272,238,cs),
(109,238,l),
(105,190,l)
);
},
{
closed = 1;
nodes = (
(312,346,ls),
(329,346,o),
(335,360,o),
(335,374,cs),
(335,387,o),
(325,396,o),
(308,396,cs),
(113,396,l),
(124,346,l)
);
}
);
width = 328;
},
{
layerId = m002;
shapes = (
{
closed = 1;
nodes = (
(199,374,o),
(174,396,o),
(144,396,cs),
(117,396,o),
(100,380,o),
(97,354,cs),
(66,54,ls),
(63,28,o),
(80,0,o),
(110,0,cs),
(140,0,o),
(162,16,o),
(165,45,cs),
(195,339,ls)
);
},
{
closed = 1;
nodes = (
(296,150,ls),
(325,150,o),
(341,169,o),
(341,194,cs),
(341,220,o),
(318,238,o),
(290,238,cs),
(167,238,l),
(158,150,l)
);
},
{
closed = 1;
nodes = (
(325,303,ls),
(353,303,o),
(373,323,o),
(373,350,cs),
(373,377,o),
(349,396,o),
(321,396,cs),
(144,396,l),
(171,303,l)
);
}
);
width = 385;
}
);
metricLeft = F;
metricRight = F;
},
{
glyphname = g.sc;
lastChange = "2022-03-08 22:52:02 +0000";
layers = (
{
layerId = m01;
shapes = (
{
closed = 1;
nodes = (
(276,225,o),
(275,230,o),
(237,164,cs),
(218,132,o),
(168,48,o),
(135,48,cs),
(123,48,o),
(118,64,o),
(116,89,cs),
(113,125,o),
(116,188,o),
(118,211,cs),
(120,236,o),
(121,346,o),
(247,346,cs),
(269,346,o),
(277,342,o),
(281,325,cs),
(284,312,o),
(300,304,o),
(313,308,cs),
(327,311,o),
(330,325,o),
(327,337,cs),
(318,377,o),
(282,396,o),
(242,396,cs),
(72,396,o),
(70,230,o),
(68,214,cs),
(66,195,o),
(63,129,o),
(66,92,cs),
(69,49,o),
(89,-4,o),
(136,-4,cs),
(184,-4,o),
(227,52,o),
(268,115,c),
(291,225,l)
);
},
{
closed = 1;
nodes = (
(316,214,o),
(306,225,o),
(291,225,cs),
(273,225,o),
(265,214,o),
(265,199,c),
(246,29,ls),
(244,15,o),
(253,1,o),
(270,0,cs),
(288,-1,o),
(295,12,o),
(296,25,cs),
(314,196,ls)
);
}
);
width = 376;
},
{
layerId = m002;
shapes = (
{
closed = 1;
nodes = (
(283,236,o),
(270,210,o),
(243,165,cs),
(209,106,o),
(185,84,o),
(178,84,cs),
(173,84,o),
(174,105,o),
(173,130,cs),
(172,156,o),
(174,176,o),
(176,197,cs),
(179,220,o),
(179,305,o),
(253,305,cs),
(258,304,o),
(276,304,o),
(279,295,cs),
(284,282,o),
(311,269,o),
(336,280,cs),
(360,290,o),
(367,310,o),
(359,336,cs),
(347,370,o),
(324,396,o),
(267,396,cs),
(115,396,o),
(94,289,o),
(84,209,cs),
(84,208,o),
(77,135,o),
(79,102,cs),
(82,59,o),
(108,-4,o),
(163,-4,cs),
(211,-4,o),
(260,52,o),
(301,115,c),
(319,236,l)
);
},
{
closed = 1;
nodes = (
(360,204,o),
(345,236,o),
(318,236,cs),
(316,236,o),
(283,229,o),
(280,213,cs),
(253,45,ls),
(250,28,o),
(263,0,o),
(301,0,cs),
(325,0,o),
(341,22,o),
(342,36,cs),
(358,188,ls)
);
}
);
width = 437;
}
);
metricLeft = G;
metricRight = G;
},
{
glyphname = h.sc;
lastChange = "2022-03-08 22:52:02 +0000";
layers = (
{
layerId = m01;
shapes = (
{
closed = 1;
nodes = (
(139,386,o),
(128,396,o),
(114,396,cs),
(98,396,o),
(89,388,o),
(88,374,cs),
(51,29,ls),
(49,13,o),
(60,0,o),
(77,0,cs),
(94,0,o),
(100,12,o),
(101,23,cs),
(137,368,ls)
);
},
{
closed = 1;
nodes = (
(277,190,l),
(282,238,l),
(112,238,l),
(107,190,l)
);
},
{
closed = 1;
nodes = (
(336,385,o),
(326,396,o),
(309,396,cs),
(294,396,o),
(286,389,o),
(285,377,cs),
(248,29,ls),
(246,14,o),
(254,0,o),
(273,0,cs),
(288,0,o),
(296,11,o),
(297,22,cs),
(334,369,ls)
);
}
);
width = 378;
},
{
layerId = m002;
shapes = (
{
closed = 1;
nodes = (
(199,372,o),
(177,396,o),
(149,396,cs),
(122,396,o),
(99,377,o),
(97,354,cs),
(66,51,ls),
(63,20,o),
(89,0,o),
(117,0,cs),
(145,0,o),
(163,18,o),
(165,39,cs),
(196,340,ls)
);
},
{
closed = 1;
nodes = (
(269,153,l),
(279,238,l),
(170,238,l),
(160,153,l)
);
},
{
closed = 1;
nodes = (
(375,373,o),
(351,396,o),
(322,396,cs),
(297,396,o),
(275,378,o),
(273,356,cs),
(242,50,ls),
(239,22,o),
(261,0,o),
(292,0,cs),
(317,0,o),
(338,16,o),
(340,37,cs),
(372,340,ls)
);
}
);
width = 435;
}
);
metricLeft = H;
metricRight = H;
},
{
glyphname = i.sc;
lastChange = "2022-03-08 22:52:02 +0000";
layers = (
{
layerId = m01;
shapes = (
{
closed = 1;
nodes = (
(160,387,o),
(150,396,o),
(133,396,cs),
(117,396,o),
(110,390,o),
(108,374,cs),
(71,29,ls),
(69,14,o),
(79,0,o),
(96,0,cs),
(116,0,o),
(120,16,o),
(121,22,cs),
(158,368,ls)
);
}
);
width = 222;
},
{
layerId = m002;
shapes = (
{
closed = 1;
nodes = (
(220,373,o),
(197,396,o),
(167,396,cs),
(141,396,o),
(120,379,o),
(117,354,cs),
(85,51,ls),
(82,23,o),
(102,0,o),
(132,0,cs),
(161,0,o),
(182,17,o),
(184,38,cs),
(216,339,ls)
);
}
);
width = 299;
}
);
metricLeft = I;
metricRight = I;
},
{
glyphname = j.sc;
lastChange = "2022-03-08 22:52:02 +0000";
layers = (
{
layerId = m01;
shapes = (
{
closed = 1;
nodes = (
(196,128,ls),
(193,100,o),
(189,74,o),
(174,59,cs),
(166,50,o),
(152,46,o),
(134,46,cs),
(121,46,o),
(112,54,o),
(103,65,cs),
(90,81,o),
(72,85,o),
(61,75,cs),
(50,64,o),
(51,50,o),
(66,32,cs),
(83,13,o),
(105,-4,o),
(137,-4,cs),
(168,-4,o),
(190,6,o),
(207,21,cs),
(230,43,o),
(241,80,o),
(246,124,cs),
(272,366,ls),
(274,384,o),
(265,396,o),
(247,396,cs),
(232,396,o),
(225,389,o),
(222,373,c)
);
}
);
width = 316;
},
{
layerId = m002;
shapes = (
{
closed = 1;
nodes = (
(207,172,ls),
(205,149,o),
(201,111,o),
(191,100,cs),
(184,93,o),
(179,91,o),
(170,91,cs),
(160,91,o),
(154,98,o),
(149,103,cs),
(127,122,o),
(91,121,o),
(74,95,cs),
(63,79,o),
(67,54,o),
(82,39,cs),
(91,32,o),
(117,-4,o),
(179,-4,cs),
(214,-4,o),
(241,10,o),
(265,34,cs),
(295,68,o),
(302,134,o),
(305,160,cs),
(323,337,ls),
(327,371,o),
(306,396,o),
(274,396,cs),
(243,396,o),
(229,374,o),
(226,351,cs)
);
}
);
width = 387;
}
);
metricLeft = J;
metricRight = J;
},
{
glyphname = k.sc;
lastChange = "2022-03-09 00:19:28 +0000";
layers = (
{
layerId = m01;
shapes = (
{
closed = 1;
nodes = (
(322,347,ls),
(331,355,o),
(335,365,o),
(335,374,cs),
(335,383,o),
(326,395,o),
(315,396,cs),
(304,396,o),
(297,393,o),
(288,385,cs),
(100,226,l),
(102,203,l),
(148,199,l)
);
},
{
closed = 1;
nodes = (
(100,228,l),
(102,207,l),
(248,16,ls),
(255,6,o),
(264,0,o),
(275,0,cs),
(285,0,o),
(294,7,o),
(297,18,cs),
(298,26,o),
(294,34,o),
(288,42,cs),
(148,227,l)
);
},
{
closed = 1;
nodes = (
(138,382,o),
(130,396,o),
(113,396,cs),
(97,396,o),
(89,388,o),
(87,368,cs),
(51,32,ls),
(49,15,o),
(61,0,o),
(77,0,cs),
(94,0,o),
(100,14,o),
(101,27,cs),
(136,362,ls)
);
}
);
width = 328;
},
{
layerId = m002;
shapes = (
{
closed = 1;
nodes = (
(354,307,ls),
(367,319,o),
(372,332,o),
(373,343,cs),
(375,369,o),
(353,393,o),
(324,393,cs),
(312,393,o),
(295,388,o),
(283,378,cs),
(180,294,l),
(170,171,l),
(196,171,l)
);
},
{
closed = 1;
nodes = (
(176,240,l),
(165,133,l),
(248,23,ls),
(259,8,o),
(276,0,o),
(294,0,cs),
(314,0,o),
(335,12,o),
(339,34,cs),
(341,46,o),
(338,60,o),
(329,72,cs),
(200,240,l)
);
},
{
closed = 1;
nodes = (
(199,375,o),
(171,393,o),
(147,393,cs),
(121,393,o),
(99,377,o),
(97,354,cs),
(65,54,ls),
(62,25,o),
(85,0,o),
(116,0,cs),
(141,0,o),
(161,15,o),
(164,41,cs),
(195,339,ls)
);
}
);
width = 385;
}
);
metricLeft = K;
metricRight = K;
},
{
glyphname = l.sc;
lastChange = "2022-03-09 00:19:28 +0000";
layers = (
{
layerId = m01;
shapes = (
{
closed = 1;
nodes = (
(139,385,o),
(131,396,o),
(114,396,cs),
(100,396,o),
(90,391,o),
(88,374,cs),
(51,29,ls),
(49,13,o),
(60,0,o),
(77,0,cs),
(94,0,o),
(99,13,o),
(100,23,cs),
(137,368,ls)
);
},
{
closed = 1;
nodes = (
(275,0,ls),
(291,0,o),
(298,13,o),
(298,26,cs),
(298,39,o),
(287,51,o),
(271,51,cs),
(93,51,l),
(70,0,l)
);
}
);
width = 348;
},
{
layerId = m002;
shapes = (
{
closed = 1;
nodes = (
(198,373,o),
(176,396,o),
(146,396,cs),
(117,396,o),
(99,376,o),
(97,353,cs),
(65,50,ls),
(62,22,o),
(83,0,o),
(112,0,cs),
(140,0,o),
(160,17,o),
(162,38,cs),
(194,339,ls)
);
},
{
closed = 1;
nodes = (
(295,0,ls),
(323,0,o),
(341,21,o),
(341,46,cs),
(341,71,o),
(317,91,o),
(289,91,cs),
(148,91,l),
(111,0,l)
);
}
);
width = 405;
}
);
metricLeft = L;
metricRight = L;
},
{
glyphname = m.sc;
lastChange = "2022-03-08 22:52:02 +0000";
layers = (
{
layerId = m01;
shapes = (
{
closed = 1;
nodes = (
(143,379,ls),
(140,390,o),
(129,396,o),
(113,396,c),
(102,352,l),
(222,17,ls),
(226,6,o),
(233,0,o),
(247,0,c),
(260,51,l)
);
},
{
closed = 1;
nodes = (
(114,396,l),
(101,396,o),
(90,392,o),
(88,374,cs),
(51,29,ls),
(49,14,o),
(59,0,o),
(76,0,cs),
(94,0,o),
(100,13,o),
(101,25,cs),
(136,368,l)
);
},
{
closed = 1;
nodes = (
(435,0,o),
(441,12,o),
(442,23,cs),
(478,368,ls),
(480,386,o),
(471,396,o),
(456,396,c),
(426,345,l),
(392,29,ls),
(390,14,o),
(401,0,o),
(417,0,cs)
);
},
{
closed = 1;
nodes = (
(246,0,l),
(258,0,o),
(264,4,o),
(270,15,cs),
(464,339,l),
(457,396,l),
(449,396,o),
(437,393,o),
(432,385,cs),
(232,50,l)
);
}
);
width = 522;
},
{
layerId = m002;
shapes = (
{
closed = 1;
nodes = (
(199,362,ls),
(190,387,o),
(170,396,o),
(142,396,c),
(126,283,l),
(218,34,ls),
(226,11,o),
(243,0,o),
(276,0,c),
(303,77,l)
);
},
{
closed = 1;
nodes = (
(143,396,l),
(115,396,o),
(100,383,o),
(97,353,cs),
(65,51,ls),
(63,20,o),
(87,0,o),
(114,0,cs),
(142,0,o),
(162,18,o),
(164,41,cs),
(190,290,l)
);
},
{
closed = 1;
nodes = (
(465,0,o),
(480,16,o),
(482,39,cs),
(514,339,ls),
(519,377,o),
(498,396,o),
(468,396,c),
(409,278,l),
(384,49,ls),
(381,24,o),
(404,0,o),
(438,0,cs)
);
},
{
closed = 1;
nodes = (
(272,0,l),
(305,0,o),
(320,6,o),
(332,28,cs),
(469,262,l),
(469,396,l),
(442,396,o),
(427,387,o),
(415,367,cs),
(248,83,l)
);
}
);
width = 577;
}
);
metricLeft = M;
metricRight = M;
},
{
glyphname = n.sc;
lastChange = "2022-03-08 22:52:02 +0000";
layers = (
{
layerId = m01;
shapes = (
{
closed = 1;
nodes = (
(145,377,ls),
(142,384,o),
(134,396,o),
(114,396,c),
(111,327,l),
(234,17,ls),
(239,5,o),
(250,0,o),
(271,0,c),
(274,52,l)
);
},
{
closed = 1;
nodes = (
(115,396,l),
(95,396,o),
(89,384,o),
(88,374,cs),
(51,29,ls),
(49,13,o),
(60,0,o),
(77,0,cs),
(94,0,o),
(100,12,o),
(101,25,cs),
(133,325,l)
);
},
{
closed = 1;
nodes = (
(292,0,o),
(297,16,o),
(298,22,cs),
(334,368,ls),
(335,379,o),
(331,396,o),
(311,396,cs),
(292,396,o),
(285,381,o),
(284,368,cs),
(249,37,l),
(269,0,l)
);
}
);
width = 378;
},
{
layerId = m002;
shapes = (
{
closed = 1;
nodes = (
(198,365,ls),
(192,380,o),
(174,396,o),
(142,396,c),
(139,279,l),
(242,28,ls),
(249,10,o),
(271,0,o),
(297,0,c),
(291,140,l)
);
},
{
closed = 1;
nodes = (
(144,396,l),
(110,396,o),
(99,376,o),
(97,353,cs),
(65,51,ls),
(62,20,o),
(81,0,o),
(108,0,cs),
(136,0,o),
(162,18,o),
(164,41,cs),
(188,271,l)
);
},
{
closed = 1;
nodes = (
(330,0,o),
(338,19,o),
(340,39,cs),
(372,339,ls),
(375,369,o),
(354,396,o),
(323,396,cs),
(297,396,o),
(275,376,o),
(273,354,cs),
(251,138,l),
(295,0,l)
);
}
);
width = 435;
}
);
metricLeft = N;
metricRight = N;
},
{
glyphname = o.sc;
lastChange = "2022-03-09 00:19:28 +0000";
layers = (
{
layerId = m01;
shapes = (
{
closed = 1;
nodes = (
(260,0,o),
(311,155,o),
(322,265,cs),
(330,332,o),
(284,396,o),
(202,396,cs),
(88,396,o),
(67,269,o),
(67,175,cs),
(65,94,o),
(91,0,o),
(157,0,cs)
);
},
{
closed = 1;
nodes = (
(132,50,o),
(115,122,o),
(117,167,cs),
(121,252,o),
(128,346,o),
(202,346,cs),
(263,346,o),
(275,295,o),
(272,266,cs),
(263,175,o),
(219,50,o),
(157,50,cs)
);
}
);
width = 359;
},
{
layerId = m002;
shapes = (
{
closed = 1;
nodes = (
(295,0,o),
(356,149,o),
(365,251,cs),
(374,328,o),
(347,396,o),
(224,396,cs),
(120,396,o),
(83,267,o),
(82,178,cs),
(81,100,o),
(103,0,o),
(189,0,cs)
);
},
{
closed = 1;
nodes = (
(185,90,o),
(171,124,o),
(172,167,cs),
(172,211,o),
(177,305,o),
(239,305,cs),
(280,305,o),
(278,284,o),
(275,258,cs),
(267,184,o),
(221,90,o),
(199,90,cs)
);
}
);
width = 407;
}
);
metricLeft = O;
metricRight = O;
},
{
glyphname = p.sc;
lastChange = "2022-03-09 00:19:28 +0000";
layers = (
{
layerId = m01;
shapes = (
{
closed = 1;
nodes = (
(211,187,o),
(315,184,o),
(326,287,cs),
(334,368,o),
(233,396,o),
(114,396,c),
(118,350,l),
(225,350,o),
(281,331,o),
(276,294,cs),
(271,235,o),
(194,238,o),
(112,238,c),
(109,187,l)
);
},
{
closed = 1;
nodes = (
(139,387,o),
(132,396,o),
(114,396,cs),
(97,396,o),
(89,387,o),
(88,376,cs),
(51,31,ls),
(49,14,o),
(61,0,o),
(77,0,cs),
(95,0,o),
(100,14,o),
(101,25,cs),
(137,370,ls)
);
}
);
width = 310;
},
{
layerId = m002;
shapes = (
{
closed = 1;
nodes = (
(225,165,o),
(354,168,o),
(365,272,cs),
(375,370,o),
(266,396,o),
(145,396,c),
(152,305,l),
(248,309,o),
(271,303,o),
(268,283,cs),
(265,255,o),
(220,250,o),
(153,250,c),
(147,165,l)
);
},
{
closed = 1;
nodes = (
(198,379,o),
(172,396,o),
(145,396,cs),
(118,396,o),
(100,382,o),
(97,357,cs),
(65,54,ls),
(62,26,o),
(84,0,o),
(116,0,cs),
(143,0,o),
(161,17,o),
(163,41,cs),
(194,342,ls)
);
}
);
width = 355;
}
);
metricLeft = P;
metricRight = P;
},
{
glyphname = q.sc;
lastChange = "2022-03-09 00:19:28 +0000";
layers = (
{
layerId = m01;
shapes = (
{
closed = 1;
nodes = (
(187,116,o),
(171,115,o),
(161,103,cs),
(155,94,o),
(156,80,o),
(170,67,cs),
(250,-9,ls),
(263,-21,o),
(278,-23,o),
(288,-15,cs),
(298,-7,o),
(297,12,o),
(285,24,cs),
(201,103,ls)
);
},
{
closed = 1;
nodes = (
(260,0,o),
(311,155,o),
(322,265,cs),
(330,332,o),
(284,396,o),
(202,396,cs),
(88,396,o),
(67,269,o),
(67,175,cs),
(65,94,o),
(91,0,o),
(157,0,cs)
);
},
{
closed = 1;
nodes = (
(132,50,o),
(115,122,o),
(117,167,cs),
(121,252,o),
(128,346,o),
(202,346,cs),
(263,346,o),
(275,295,o),
(272,266,cs),
(263,175,o),
(219,50,o),
(157,50,cs)
);
}
);
width = 359;
},
{
layerId = m002;
shapes = (
{
closed = 1;
nodes = (
(235,148,o),
(212,153,o),
(197,133,cs),
(182,116,o),
(193,90,o),
(215,68,cs),
(284,1,ls),
(305,-20,o),
(326,-21,o),
(342,-5,cs),
(362,13,o),
(353,36,o),
(331,57,cs),
(259,127,l)
);
},
{
closed = 1;
nodes = (
(295,0,o),
(356,149,o),
(365,251,cs),
(374,328,o),
(347,396,o),
(224,396,cs),
(120,396,o),
(83,267,o),
(82,178,cs),
(81,100,o),
(103,0,o),
(189,0,cs)
);
},
{
closed = 1;
nodes = (
(185,90,o),
(171,124,o),
(172,167,cs),
(172,211,o),
(177,305,o),
(239,305,cs),
(280,305,o),
(278,284,o),
(275,258,cs),
(267,184,o),
(221,90,o),
(199,90,cs)
);
}
);
width = 420;
}
);
metricLeft = Q;
metricRight = Q;
},
{
glyphname = r.sc;
lastChange = "2022-03-09 00:19:28 +0000";
layers = (
{
layerId = m01;
shapes = (
{
closed = 1;
nodes = (
(207,186,o),
(315,182,o),
(326,285,cs),
(334,366,o),
(253,396,o),
(113,396,c),
(110,345,l),
(230,346,o),
(281,330,o),
(277,292,cs),
(270,232,o),
(190,238,o),
(112,238,c),
(109,187,l)
);
},
{
closed = 1;
nodes = (
(93,219,l),
(249,14,ls),
(257,4,o),
(265,0,o),
(273,0,cs),
(283,0,o),
(292,6,o),
(296,14,cs),
(299,19,o),
(299,30,o),
(292,39,cs),
(160,213,l)
);
},
{
closed = 1;
nodes = (
(138,387,o),
(130,396,o),
(113,396,cs),
(96,396,o),
(90,390,o),
(88,374,cs),
(51,32,ls),
(49,13,o),
(61,0,o),
(76,0,cs),
(94,0,o),
(100,13,o),
(101,27,cs),
(137,368,l)
);
}
);
width = 360;
},
{
layerId = m002;
shapes = (
{
closed = 1;
nodes = (
(194,150,o),
(351,146,o),
(364,269,cs),
(375,367,o),
(251,396,o),
(145,396,c),
(152,302,l),
(240,304,o),
(270,299,o),
(267,269,cs),
(264,242,o),
(182,238,o),
(154,238,c),
(157,150,l)
);
},
{
closed = 1;
nodes = (
(137,177,l),
(253,21,ls),
(264,6,o),
(281,0,o),
(296,0,cs),
(315,0,o),
(335,12,o),
(340,31,cs),
(343,45,o),
(340,58,o),
(331,70,cs),
(252,177,l)
);
},
{
closed = 1;
nodes = (
(199,373,o),
(176,396,o),
(145,396,cs),
(118,396,o),
(100,378,o),
(97,353,cs),
(65,54,ls),
(61,21,o),
(84,0,o),
(112,0,cs),
(139,0,o),
(161,20,o),
(164,47,cs),
(195,339,ls)
);
}
);
width = 405;
}
);
metricLeft = R;
metricRight = R;
},
{
glyphname = s.sc;
lastChange = "2022-03-09 00:19:28 +0000";
layers = (
{
layerId = m01;
shapes = (
{
closed = 1;
nodes = (
(120,47,o),
(103,60,o),
(100,73,cs),
(97,85,o),
(81,93,o),
(68,89,cs),
(54,86,o),
(51,72,o),
(54,60,cs),
(64,19,o),
(101,-4,o),
(144,-4,cs),
(230,-4,o),
(294,31,o),
(302,109,cs),
(308,166,o),
(254,205,o),
(210,233,cs),
(166,261,o),
(127,278,o),
(128,294,cs),
(131,322,o),
(180,345,o),
(222,345,cs),
(266,345,o),
(277,338,o),
(279,323,cs),
(281,310,o),
(300,303,o),
(313,307,cs),
(326,310,o),
(329,324,o),
(327,336,cs),
(315,380,o),
(282,396,o),
(218,396,cs),
(140,396,o),
(84,351,o),
(79,303,cs),
(74,258,o),
(118,231,o),
(168,202,cs),
(215,175,o),
(257,154,o),
(253,116,cs),
(248,70,o),
(208,47,o),
(141,47,cs)
);
}
);
width = 358;
},
{
layerId = m002;
shapes = (
{
closed = 1;
nodes = (
(173,87,o),
(161,94,o),
(154,107,cs),
(147,117,o),
(128,131,o),
(102,124,cs),
(78,119,o),
(66,97,o),
(73,72,cs),
(84,25,o),
(123,-4,o),
(168,-4,cs),
(253,-4,o),
(331,32,o),
(339,111,cs),
(347,186,o),
(278,218,o),
(255,234,cs),
(238,246,o),
(192,265,o),
(189,282,cs),
(188,291,o),
(215,305,o),
(233,305,cs),
(253,305,o),
(271,298,o),
(276,288,cs),
(282,274,o),
(306,260,o),
(332,268,cs),
(356,277,o),
(366,297,o),
(360,321,cs),
(346,372,o),
(304,396,o),
(246,396,cs),
(158,396,o),
(89,344,o),
(93,280,cs),
(97,230,o),
(141,202,o),
(173,183,cs),
(201,167,o),
(245,140,o),
(243,123,cs),
(242,101,o),
(223,87,o),
(197,87,cs)
);
}
);
width = 398;
}
);
metricLeft = S;
metricRight = S;
},
{
glyphname = t.sc;
lastChange = "2022-03-09 06:52:29 +0000";
layers = (
{
layerId = m01;
shapes = (
{
closed = 1;
nodes = (
(183,357,l),
(149,35,ls),
(146,11,o),
(157,0,o),
(174,0,cs),
(192,0,o),
(197,13,o),
(198,23,cs),
(233,357,l)
);
},
{
closed = 1;
nodes = (
(326,345,o),
(334,357,o),
(334,371,cs),
(334,383,o),
(324,396,o),
(307,396,cs),
(110,396,ls),
(93,396,o),
(87,384,o),
(87,371,cs),
(87,357,o),
(97,345,o),
(114,345,cs),
(311,345,ls)
);
}
);
width = 378;
},
{
layerId = m002;
shapes = (
{
closed = 1;
nodes = (
(178,330,l),
(147,50,ls),
(143,22,o),
(167,-1,o),
(197,-1,cs),
(223,-1,o),
(242,15,o),
(244,38,cs),
(275,321,l)
);
},
{
closed = 1;
nodes = (
(343,305,o),
(360,325,o),
(359,350,cs),
(357,376,o),
(335,396,o),
(306,396,cs),
(142,396,ls),
(114,396,o),
(95,376,o),
(97,350,cs),
(98,325,o),
(120,305,o),
(149,305,cs),
(313,305,ls)
);
}
);
width = 421;
}
);
metricLeft = T;
metricRight = T;
},
{
glyphname = u.sc;
lastChange = "2022-03-08 22:52:02 +0000";
layers = (
{
layerId = m01;
shapes = (
{
closed = 1;
nodes = (
(274,224,l),
(270,215,o),
(266,208,o),
(263,203,cs),
(231,144,o),
(156,46,o),
(118,46,cs),
(103,46,o),
(106,76,o),
(110,113,cs),
(138,370,ls),
(140,384,o),
(130,395,o),
(114,396,cs),
(100,396,o),
(90,387,o),
(88,373,cs),
(60,119,ls),
(51,37,o),
(75,-4,o),
(117,-4,cs),
(155,-4,o),
(212,39,o),
(262,106,c)
);
},
{
closed = 1;
nodes = (
(337,387,o),
(328,396,o),
(311,396,cs),
(296,396,o),
(286,389,o),
(285,376,cs),
(249,34,ls),
(246,10,o),
(258,0,o),
(275,0,cs),
(287,0,o),
(297,8,o),
(298,22,cs),
(335,371,ls)
);
}
);
width = 378;
},
{
layerId = m002;
shapes = (
{
closed = 1;
nodes = (
(275,222,l),
(273,218,o),
(271,215,o),
(269,212,cs),
(243,173,o),
(179,88,o),
(169,88,cs),
(159,88,o),
(162,108,o),
(165,137,cs),
(188,342,ls),
(192,376,o),
(175,396,o),
(147,396,cs),
(119,397,o),
(100,376,o),
(97,351,cs),
(73,130,ls),
(63,42,o),
(96,-4,o),
(140,-4,cs),
(182,-4,o),
(224,23,o),
(261,62,c)
);
},
{
closed = 1;
nodes = (
(376,376,o),
(357,396,o),
(325,396,cs),
(300,396,o),
(285,376,o),
(283,357,cs),
(251,51,ls),
(248,19,o),
(265,0,o),
(292,0,cs),
(318,0,o),
(339,16,o),
(341,38,cs),
(373,343,ls)
);
}
);
width = 435;
}
);
metricLeft = U;
metricRight = U;
},
{
glyphname = v.sc;
lastChange = "2022-03-09 07:05:00 +0000";
layers = (
{
layerId = m01;
shapes = (
{
closed = 1;
nodes = (
(132,0,o),
(138,8,o),
(144,20,cs),
(299,364,ls),
(307,383,o),
(295,396,o),
(278,396,cs),
(262,396,o),
(256,390,o),
(251,380,cs),
(107,60,l),
(118,0,l)
);
},
{
closed = 1;
nodes = (
(105,374,ls),
(104,387,o),
(93,396,o),
(76,396,cs),
(61,396,o),
(53,389,o),
(55,373,cs),
(91,27,ls),
(92,13,o),
(104,0,o),
(120,0,c),
(138,60,l)
);
}
);
width = 309;
},
{
layerId = m002;
shapes = (
{
closed = 1;
nodes = (
(154,0,o),
(173,8,o),
(183,29,cs),
(325,330,ls),
(343,367,o),
(317,396,o),
(283,396,cs),
(257,396,o),
(242,382,o),
(233,364,cs),
(108,101,l),
(135,0,l)
);
},
{
closed = 1;
nodes = (
(149,352,ls),
(146,379,o),
(123,396,o),
(97,396,cs),
(67,396,o),
(51,374,o),
(54,345,cs),
(85,43,ls),
(88,14,o),
(116,0,o),
(139,0,c),
(174,103,l)
);
}
);
width = 331;
}
);
metricLeft = V;
metricRight = V;
},
{
glyphname = w.sc;
lastChange = "2022-03-09 07:05:00 +0000";
layers = (
{
layerId = m01;
shapes = (
{
closed = 1;
nodes = (
(335,0,o),
(339,8,o),
(345,20,cs),
(500,364,ls),
(505,375,o),
(504,396,o),
(478,396,cs),
(464,396,o),
(457,390,o),
(452,380,cs),
(308,60,l),
(318,0,l)
);
},
{
closed = 1;
nodes = (
(105,375,ls),
(104,386,o),
(94,396,o),
(76,396,cs),
(61,396,o),
(53,386,o),
(55,372,cs),
(92,26,ls),
(94,10,o),
(105,0,o),
(122,0,c),
(139,57,l)
);
},
{
closed = 1;
nodes = (
(136,0,o),
(140,12,o),
(145,22,cs),
(285,332,l),
(276,396,l),
(263,396,o),
(255,387,o),
(251,379,cs),
(105,55,l),
(121,0,l)
);
},
{
closed = 1;
nodes = (
(306,375,ls),
(305,388,o),
(292,396,o),
(275,396,c),
(260,332,l),
(293,21,ls),
(294,14,o),
(304,0,o),
(320,0,c),
(339,63,l)
);
}
);
width = 509;
},
{
layerId = m002;
shapes = (
{
closed = 1;
nodes = (
(362,0,o),
(376,8,o),
(386,29,cs),
(521,330,ls),
(534,361,o),
(514,396,o),
(476,396,cs),
(450,396,o),
(441,385,o),
(429,361,cs),
(321,125,l),
(343,0,l)
);
},
{
closed = 1;
nodes = (
(149,352,ls),
(146,376,o),
(125,396,o),
(96,396,cs),
(69,396,o),
(50,374,o),
(54,345,cs),
(100,43,ls),
(105,12,o),
(128,0,o),
(155,0,c),
(186,121,l)
);
},
{
closed = 1;
nodes = (
(178,0,o),
(188,10,o),
(197,29,cs),
(307,268,l),
(289,396,l),
(255,396,o),
(248,381,o),
(241,365,cs),
(131,121,l),
(151,0,l)
);
},
{
closed = 1;
nodes = (
(338,352,ls),
(334,380,o),
(319,396,o),
(287,396,c),
(255,267,l),
(289,36,ls),
(293,12,o),
(321,0,o),
(346,0,c),
(373,125,l)
);
}
);
width = 526;
}
);
metricLeft = W;
metricRight = W;
},
{
glyphname = x.sc;
lastChange = "2022-03-09 00:19:28 +0000";
layers = (
{
layerId = m01;
shapes = (
{
closed = 1;
nodes = (
(338,368,o),
(335,384,o),
(325,392,cs),
(314,400,o),
(297,399,o),
(288,385,cs),
(55,40,ls),
(48,30,o),
(49,16,o),
(60,6,cs),
(71,-3,o),
(89,-3,o),
(98,10,cs),
(329,355,ls)
);
},
{
closed = 1;
nodes = (
(130,397,o),
(114,399,o),
(102,395,cs),
(90,391,o),
(86,377,o),
(93,361,cs),
(250,17,ls),
(257,2,o),
(275,-5,o),
(289,3,cs),
(300,9,o),
(301,24,o),
(295,36,cs),
(137,381,ls)
);
}
);
width = 347;
},
{
layerId = m002;
shapes = (
{
closed = 1;
nodes = (
(376,338,o),
(375,366,o),
(355,384,cs),
(335,403,o),
(296,398,o),
(280,375,cs),
(76,72,ls),
(62,52,o),
(64,31,o),
(83,13,cs),
(102,-4,o),
(143,-7,o),
(159,16,cs),
(363,319,ls)
);
},
{
closed = 1;
nodes = (
(179,389,o),
(150,401,o),
(125,393,cs),
(99,383,o),
(89,357,o),
(103,328,cs),
(247,27,ls),
(260,0,o),
(295,-6,o),
(318,5,cs),
(339,17,o),
(346,39,o),
(335,63,cs),
(190,366,ls)
);
}
);
width = 394;
}
);
metricLeft = X;
metricRight = X;
},
{
glyphname = y.sc;
lastChange = "2022-03-09 07:05:00 +0000";
layers = (
{
layerId = m01;
shapes = (
{
closed = 1;
nodes = (
(211,230,l),
(138,377,ls),
(132,390,o),
(115,401,o),
(99,394,cs),
(85,387,o),
(85,372,o),
(91,359,cs),
(177,187,l)
);
},
{
closed = 1;
nodes = (
(338,366,o),
(335,383,o),
(325,391,cs),
(315,398,o),
(299,398,o),
(288,382,cs),
(60,39,ls),
(52,28,o),
(53,14,o),
(65,6,cs),
(75,-3,o),
(92,-3,o),
(101,10,cs),
(329,353,ls)
);
}
);
width = 347;
},
{
layerId = m002;
shapes = (
{
closed = 1;
nodes = (
(254,251,l),
(190,368,ls),
(171,401,o),
(139,401,o),
(124,393,cs),
(95,383,o),
(92,354,o),
(105,333,cs),
(190,177,l)
);
},
{
closed = 1;
nodes = (
(412,345,o),
(404,368,o),
(385,385,cs),
(365,402,o),
(332,401,o),
(315,378,cs),
(81,72,ls),
(65,52,o),
(69,31,o),
(88,13,cs),
(107,-4,o),
(143,-7,o),
(162,17,cs),
(394,323,ls)
);
}
);
width = 419;
}
);
metricLeft = Y;
metricRight = Y;
},
{
glyphname = z.sc;
lastChange = "2022-03-08 22:52:02 +0000";
layers = (
{
layerId = m01;
shapes = (
{
closed = 1;
nodes = (
(333,362,o),
(335,375,o),
(329,384,cs),
(325,391,o),
(315,396,o),
(304,396,cs),
(297,396,o),
(291,391,o),
(287,385,cs),
(56,41,ls),
(51,34,o),
(47,22,o),
(53,13,cs),
(58,5,o),
(67,0,o),
(81,0,cs),
(86,0,o),
(92,5,o),
(99,15,cs),
(327,354,ls)
);
},
{
closed = 1;
nodes = (
(274,0,ls),
(291,0,o),
(298,13,o),
(297,25,cs),
(296,39,o),
(285,50,o),
(270,50,cs),
(114,50,l),
(80,0,l)
);
},
{
closed = 1;
nodes = (
(306,396,l),
(111,396,ls),
(94,396,o),
(87,384,o),
(88,371,cs),
(89,357,o),
(98,346,o),
(115,346,cs),
(270,346,l)
);
}
);
width = 377;
},
{
layerId = m002;
shapes = (
{
closed = 1;
nodes = (
(398,335,o),
(399,355,o),
(389,371,cs),
(380,386,o),
(362,396,o),
(341,396,cs),
(328,396,o),
(314,388,o),
(305,376,cs),
(74,73,ls),
(64,59,o),
(61,41,o),
(70,24,cs),
(78,10,o),
(97,0,o),
(120,0,cs),
(135,0,o),
(149,9,o),
(156,17,cs),
(385,319,ls)
);
},
{
closed = 1;
nodes = (
(316,0,ls),
(345,0,o),
(364,19,o),
(362,44,cs),
(360,70,o),
(338,91,o),
(310,91,cs),
(188,91,l),
(119,0,l)
);
},
{
closed = 1;
nodes = (
(345,396,l),
(143,396,ls),
(115,396,o),
(96,376,o),
(98,350,cs),
(99,325,o),
(121,305,o),
(150,305,cs),
(274,305,l)
);
}
);
width = 458;
}
);
metricLeft = Z;
metricRight = Z;
},
{
glyphname = zero;
lastChange = "2022-03-05 20:14:30 +0000";
layers = (
{
layerId = m01;
shapes = (
{
closed = 1;
nodes = (
(285,-3,o),
(438,228,o),
(426,402,cs),
(421,477,o),
(385,568,o),
(279,568,cs),
(90,568,o),
(33,280,o),
(42,160,cs),
(47,81,o),
(87,-4,o),
(162,-4,cs)
);
},
{
closed = 1;
nodes = (
(127,47,o),
(99,84,o),
(94,155,cs),
(85,279,o),
(148,517,o),
(285,517,cs),
(350,517,o),
(370,463,o),
(374,405,cs),
(387,212,o),
(223,47,o),
(158,47,cs)
);
}
);
width = 445;
},
{
layerId = m002;
shapes = (
{
closed = 1;
nodes = (
(328,-3,o),
(477,223,o),
(465,395,cs),
(460,471,o),
(421,568,o),
(301,568,cs),
(101,568,o),
(46,290,o),
(54,172,cs),
(60,91,o),
(103,-4,o),
(193,-4,cs)
);
},
{
closed = 1;
nodes = (
(171,88,o),
(158,107,o),
(153,168,cs),
(145,281,o),
(200,476,o),
(310,476,cs),
(352,476,o),
(363,449,o),
(366,398,cs),
(378,225,o),
(237,88,o),
(187,88,cs)
);
}
);
width = 495;
}
);
unicode = 48;
},
{
glyphname = one;
lastChange = "2022-03-04 18:35:51 +0000";
layers = (
{
layerId = m01;
shapes = (
{
closed = 1;
nodes = (
(277,560,o),
(265,568,o),
(252,568,cs),
(239,568,o),
(226,561,o),
(224,543,cs),
(169,28,ls),
(167,9,o),
(180,0,o),
(193,0,cs),
(205,0,o),
(218,6,o),
(219,23,cs),
(275,543,ls)
);
}
);
width = 445;
},
{
layerId = m002;
shapes = (
{
closed = 1;
nodes = (
(327,548,o),
(301,568,o),
(274,568,cs),
(251,568,o),
(226,554,o),
(223,526,cs),
(172,51,ls),
(169,18,o),
(196,0,o),
(223,0,cs),
(245,0,o),
(269,12,o),
(272,39,cs),
(324,518,ls)
);
}
);
width = 495;
}
);
unicode = 49;
},
{
glyphname = two;
lastChange = "2022-03-04 18:35:51 +0000";
layers = (
{
layerId = m01;
shapes = (
{
closed = 1;
nodes = (
(126,49,l),
(178,115,o),
(296,263,o),
(308,278,cs),
(422,431,o),
(428,501,o),
(346,549,cs),
(274,591,o),
(157,558,o),
(98,505,cs),
(75,485,o),
(80,472,o),
(89,463,cs),
(97,454,o),
(113,451,o),
(137,471,cs),
(186,513,o),
(281,531,o),
(326,505,cs),
(378,475,o),
(331,393,o),
(283,332,cs),
(259,301,o),
(164,185,o),
(40,35,cs),
(24,16,o),
(36,0,o),
(58,0,c),
(79,0,l)
);
},
{
closed = 1;
nodes = (
(330,0,ls),
(350,0,o),
(355,13,o),
(354,25,cs),
(353,37,o),
(347,50,o),
(327,50,cs),
(72,50,l),
(75,0,l)
);
}
);
width = 445;
},
{
layerId = m002;
shapes = (
{
closed = 1;
nodes = (
(179,49,l),
(229,112,o),
(339,251,o),
(350,264,cs),
(464,417,o),
(473,491,o),
(378,547,cs),
(300,593,o),
(174,558,o),
(114,504,cs),
(82,476,o),
(89,454,o),
(108,434,cs),
(121,421,o),
(151,413,o),
(187,443,cs),
(230,479,o),
(302,493,o),
(335,473,cs),
(363,457,o),
(330,398,o),
(287,343,cs),
(263,313,o),
(174,205,o),
(58,65,cs),
(30,29,o),
(57,0,o),
(97,0,cs),
(140,0,l)
);
},
{
closed = 1;
nodes = (
(352,0,ls),
(382,0,o),
(401,14,o),
(399,41,cs),
(397,65,o),
(378,86,o),
(346,86,cs),
(90,86,l),
(96,0,l)
);
}
);
width = 495;
}
);
unicode = 50;
},
{
glyphname = three;
lastChange = "2022-03-04 18:35:51 +0000";
layers = (
{
layerId = m01;
shapes = (
{
closed = 1;
nodes = (
(172,296,o),
(210,305,o),
(238,305,cs),
(297,305,o),
(318,266,o),
(321,225,cs),
(328,125,o),
(216,47,o),
(128,47,cs),
(104,47,o),
(81,53,o),
(63,66,cs),
(38,84,o),
(25,72,o),
(20,65,cs),
(16,58,o),
(12,45,o),
(38,25,cs),
(64,5,o),
(96,-4,o),
(130,-4,cs),
(244,-4,o),
(380,98,o),
(371,226,cs),
(366,303,o),
(311,354,o),
(228,354,cs),
(192,354,o),
(151,345,o),
(106,324,c),
(126,275,l)
);
},
{
closed = 1;
nodes = (
(241,355,o),
(353,437,o),
(349,499,cs),
(346,542,o),
(305,568,o),
(246,568,cs),
(198,568,o),
(137,551,o),
(80,511,cs),
(56,495,o),
(63,478,o),
(68,470,cs),
(75,460,o),
(91,455,o),
(104,464,cs),
(162,505,o),
(218,522,o),
(255,522,cs),
(282,522,o),
(298,513,o),
(299,499,cs),
(301,466,o),
(173,368,o),
(93,316,cs),
(77,305,o),
(81,288,o),
(85,280,cs),
(91,270,o),
(110,263,o),
(124,273,cs)
);
}
);
width = 445;
},
{
layerId = m002;
shapes = (
{
closed = 1;
nodes = (
(214,279,o),
(233,282,o),
(261,282,cs),
(300,282,o),
(318,262,o),
(314,228,cs),
(305,145,o),
(219,86,o),
(144,86,cs),
(126,86,o),
(113,90,o),
(99,100,cs),
(66,124,o),
(32,113,o),
(22,93,cs),
(13,76,o),
(12,54,o),
(47,28,cs),
(75,7,o),
(112,-4,o),
(149,-4,cs),
(269,-4,o),
(397,96,o),
(411,229,cs),
(420,313,o),
(357,379,o),
(265,379,cs),
(222,379,o),
(172,366,o),
(121,339,c),
(160,250,l)
);
},
{
closed = 1;
nodes = (
(277,334,o),
(382,410,o),
(390,481,cs),
(397,535,o),
(334,568,o),
(266,568,cs),
(212,568,o),
(153,550,o),
(95,510,cs),
(64,489,o),
(67,463,o),
(80,445,cs),
(93,423,o),
(122,424,o),
(144,439,cs),
(197,476,o),
(246,488,o),
(277,488,cs),
(284,488,o),
(294,487,o),
(293,481,cs),
(291,465,o),
(183,381,o),
(110,333,cs),
(84,316,o),
(85,290,o),
(96,270,cs),
(109,249,o),
(143,237,o),
(169,256,cs)
);
}
);
width = 495;
}
);
unicode = 51;
},
{
glyphname = four;
lastChange = "2022-03-04 18:35:51 +0000";
layers = (
{
layerId = m01;
shapes = (
{
closed = 1;
nodes = (
(150,558,o),
(137,568,o),
(125,568,cs),
(113,568,o),
(100,562,o),
(98,544,cs),
(56,159,ls),
(55,147,o),
(65,135,o),
(83,135,cs),
(100,135,o),
(106,148,o),
(107,160,cs),
(148,540,ls)
);
},
{
closed = 1;
nodes = (
(280,299,o),
(268,309,o),
(256,311,cs),
(243,313,o),
(230,306,o),
(228,289,cs),
(199,31,ls),
(196,11,o),
(208,1,o),
(221,0,cs),
(233,-1,o),
(247,6,o),
(249,26,cs),
(278,282,ls)
);
},
{
closed = 1;
nodes = (
(383,135,ls),
(399,135,o),
(408,146,o),
(407,158,cs),
(406,170,o),
(395,180,o),
(379,180,cs),
(80,180,l),
(84,135,l)
);
}
);
width = 445;
},
{
layerId = m002;
shapes = (
{
closed = 1;
nodes = (
(209,551,o),
(182,568,o),
(156,568,cs),
(133,568,o),
(108,555,o),
(105,527,cs),
(67,170,ls),
(65,145,o),
(87,122,o),
(119,122,cs),
(145,122,o),
(165,140,o),
(168,164,cs),
(206,519,ls)
);
},
{
closed = 1;
nodes = (
(320,308,o),
(308,326,o),
(284,331,cs),
(260,335,o),
(241,320,o),
(238,292,cs),
(212,59,ls),
(208,26,o),
(220,0,o),
(246,0,cs),
(274,0,o),
(289,16,o),
(292,44,cs),
(317,279,ls)
);
},
{
closed = 1;
nodes = (
(401,122,ls),
(429,122,o),
(449,143,o),
(447,168,cs),
(446,192,o),
(423,212,o),
(395,212,cs),
(112,212,l),
(118,122,l)
);
}
);
width = 495;
}
);
unicode = 52;
},
{
glyphname = five;
lastChange = "2022-03-04 18:35:51 +0000";
layers = (
{
layerId = m01;
shapes = (
{
closed = 1;
nodes = (
(139,299,o),
(167,304,o),
(192,304,cs),
(271,304,o),
(308,252,o),
(311,211,cs),
(316,149,o),
(247,47,o),
(150,47,cs),
(125,47,o),
(102,54,o),
(87,67,cs),
(80,74,o),
(73,76,o),
(66,76,cs),
(53,76,o),
(42,67,o),
(43,54,cs),
(44,46,o),
(48,37,o),
(58,28,cs),
(80,8,o),
(114,-3,o),
(153,-3,cs),
(284,-3,o),
(367,125,o),
(361,212,cs),
(356,287,o),
(287,354,o),
(185,354,cs),
(157,354,o),
(130,349,o),
(95,337,c),
(103,288,l)
);
},
{
closed = 1;
nodes = (
(126,568,l),
(116,568,o),
(108,566,o),
(104,562,cs),
(99,558,o),
(95,551,o),
(94,541,cs),
(69,310,ls),
(67,295,o),
(81,286,o),
(94,286,cs),
(106,286,o),
(118,294,o),
(120,310,cs),
(145,541,l)
);
},
{
closed = 1;
nodes = (
(372,523,ls),
(392,523,o),
(398,533,o),
(397,545,cs),
(396,557,o),
(389,568,o),
(369,568,cs),
(125,568,l),
(128,523,l)
);
}
);
width = 445;
},
{
layerId = m002;
shapes = (
{
closed = 1;
nodes = (
(196,281,o),
(200,281,o),
(227,281,cs),
(287,281,o),
(308,248,o),
(310,215,cs),
(314,164,o),
(262,83,o),
(184,83,cs),
(166,83,o),
(151,86,o),
(140,93,cs),
(128,101,o),
(118,110,o),
(105,110,cs),
(80,110,o),
(58,97,o),
(60,72,cs),
(61,58,o),
(68,45,o),
(83,31,cs),
(108,8,o),
(148,-3,o),
(189,-3,cs),
(329,-3,o),
(416,125,o),
(410,216,cs),
(404,298,o),
(329,372,o),
(218,372,cs),
(184,372,o),
(148,364,o),
(108,348,c),
(145,265,l)
);
},
{
closed = 1;
nodes = (
(179,571,l),
(157,571,o),
(136,571,o),
(126,562,cs),
(116,554,o),
(111,543,o),
(109,528,cs),
(85,312,ls),
(81,281,o),
(112,264,o),
(136,264,cs),
(158,264,o),
(184,281,o),
(187,304,cs),
(210,529,l)
);
},
{
closed = 1;
nodes = (
(399,487,ls),
(431,487,o),
(447,505,o),
(445,529,cs),
(443,556,o),
(423,571,o),
(393,571,cs),
(177,571,l),
(168,487,l)
);
}
);
width = 495;
}
);
unicode = 53;
},
{
glyphname = six;
lastChange = "2022-03-04 18:35:51 +0000";
layers = (
{
layerId = m01;
shapes = (
{
closed = 1;
nodes = (
(111,209,o),
(140,288,o),
(203,387,cs),
(227,425,o),
(270,471,o),
(341,523,cs),
(352,530,o),
(355,540,o),
(355,548,cs),
(353,559,o),
(344,568,o),
(331,568,cs),
(325,568,o),
(318,566,o),
(311,562,cs),
(266,535,o),
(188,460,o),
(157,412,cs),
(96,316,o),
(62,213,o),
(69,113,c),
(118,113,l)
);
},
{
closed = 1;
nodes = (
(73,53,o),
(125,0,o),
(193,0,cs),
(295,0,o),
(393,149,o),
(385,257,cs),
(381,321,o),
(340,353,o),
(268,353,cs),
(181,353,o),
(124,306,o),
(93,244,c),
(69,114,l)
);
},
{
closed = 1;
nodes = (
(155,50,o),
(122,78,o),
(118,135,cs),
(112,215,o),
(167,303,o),
(270,303,cs),
(311,303,o),
(333,289,o),
(335,251,cs),
(341,173,o),
(258,50,o),
(188,50,cs)
);
}
);
width = 445;
},
{
layerId = m002;
shapes = (
{
closed = 1;
nodes = (
(162,195,o),
(206,274,o),
(267,371,cs),
(291,407,o),
(329,447,o),
(392,494,cs),
(409,506,o),
(416,521,o),
(414,537,cs),
(412,559,o),
(391,576,o),
(366,576,cs),
(356,576,o),
(345,573,o),
(334,568,c),
(288,540,o),
(212,467,o),
(183,421,cs),
(118,319,o),
(89,279,o),
(87,118,c),
(182,114,l)
);
},
{
closed = 1;
nodes = (
(79,84,o),
(142,-1,o),
(223,-1,cs),
(330,-1,o),
(422,143,o),
(415,247,cs),
(410,316,o),
(362,354,o),
(286,354,cs),
(195,354,o),
(121,308,o),
(109,243,cs),
(87,126,ls)
);
},
{
closed = 1;
nodes = (
(197,87,o),
(183,99,o),
(180,140,cs),
(176,204,o),
(213,266,o),
(290,266,cs),
(313,266,o),
(320,260,o),
(321,242,cs),
(325,180,o),
(263,87,o),
(215,87,cs)
);
}
);
width = 495;
}
);
unicode = 54;
},
{
glyphname = seven;
lastChange = "2022-03-04 18:35:51 +0000";
layers = (
{
layerId = m01;
shapes = (
{
closed = 1;
nodes = (
(353,556,o),
(346,568,o),
(326,568,cs),
(315,568,o),
(304,560,o),
(303,549,cs),
(246,26,ls),
(244,8,o),
(256,0,o),
(269,0,cs),
(281,0,o),
(294,8,o),
(296,26,cs),
(352,544,ls)
);
},
{
closed = 1;
nodes = (
(327,568,l),
(80,568,ls),
(62,568,o),
(54,557,o),
(55,546,cs),
(56,534,o),
(65,523,o),
(83,523,cs),
(330,523,l)
);
}
);
width = 445;
},
{
layerId = m002;
shapes = (
{
closed = 1;
nodes = (
(395,551,o),
(385,568,o),
(342,568,cs),
(320,568,o),
(298,558,o),
(295,537,cs),
(244,50,ls),
(241,20,o),
(264,0,o),
(291,0,cs),
(314,0,o),
(338,15,o),
(341,42,cs),
(392,524,ls)
);
},
{
closed = 1;
nodes = (
(343,568,l),
(110,568,ls),
(80,568,o),
(61,551,o),
(63,527,cs),
(65,503,o),
(86,488,o),
(116,488,cs),
(349,488,l)
);
}
);
width = 495;
}
);
unicode = 55;
},
{
glyphname = eight;
lastChange = "2022-03-04 18:35:51 +0000";
layers = (
{
layerId = m01;
shapes = (
{
closed = 1;
nodes = (
(161,325,l),
(76,259,o),
(56,185,o),
(60,132,cs),
(64,74,o),
(98,-4,o),
(195,-4,cs),
(299,-4,o),
(349,84,o),
(345,149,cs),
(340,208,o),
(290,266,o),
(244,307,cs),
(228,321,l)
);
},
{
closed = 1;
nodes = (
(246,238,o),
(291,190,o),
(294,149,cs),
(297,105,o),
(255,45,o),
(198,45,cs),
(148,45,o),
(112,90,o),
(108,139,cs),
(106,178,o),
(123,231,o),
(196,285,c),
(209,273,ls)
);
},
{
closed = 1;
nodes = (
(307,368,o),
(384,431,o),
(380,488,cs),
(376,542,o),
(300,568,o),
(241,568,cs),
(168,568,o),
(84,529,o),
(90,442,cs),
(94,386,o),
(134,350,o),
(161,323,c),
(203,349,l),
(178,371,o),
(144,405,o),
(141,447,cs),
(137,504,o),
(194,518,o),
(235,518,cs),
(271,518,o),
(332,507,o),
(333,488,cs),
(335,462,o),
(232,369,o),
(160,322,c),
(230,312,l)
);
}
);
width = 445;
},
{
layerId = m002;
shapes = (
{
closed = 1;
nodes = (
(181,344,l),
(88,275,o),
(65,197,o),
(69,141,cs),
(73,80,o),
(113,-4,o),
(224,-4,cs),
(339,-4,o),
(393,87,o),
(388,157,cs),
(384,219,o),
(333,280,o),
(286,321,cs),
(262,341,l)
);
},
{
closed = 1;
nodes = (
(242,236,o),
(288,191,o),
(291,148,cs),
(293,114,o),
(264,81,o),
(223,81,cs),
(190,81,o),
(168,108,o),
(166,148,cs),
(164,177,o),
(174,213,o),
(223,254,c),
(229,249,ls)
);
},
{
closed = 1;
nodes = (
(342,343,o),
(427,405,o),
(422,472,cs),
(417,539,o),
(327,569,o),
(265,569,cs),
(188,569,o),
(92,526,o),
(99,428,cs),
(104,355,o),
(165,312,o),
(188,292,c),
(268,341,l),
(248,362,o),
(200,390,o),
(197,433,cs),
(194,470,o),
(220,488,o),
(255,488,cs),
(287,488,o),
(326,486,o),
(327,471,cs),
(328,456,o),
(251,391,o),
(194,355,c),
(264,287,l)
);
}
);
width = 495;
}
);
unicode = 56;
},
{
glyphname = nine;
lastChange = "2022-03-05 20:03:06 +0000";
layers = (
{
layerId = m01;
shapes = (
{
closed = 1;
nodes = (
(389,558,o),
(382,568,o),
(370,568,c),
(339,568,l),
(282,24,ls),
(280,8,o),
(293,0,o),
(305,0,cs),
(318,0,o),
(330,8,o),
(332,24,cs),
(388,546,ls)
);
},
{
closed = 1;
nodes = (
(337,470,l),
(329,470,l),
(320,381,o),
(235,264,o),
(198,264,cs),
(170,264,o),
(161,295,o),
(162,323,cs),
(164,399,o),
(192,518,o),
(266,518,cs),
(342,518,l),
(347,568,l),
(266,568,ls),
(153,568,o),
(113,425,o),
(112,313,cs),
(112,238,o),
(157,214,o),
(198,214,cs),
(242,214,o),
(288,259,o),
(322,315,c)
);
}
);
width = 445;
},
{
layerId = m002;
shapes = (
{
closed = 1;
nodes = (
(431,555,o),
(415,568,o),
(382,568,cs),
(330,568,l),
(275,43,ls),
(272,11,o),
(301,-5,o),
(323,-5,cs),
(346,-5,o),
(372,10,o),
(375,36,cs),
(428,529,ls)
);
},
{
closed = 1;
nodes = (
(334,456,l),
(325,456,l),
(320,402,o),
(259,301,o),
(231,301,cs),
(217,301,o),
(208,317,o),
(210,336,cs),
(215,382,o),
(225,482,o),
(284,482,c),
(335,482,l),
(344,568,l),
(291,568,l),
(161,568,o),
(133,451,o),
(121,338,cs),
(110,242,o),
(172,214,o),
(221,214,cs),
(255,214,o),
(287,229,o),
(314,253,c)
);
}
);
width = 495;
}
);
unicode = 57;
},
{
glyphname = zero.c2sc;
lastChange = "2022-03-05 20:14:59 +0000";
layers = (
{
layerId = m01;
shapes = (
{
closed = 1;
nodes = (
(211,0,o),
(314,157,o),
(306,276,cs),
(302,328,o),
(277,396,o),
(199,396,cs),
(67,396,o),
(29,196,o),
(35,115,cs),
(39,61,o),
(66,-1,o),
(123,-1,cs)
);
},
{
closed = 1;
nodes = (
(104,47,o),
(88,67,o),
(85,111,cs),
(80,193,o),
(120,348,o),
(205,348,cs),
(242,348,o),
(253,315,o),
(256,278,cs),
(264,152,o),
(160,47,o),
(120,47,cs)
);
}
);
width = 336;
},
{
layerId = m002;
shapes = (
{
closed = 1;
nodes = (
(248,0,o),
(345,152,o),
(337,267,cs),
(334,319,o),
(305,396,o),
(216,396,cs),
(78,396,o),
(43,201,o),
(48,125,cs),
(52,71,o),
(82,-1,o),
(152,-1,cs)
);
},
{
closed = 1;
nodes = (
(143,87,o),
(139,94,o),
(138,121,cs),
(133,191,o),
(163,308,o),
(224,308,cs),
(238,308,o),
(244,296,o),
(246,269,cs),
(253,166,o),
(172,87,o),
(151,87,c)
);
}
);
width = 379;
}
);
metricLeft = zero;
metricRight = zero;
},
{
glyphname = one.c2sc;
lastChange = "2022-03-04 20:08:11 +0000";
layers = (
{
layerId = m01;
shapes = (
{
closed = 1;
nodes = (
(258,387,o),
(244,396,o),
(232,396,cs),
(220,396,o),
(207,389,o),
(205,373,cs),
(168,26,ls),
(166,8,o),
(180,0,o),
(193,0,cs),
(203,0,o),
(217,5,o),
(219,21,cs),
(256,371,ls)
);
}
);
width = 444;
},
{
layerId = m002;
shapes = (
{
closed = 1;
nodes = (
(303,387,o),
(271,396,o),
(255,396,cs),
(239,396,o),
(208,389,o),
(204,355,cs),
(171,43,ls),
(167,8,o),
(199,0,o),
(216,0,cs),
(230,0,o),
(262,5,o),
(265,38,cs),
(299,353,ls)
);
}
);
width = 487;
}
);
metricLeft = one;
metricRight = one;
},
{
glyphname = two.c2sc;
lastChange = "2022-03-04 20:08:11 +0000";
layers = (
{
layerId = m01;
shapes = (
{
closed = 1;
nodes = (
(110,34,l),
(144,79,o),
(224,179,o),
(233,190,cs),
(313,295,o),
(318,347,o),
(256,382,cs),
(204,413,o),
(120,389,o),
(79,352,cs),
(61,335,o),
(64,323,o),
(73,313,cs),
(81,305,o),
(98,302,o),
(117,319,cs),
(149,347,o),
(207,358,o),
(235,341,cs),
(263,325,o),
(235,275,o),
(204,234,cs),
(188,213,o),
(123,135,o),
(40,34,cs),
(24,15,o),
(38,0,o),
(59,0,cs),
(76,0,l)
);
},
{
closed = 1;
nodes = (
(242,0,ls),
(262,0,o),
(267,14,o),
(266,24,cs),
(266,34,o),
(259,48,o),
(239,48,cs),
(68,48,l),
(71,0,l)
);
}
);
width = 357;
},
{
layerId = m002;
shapes = (
{
closed = 1;
nodes = (
(160,38,l),
(191,78,o),
(262,167,o),
(269,176,cs),
(347,278,o),
(353,339,o),
(281,381,cs),
(224,414,o),
(137,389,o),
(95,351,cs),
(69,327,o),
(72,305,o),
(89,285,cs),
(104,269,o),
(139,264,o),
(164,288,cs),
(188,309,o),
(223,315,o),
(234,308,cs),
(243,303,o),
(228,279,o),
(203,244,cs),
(188,225,o),
(131,157,o),
(58,68,cs),
(32,35,o),
(58,0,o),
(97,0,cs),
(122,0,l)
);
},
{
closed = 1;
nodes = (
(259,0,ls),
(289,0,o),
(305,22,o),
(304,44,cs),
(302,66,o),
(283,88,o),
(253,88,cs),
(107,88,l),
(113,0,l)
);
}
);
width = 399;
}
);
metricLeft = two;
metricRight = two;
},
{
glyphname = three.c2sc;
lastChange = "2022-03-05 19:40:00 +0000";
layers = (
{
layerId = m01;
shapes = (
{
closed = 1;
nodes = (
(127,196,o),
(152,203,o),
(171,203,cs),
(206,203,o),
(217,183,o),
(219,157,cs),
(223,93,o),
(154,45,o),
(97,45,cs),
(82,45,o),
(71,48,o),
(59,57,cs),
(38,71,o),
(23,59,o),
(20,54,cs),
(15,47,o),
(10,36,o),
(34,18,cs),
(52,4,o),
(76,-3,o),
(100,-3,cs),
(180,-3,o),
(275,68,o),
(269,157,cs),
(265,213,o),
(226,250,o),
(165,250,cs),
(138,250,o),
(106,243,o),
(74,226,c),
(92,180,l)
);
},
{
closed = 1;
nodes = (
(179,239,o),
(257,297,o),
(254,342,cs),
(252,375,o),
(217,396,o),
(175,396,cs),
(142,396,o),
(99,383,o),
(61,357,cs),
(42,344,o),
(46,328,o),
(52,321,c),
(56,311,o),
(74,304,o),
(86,313,cs),
(125,341,o),
(159,351,o),
(182,351,cs),
(198,351,o),
(204,348,o),
(204,342,cs),
(205,324,o),
(123,258,o),
(69,223,cs),
(55,213,o),
(59,198,o),
(62,191,cs),
(66,182,o),
(86,173,o),
(100,183,cs)
);
}
);
width = 350;
},
{
layerId = m002;
shapes = (
{
closed = 1;
nodes = (
(141,174,o),
(160,181,o),
(175,181,cs),
(188,181,o),
(195,176,o),
(196,159,cs),
(199,119,o),
(154,86,o),
(118,86,cs),
(102,86,o),
(97,90,o),
(89,95,cs),
(64,112,o),
(32,99,o),
(23,84,cs),
(12,66,o),
(9,43,o),
(40,19,cs),
(60,4,o),
(89,-4,o),
(117,-4,cs),
(200,-4,o),
(296,71,o),
(290,163,cs),
(285,225,o),
(240,264,o),
(172,264,cs),
(140,264,o),
(105,253,o),
(75,239,c),
(134,169,l)
);
},
{
closed = 1;
nodes = (
(203,218,o),
(281,271,o),
(277,325,cs),
(275,364,o),
(236,396,o),
(180,396,cs),
(146,396,o),
(102,382,o),
(66,357,cs),
(39,339,o),
(40,314,o),
(50,296,cs),
(62,274,o),
(92,269,o),
(113,285,cs),
(145,308,o),
(169,322,o),
(181,325,cs),
(188,327,o),
(190,325,o),
(186,318,cs),
(180,307,o),
(124,265,o),
(74,239,cs),
(53,228,o),
(51,204,o),
(59,186,cs),
(69,164,o),
(108,150,o),
(132,168,cs)
);
}
);
width = 383;
},
{
associatedMasterId = m01;
attr = {
axisRules = (
{
max = 800;
min = 600;
}
);
};
layerId = "35E1D01B-5AD9-4CD1-B5CB-DB0E6C87546B";
name = "28 Feb 22, 07:47";
shapes = (
{
closed = 1;
nodes = (
(138,196,o),
(163,203,o),
(182,203,cs),
(217,203,o),
(227,183,o),
(227,157,cs),
(227,93,o),
(154,45,o),
(97,45,cs),
(82,45,o),
(71,48,o),
(60,57,cs),
(40,71,o),
(24,59,o),
(21,54,cs),
(15,47,o),
(10,36,o),
(32,18,cs),
(49,4,o),
(73,-3,o),
(97,-3,cs),
(177,-3,o),
(277,68,o),
(277,157,cs),
(277,213,o),
(240,250,o),
(179,250,cs),
(152,250,o),
(120,243,o),
(87,226,c),
(102,180,l)
);
},
{
closed = 1;
nodes = (
(193,239,o),
(275,297,o),
(275,342,cs),
(275,375,o),
(242,396,o),
(200,396,cs),
(167,396,o),
(123,383,o),
(83,357,cs),
(63,344,o),
(66,328,o),
(71,321,c),
(75,311,o),
(92,304,o),
(105,313,cs),
(146,341,o),
(181,351,o),
(204,351,cs),
(220,351,o),
(225,348,o),
(225,342,cs),
(225,324,o),
(138,258,o),
(82,223,cs),
(67,213,o),
(70,198,o),
(72,191,cs),
(76,182,o),
(95,173,o),
(110,183,cs)
);
}
);
visible = 1;
width = 357;
},
{
associatedMasterId = m002;
attr = {
axisRules = (
{
max = 800;
min = 600;
}
);
};
layerId = "1F5825D2-B087-4D37-A840-724583DD09F8";
name = "28 Feb 22, 07:47";
shapes = (
{
closed = 1;
nodes = (
(148,174,o),
(168,181,o),
(183,181,cs),
(196,181,o),
(202,176,o),
(202,159,cs),
(202,119,o),
(155,86,o),
(119,86,cs),
(103,86,o),
(98,90,o),
(91,95,cs),
(67,112,o),
(34,99,o),
(24,84,cs),
(12,66,o),
(7,43,o),
(36,19,cs),
(55,4,o),
(84,-4,o),
(112,-4,cs),
(195,-4,o),
(296,71,o),
(296,163,cs),
(296,225,o),
(253,258,o),
(185,258,cs),
(153,258,o),
(118,247,o),
(87,233,c),
(141,169,l)
);
},
{
closed = 1;
nodes = (
(219,208,o),
(295,271,o),
(295,325,cs),
(295,364,o),
(259,396,o),
(203,396,cs),
(169,396,o),
(124,382,o),
(86,357,cs),
(58,339,o),
(57,314,o),
(66,296,cs),
(76,274,o),
(102,276,o),
(124,293,cs),
(158,319,o),
(178,328,o),
(192,328,cs),
(199,328,o),
(210,322,o),
(205,315,cs),
(186,286,o),
(138,259,o),
(86,233,cs),
(64,222,o),
(60,198,o),
(67,180,cs),
(75,158,o),
(113,155,o),
(139,168,cs)
);
}
);
visible = 1;
width = 388;
}
);
metricLeft = three;
metricRight = three;
},
{
glyphname = four.c2sc;
lastChange = "2022-03-04 18:35:51 +0000";
layers = (
{
layerId = m01;
shapes = (
{
closed = 1;
nodes = (
(133,387,o),
(119,396,o),
(106,396,cs),
(96,396,o),
(83,390,o),
(81,374,cs),
(52,116,l),
(52,103,o),
(62,91,o),
(79,91,cs),
(95,91,o),
(102,103,o),
(102,114,c),
(131,369,ls)
);
},
{
closed = 1;
nodes = (
(219,211,o),
(208,221,o),
(197,224,cs),
(184,226,o),
(170,219,o),
(168,202,cs),
(148,29,ls),
(146,11,o),
(158,0,o),
(172,0,cs),
(182,0,o),
(197,6,o),
(198,23,cs),
(217,195,ls)
);
},
{
closed = 1;
nodes = (
(281,91,ls),
(297,91,o),
(306,103,o),
(305,114,cs),
(304,125,o),
(294,135,o),
(278,135,cs),
(69,135,l),
(72,91,l)
);
}
);
width = 348;
},
{
layerId = m002;
shapes = (
{
closed = 1;
nodes = (
(188,376,o),
(161,396,o),
(135,396,cs),
(114,396,o),
(92,383,o),
(89,358,cs),
(63,129,ls),
(60,103,o),
(84,80,o),
(113,80,cs),
(139,80,o),
(155,99,o),
(157,122,cs),
(184,345,ls)
);
},
{
closed = 1;
nodes = (
(288,218,o),
(267,241,o),
(247,243,cs),
(222,246,o),
(193,235,o),
(190,206,cs),
(172,53,ls),
(169,23,o),
(192,0,o),
(218,0,cs),
(239,0,o),
(264,12,o),
(267,39,cs),
(285,191,ls)
);
},
{
closed = 1;
nodes = (
(312,80,ls),
(339,80,o),
(359,101,o),
(357,124,cs),
(356,147,o),
(333,165,o),
(306,165,cs),
(104,165,l),
(110,80,l)
);
}
);
width = 410;
}
);
metricLeft = four;
metricRight = four;
},
{
glyphname = five.c2sc;
lastChange = "2022-03-04 20:08:11 +0000";
layers = (
{
layerId = m01;
shapes = (
{
closed = 1;
nodes = (
(113,200,o),
(132,204,o),
(151,204,cs),
(199,204,o),
(220,174,o),
(222,149,cs),
(224,109,o),
(182,44,o),
(122,44,cs),
(106,44,o),
(94,50,o),
(85,57,cs),
(79,63,o),
(70,65,o),
(64,65,cs),
(52,65,o),
(41,56,o),
(42,44,cs),
(42,38,o),
(47,29,o),
(55,21,c),
(72,7,o),
(96,-4,o),
(125,-4,cs),
(217,-4,o),
(276,89,o),
(272,150,cs),
(268,203,o),
(218,252,o),
(144,252,cs),
(123,252,o),
(103,248,o),
(76,239,c),
(84,192,l)
);
},
{
closed = 1;
nodes = (
(109,395,l),
(103,398,o),
(90,394,o),
(86,389,c),
(80,386,o),
(77,379,o),
(76,372,c),
(59,216,ls),
(57,202,o),
(70,193,o),
(85,193,cs),
(96,193,o),
(109,200,o),
(110,214,cs),
(126,371,l)
);
},
{
closed = 1;
nodes = (
(271,352,ls),
(289,352,o),
(296,362,o),
(295,373,cs),
(294,383,o),
(287,396,o),
(268,396,cs),
(96,396,l),
(99,352,l)
);
}
);
width = 362;
},
{
layerId = m002;
shapes = (
{
closed = 1;
nodes = (
(152,177,o),
(164,183,o),
(187,180,cs),
(209,177,o),
(218,171,o),
(219,151,cs),
(221,126,o),
(194,85,o),
(164,85,cs),
(145,85,o),
(140,89,o),
(133,93,cs),
(126,98,o),
(114,103,o),
(96,103,cs),
(80,103,o),
(58,85,o),
(59,67,cs),
(60,52,o),
(65,37,o),
(78,26,cs),
(96,10,o),
(126,-4,o),
(160,-4,cs),
(257,-4,o),
(318,92,o),
(313,156,cs),
(309,215,o),
(253,269,o),
(174,269,cs),
(147,269,o),
(118,261,o),
(112,259,c),
(133,172,l)
);
},
{
closed = 1;
nodes = (
(162,390,l),
(140,401,o),
(116,396,o),
(105,385,cs),
(97,378,o),
(91,367,o),
(90,356,cs),
(75,218,ls),
(72,191,o),
(96,171,o),
(124,171,cs),
(145,171,o),
(168,185,o),
(170,208,cs),
(185,355,l)
);
},
{
closed = 1;
nodes = (
(289,311,ls),
(318,311,o),
(335,330,o),
(333,353,cs),
(332,375,o),
(313,396,o),
(283,396,cs),
(137,396,l),
(143,311,l)
);
}
);
width = 403;
}
);
metricLeft = five;
metricRight = five;
},
{
glyphname = six.c2sc;
lastChange = "2022-03-04 20:08:11 +0000";
layers = (
{
layerId = m01;
shapes = (
{
closed = 1;
nodes = (
(107,138,o),
(127,191,o),
(169,259,cs),
(185,285,o),
(213,319,o),
(260,353,cs),
(269,358,o),
(272,367,o),
(272,376,cs),
(271,387,o),
(261,396,o),
(247,396,cs),
(242,396,o),
(236,395,o),
(230,391,cs),
(198,372,o),
(146,316,o),
(124,284,cs),
(82,216,o),
(58,142,o),
(65,72,c),
(114,72,l)
);
},
{
closed = 1;
nodes = (
(67,36,o),
(105,-4,o),
(156,-4,cs),
(229,-4,o),
(297,100,o),
(292,175,cs),
(288,223,o),
(258,247,o),
(206,247,cs),
(144,247,o),
(101,212,o),
(80,169,c),
(64,81,l)
);
},
{
closed = 1;
nodes = (
(132,44,o),
(115,58,o),
(112,94,cs),
(109,145,o),
(143,199,o),
(208,199,cs),
(232,199,o),
(242,193,o),
(243,172,cs),
(247,121,o),
(194,44,o),
(152,44,cs)
);
}
);
width = 360;
},
{
layerId = m002;
shapes = (
{
closed = 1;
nodes = (
(164,133,o),
(184,175,o),
(225,242,cs),
(239,264,o),
(260,286,o),
(299,314,cs),
(312,323,o),
(320,338,o),
(319,354,cs),
(318,376,o),
(296,396,o),
(271,396,cs),
(262,396,o),
(252,393,o),
(242,386,cs),
(209,366,o),
(163,320,o),
(143,290,cs),
(98,219,o),
(80,158,o),
(86,92,c),
(175,92,l)
);
},
{
closed = 1;
nodes = (
(88,47,o),
(132,-4,o),
(193,-4,cs),
(275,-4,o),
(342,105,o),
(336,180,cs),
(332,236,o),
(293,267,o),
(233,267,cs),
(166,267,o),
(120,226,o),
(100,183,c),
(85,97,l)
);
},
{
closed = 1;
nodes = (
(184,84,o),
(178,94,o),
(177,113,cs),
(175,147,o),
(195,179,o),
(229,179,cs),
(241,179,o),
(244,175,o),
(245,163,cs),
(247,133,o),
(214,84,o),
(194,84,cs)
);
}
);
width = 423;
}
);
metricLeft = six;
metricRight = six;
},
{
glyphname = seven.c2sc;
lastChange = "2022-03-04 20:08:07 +0000";
layers = (
{
layerId = m01;
shapes = (
{
closed = 1;
nodes = (
(254,383,o),
(246,396,o),
(226,396,cs),
(217,396,o),
(205,389,o),
(204,377,cs),
(166,26,ls),
(164,8,o),
(176,0,o),
(189,0,cs),
(200,0,o),
(214,7,o),
(215,24,cs),
(252,372,l)
);
},
{
closed = 1;
nodes = (
(235,396,l),
(61,396,ls),
(44,396,o),
(36,384,o),
(37,374,cs),
(38,363,o),
(47,351,o),
(64,351,cs),
(238,351,l)
);
}
);
width = 363;
},
{
layerId = m002;
shapes = (
{
closed = 1;
nodes = (
(287,372,o),
(268,396,o),
(235,396,cs),
(215,396,o),
(194,382,o),
(192,359,cs),
(159,50,ls),
(155,19,o),
(179,0,o),
(205,0,cs),
(226,0,o),
(249,14,o),
(252,40,cs),
(285,348,ls)
);
},
{
closed = 1;
nodes = (
(236,396,l),
(89,396,ls),
(61,396,o),
(43,376,o),
(44,354,cs),
(46,331,o),
(67,310,o),
(95,310,cs),
(242,310,l)
);
}
);
width = 407;
}
);
metricLeft = seven;
metricRight = seven;
},
{
glyphname = eight.c2sc;
lastChange = "2022-03-04 20:08:11 +0000";
layers = (
{
layerId = m01;
shapes = (
{
closed = 1;
nodes = (
(127,231,l),
(66,184,o),
(52,132,o),
(54,94,cs),
(57,53,o),
(83,-4,o),
(153,-4,cs),
(228,-4,o),
(265,59,o),
(262,106,cs),
(259,147,o),
(223,187,o),
(191,217,cs),
(178,229,l)
);
},
{
closed = 1;
nodes = (
(182,161,o),
(210,131,o),
(212,106,cs),
(213,79,o),
(188,44,o),
(154,44,cs),
(125,44,o),
(105,68,o),
(103,99,cs),
(101,124,o),
(111,154,o),
(154,187,c),
(157,184,ls)
);
},
{
closed = 1;
nodes = (
(233,246,o),
(288,291,o),
(285,333,cs),
(282,374,o),
(225,396,o),
(183,396,cs),
(131,396,o),
(70,366,o),
(75,302,cs),
(78,259,o),
(112,230,o),
(130,214,c),
(170,239,l),
(153,254,o),
(127,275,o),
(125,306,cs),
(122,339,o),
(154,348,o),
(180,348,cs),
(204,348,o),
(237,340,o),
(238,333,cs),
(239,317,o),
(164,252,o),
(119,227,c),
(178,208,l)
);
}
);
width = 366;
},
{
layerId = m002;
shapes = (
{
closed = 1;
nodes = (
(148,245,l),
(82,197,o),
(63,145,o),
(66,106,cs),
(69,64,o),
(97,-3,o),
(177,-3,cs),
(258,-3,o),
(296,66,o),
(293,117,cs),
(290,160,o),
(249,197,o),
(219,225,cs),
(201,242,l)
);
},
{
closed = 1;
nodes = (
(170,166,o),
(211,137,o),
(213,117,cs),
(214,99,o),
(194,78,o),
(175,78,cs),
(161,78,o),
(147,89,o),
(145,110,cs),
(144,129,o),
(158,147,o),
(176,161,c),
(175,162,ls)
);
},
{
closed = 1;
nodes = (
(250,223,o),
(317,267,o),
(314,317,cs),
(310,369,o),
(245,396,o),
(200,396,cs),
(146,396,o),
(79,361,o),
(84,290,cs),
(87,243,o),
(124,212,o),
(153,186,c),
(219,225,l),
(205,248,o),
(165,266,o),
(163,294,cs),
(162,308,o),
(179,325,o),
(199,325,cs),
(214,325,o),
(232,322,o),
(233,316,cs),
(233,309,o),
(205,290,o),
(123,225,c),
(199,187,l)
);
}
);
width = 403;
}
);
metricLeft = eight;
metricRight = eight;
},
{
glyphname = nine.c2sc;
lastChange = "2022-03-05 20:13:25 +0000";
layers = (
{
layerId = m01;
shapes = (
{
closed = 1;
nodes = (
(289,346,l),
(268,297,o),
(201,191,o),
(170,191,cs),
(132,191,o),
(160,291,o),
(174,315,cs),
(191,343,o),
(222,348,o),
(244,348,c),
(301,348,l),
(306,396,l),
(240,396,l),
(199,396,o),
(158,383,o),
(133,343,cs),
(98,282,o),
(72,143,o),
(170,143,cs),
(216,143,o),
(264,195,o),
(294,250,c),
(301,346,l)
);
},
{
closed = 1;
nodes = (
(344,387,o),
(334,396,o),
(322,396,cs),
(294,396,l),
(255,23,ls),
(253,7,o),
(267,0,o),
(280,0,cs),
(291,0,o),
(303,6,o),
(305,21,cs),
(342,372,ls)
);
}
);
width = 417;
},
{
layerId = m002;
shapes = (
{
closed = 1;
nodes = (
(285,315,l),
(269,285,o),
(240,248,o),
(228,236,cs),
(196,197,o),
(184,261,o),
(211,304,cs),
(221,320,o),
(249,318,o),
(259,318,cs),
(293,318,l),
(301,396,l),
(259,396,l),
(218,396,o),
(166,386,o),
(138,343,cs),
(103,279,o),
(87,135,o),
(192,135,cs),
(221,135,o),
(252,155,o),
(279,183,c),
(293,315,l)
);
},
{
closed = 1;
nodes = (
(380,376,o),
(357,396,o),
(332,396,cs),
(289,396,l),
(252,46,ls),
(249,15,o),
(275,0,o),
(298,0,cs),
(318,0,o),
(340,13,o),
(343,37,cs),
(377,348,ls)
);
}
);
width = 463;
}
);
metricLeft = nine;
metricRight = nine;
},
{
glyphname = .notdef;
lastChange = "2022-03-08 22:52:02 +0000";
layers = (
{
layerId = m01;
shapes = (
{
closed = 1;
nodes = (
(483,0,o),
(493,12,o),
(495,27,cs),
(564,673,ls),
(566,689,o),
(558,700,o),
(544,700,cs),
(148,700,ls),
(131,700,o),
(121,689,o),
(119,673,cs),
(50,27,ls),
(48,12,o),
(57,0,o),
(76,0,cs),
(472,0,ls)
);
},
{
closed = 1;
nodes = (
(168,655,l),
(511,655,l),
(447,45,l),
(103,45,l)
);
}
);
width = 576;
},
{
layerId = m002;
shapes = (
{
closed = 1;
nodes = (
(522,0,o),
(543,26,o),
(546,49,cs),
(610,659,ls),
(613,687,o),
(597,700,o),
(560,700,c),
(180,700,l),
(152,700,o),
(132,687,o),
(129,659,cs),
(65,49,ls),
(62,21,o),
(77,0,o),
(116,0,cs),
(497,0,ls)
);
},
{
closed = 1;
nodes = (
(226,605,l),
(503,605,l),
(448,95,l),
(171,95,l)
);
}
);
width = 639;
}
);
metricLeft = N;
metricRight = N;
},
{
glyphname = period;
lastChange = "2022-03-08 22:52:02 +0000";
layers = (
{
layerId = m01;
shapes = (
{
closed = 1;
nodes = (
(107,-30,o),
(124,-12,o),
(122,9,cs),
(121,29,o),
(102,46,o),
(82,46,cs),
(61,46,o),
(46,29,o),
(47,9,cs),
(49,-11,o),
(66,-30,o),
(87,-30,cs)
);
}
);
width = 204;
},
{
layerId = m002;
shapes = (
{
closed = 1;
nodes = (
(153,-30,o),
(177,-4,o),
(175,26,cs),
(173,55,o),
(145,80,o),
(116,80,cs),
(85,80,o),
(63,55,o),
(65,26,cs),
(67,-3,o),
(93,-30,o),
(124,-30,cs)
);
}
);
width = 271;
}
);
metricLeft = n;
metricRight = n;
unicode = 46;
},
{
glyphname = comma;
lastChange = "2022-03-08 22:52:02 +0000";
layers = (
{
layerId = m01;
shapes = (
{
closed = 1;
nodes = (
(101,39,o),
(90,49,o),
(77,50,cs),
(63,52,o),
(51,45,o),
(49,28,cs),
(39,-71,ls),
(37,-89,o),
(48,-99,o),
(60,-101,cs),
(72,-103,o),
(87,-96,o),
(88,-78,cs),
(100,21,ls)
);
}
);
width = 180;
},
{
layerId = m002;
shapes = (
{
closed = 1;
nodes = (
(171,71,o),
(149,91,o),
(121,94,cs),
(96,97,o),
(70,83,o),
(67,54,cs),
(57,-45,ls),
(54,-76,o),
(76,-97,o),
(101,-101,cs),
(125,-105,o),
(154,-90,o),
(157,-60,cs),
(168,39,ls)
);
}
);
width = 262;
}
);
metricLeft = n;
metricRight = n;
unicode = 44;
},
{
glyphname = colon;
lastChange = "2022-03-08 22:52:02 +0000";
layers = (
{
layerId = m01;
shapes = (
{
closed = 1;
nodes = (
(108,-30,o),
(125,-12,o),
(123,9,cs),
(122,29,o),
(103,46,o),
(82,46,cs),
(61,46,o),
(46,29,o),
(47,9,cs),
(49,-11,o),
(66,-30,o),
(87,-30,cs)
);
},
{
closed = 1;
nodes = (
(129,175,o),
(145,194,o),
(144,214,cs),
(143,235,o),
(123,251,o),
(103,251,cs),
(82,251,o),
(68,234,o),
(69,214,cs),
(70,195,o),
(88,175,o),
(109,175,cs)
);
}
);
width = 205;
},
{
layerId = m002;
shapes = (
{
closed = 1;
nodes = (
(175,175,o),
(199,202,o),
(197,232,cs),
(195,261,o),
(167,285,o),
(138,285,cs),
(107,285,o),
(85,259,o),
(87,231,cs),
(89,203,o),
(115,175,o),
(145,175,cs)
);
},
{
closed = 1;
nodes = (
(153,-30,o),
(177,-4,o),
(175,26,cs),
(173,56,o),
(145,80,o),
(115,80,cs),
(84,80,o),
(63,55,o),
(65,26,cs),
(67,-3,o),
(92,-30,o),
(123,-30,cs)
);
}
);
width = 272;
}
);
metricLeft = n;
metricRight = n;
unicode = 58;
},
{
glyphname = semicolon;
lastChange = "2022-03-08 22:52:02 +0000";
layers = (
{
layerId = m01;
shapes = (
{
closed = 1;
nodes = (
(114,39,o),
(103,49,o),
(90,50,cs),
(76,52,o),
(64,45,o),
(62,28,cs),
(52,-71,ls),
(50,-90,o),
(63,-101,o),
(76,-102,cs),
(87,-103,o),
(100,-95,o),
(101,-78,cs),
(113,21,ls)
);
},
{
closed = 1;
nodes = (
(129,175,o),
(145,194,o),
(144,214,cs),
(143,235,o),
(123,251,o),
(103,251,cs),
(82,251,o),
(68,234,o),
(69,214,cs),
(70,195,o),
(88,175,o),
(109,175,cs)
);
}
);
width = 204;
},
{
layerId = m002;
shapes = (
{
closed = 1;
nodes = (
(175,71,o),
(152,91,o),
(124,94,cs),
(99,97,o),
(73,83,o),
(70,54,cs),
(60,-45,ls),
(56,-78,o),
(82,-100,o),
(109,-102,cs),
(132,-104,o),
(157,-89,o),
(160,-60,cs),
(171,39,ls)
);
},
{
closed = 1;
nodes = (
(174,175,o),
(198,203,o),
(196,231,cs),
(194,262,o),
(166,285,o),
(137,285,cs),
(106,285,o),
(85,260,o),
(87,231,cs),
(89,204,o),
(114,175,o),
(145,175,cs)
);
}
);
width = 271;
}
);
metricLeft = n;
metricRight = n;
unicode = 59;
},
{
glyphname = ellipsis;
lastChange = "2022-03-08 22:52:02 +0000";
layers = (
{
layerId = m01;
shapes = (
{
closed = 1;
nodes = (
(327,-30,o),
(344,-12,o),
(342,9,cs),
(341,29,o),
(322,46,o),
(302,46,cs),
(281,46,o),
(266,29,o),
(267,9,cs),
(269,-11,o),
(286,-30,o),
(307,-30,cs)
);
},
{
closed = 1;
nodes = (
(107,-30,o),
(124,-12,o),
(122,9,cs),
(121,29,o),
(102,46,o),
(82,46,cs),
(61,46,o),
(46,29,o),
(47,9,cs),
(49,-11,o),
(66,-30,o),
(87,-30,cs)
);
},
{
closed = 1;
nodes = (
(217,-30,o),
(234,-12,o),
(232,9,cs),
(231,29,o),
(212,46,o),
(192,46,cs),
(171,46,o),
(156,29,o),
(157,9,cs),
(159,-11,o),
(176,-30,o),
(197,-30,cs)
);
}
);
width = 424;
},
{
layerId = m002;
shapes = (
{
closed = 1;
nodes = (
(442,-31,o),
(467,-6,o),
(465,25,cs),
(463,56,o),
(434,79,o),
(405,79,cs),
(377,79,o),
(353,57,o),
(355,25,cs),
(357,-6,o),
(385,-31,o),
(414,-31,cs)
);
},
{
closed = 1;
nodes = (
(152,-31,o),
(177,-6,o),
(175,25,cs),
(173,56,o),
(144,79,o),
(115,79,cs),
(87,79,o),
(63,57,o),
(65,25,cs),
(67,-6,o),
(95,-31,o),
(124,-31,cs)
);
},
{
closed = 1;
nodes = (
(297,-30,o),
(322,-6,o),
(320,25,cs),
(318,56,o),
(289,79,o),
(261,79,cs),
(232,79,o),
(208,56,o),
(210,25,cs),
(212,-6,o),
(240,-30,o),
(269,-30,cs)
);
}
);
width = 562;
}
);
metricLeft = n;
metricRight = n;
unicode = 8230;
},
{
glyphname = exclam;
lastChange = "2022-03-08 22:52:02 +0000";
layers = (
{
layerId = m01;
shapes = (
{
closed = 1;
nodes = (
(173,643,o),
(163,650,o),
(151,650,cs),
(138,650,o),
(123,643,o),
(121,629,cs),
(75,202,ls),
(73,185,o),
(86,176,o),
(98,175,cs),
(110,174,o),
(124,183,o),
(126,202,cs),
(172,629,ls)
);
},
{
closed = 1;
nodes = (
(101,-24,o),
(116,-8,o),
(114,9,cs),
(113,26,o),
(96,41,o),
(78,41,cs),
(60,41,o),
(48,25,o),
(49,9,cs),
(50,-7,o),
(65,-24,o),
(83,-24,cs)
);
}
);
width = 196;
},
{
layerId = m002;
shapes = (
{
closed = 1;
nodes = (
(235,632,o),
(207,650,o),
(183,650,cs),
(161,650,o),
(133,635,o),
(130,611,cs),
(88,226,ls),
(85,197,o),
(111,177,o),
(136,175,cs),
(159,173,o),
(187,191,o),
(190,220,cs),
(232,605,ls)
);
},
{
closed = 1;
nodes = (
(150,-24,o),
(176,2,o),
(174,31,cs),
(172,60,o),
(142,86,o),
(112,86,cs),
(81,86,o),
(62,58,o),
(64,31,cs),
(66,4,o),
(89,-24,o),
(120,-24,cs)
);
}
);
width = 270;
}
);
metricLeft = N;
metricRight = N;
unicode = 33;
},
{
glyphname = exclamdown;
lastChange = "2022-03-08 22:52:02 +0000";
layers = (
{
layerId = m01;
shapes = (
{
closed = 1;
nodes = (
(151,441,o),
(139,450,o),
(126,451,cs),
(114,452,o),
(100,443,o),
(98,424,cs),
(53,21,ls),
(51,6,o),
(63,-1,o),
(76,0,cs),
(88,0,o),
(102,7,o),
(104,21,cs),
(149,424,ls)
);
},
{
closed = 1;
nodes = (
(167,585,o),
(179,601,o),
(178,617,cs),
(177,633,o),
(163,650,o),
(145,650,cs),
(127,650,o),
(112,634,o),
(113,617,cs),
(114,600,o),
(131,585,o),
(149,585,cs)
);
}
);
width = 196;
},
{
layerId = m002;
shapes = (
{
closed = 1;
nodes = (
(213,433,o),
(186,450,o),
(162,452,cs),
(138,454,o),
(111,437,o),
(109,407,cs),
(70,47,ls),
(67,17,o),
(93,-2,o),
(121,0,cs),
(143,0,o),
(168,14,o),
(170,39,cs),
(209,399,ls)
);
},
{
closed = 1;
nodes = (
(215,540,o),
(235,566,o),
(233,594,cs),
(231,623,o),
(208,650,o),
(177,650,cs),
(147,650,o),
(121,623,o),
(123,594,cs),
(125,566,o),
(154,540,o),
(184,540,cs)
);
}
);
width = 270;
}
);
metricLeft = N;
metricRight = N;
unicode = 161;
},
{
glyphname = question;
lastChange = "2022-03-09 00:19:28 +0000";
layers = (
{
layerId = m01;
shapes = (
{
closed = 1;
nodes = (
(362,272,o),
(424,364,o),
(439,503,cs),
(447,582,o),
(374,654,o),
(283,654,cs),
(168,654,o),
(109,590,o),
(98,495,cs),
(96,473,o),
(102,460,o),
(113,457,cs),
(126,454,o),
(146,463,o),
(148,485,cs),
(154,542,o),
(188,604,o),
(273,604,cs),
(339,604,o),
(395,568,o),
(389,507,cs),
(384,461,o),
(369,322,o),
(207,322,c),
(206,272,l)
);
},
{
closed = 1;
nodes = (
(195,-24,o),
(210,-9,o),
(209,7,cs),
(207,26,o),
(191,41,o),
(172,41,cs),
(155,41,o),
(142,25,o),
(144,7,cs),
(145,-8,o),
(160,-24,o),
(177,-24,cs)
);
},
{
closed = 1;
nodes = (
(233,310,o),
(225,322,o),
(205,322,cs),
(194,322,o),
(183,314,o),
(182,303,cs),
(171,202,ls),
(170,188,o),
(181,178,o),
(193,175,cs),
(206,173,o),
(219,180,o),
(222,202,cs),
(233,303,ls)
);
}
);
width = 451;
},
{
layerId = m002;
shapes = (
{
closed = 1;
nodes = (
(385,256,o),
(453,353,o),
(470,492,cs),
(479,577,o),
(399,654,o),
(302,654,cs),
(185,654,o),
(123,586,o),
(113,493,cs),
(108,458,o),
(124,439,o),
(146,434,cs),
(171,427,o),
(205,443,o),
(208,476,cs),
(212,524,o),
(234,565,o),
(296,565,cs),
(347,565,o),
(379,545,o),
(374,504,cs),
(370,459,o),
(357,345,o),
(224,356,c),
(209,267,l)
);
},
{
closed = 1;
nodes = (
(226,-24,o),
(252,2,o),
(250,32,cs),
(248,61,o),
(220,86,o),
(190,86,cs),
(159,86,o),
(138,60,o),
(140,32,cs),
(142,4,o),
(167,-24,o),
(197,-24,cs)
);
},
{
closed = 1;
nodes = (
(279,338,o),
(254,356,o),
(225,356,cs),
(204,356,o),
(183,342,o),
(181,321,cs),
(171,233,ls),
(168,207,o),
(184,182,o),
(214,176,cs),
(240,171,o),
(263,193,o),
(266,225,cs),
(276,313,ls)
);
}
);
width = 487;
}
);
metricLeft = O;
metricRight = O;
unicode = 63;
},
{
glyphname = questiondown;
lastChange = "2022-03-09 00:19:28 +0000";
layers = (
{
layerId = m01;
shapes = (
{
closed = 1;
nodes = (
(138,382,o),
(77,290,o),
(61,151,cs),
(53,72,o),
(126,0,o),
(217,0,cs),
(332,0,o),
(392,64,o),
(402,159,cs),
(404,181,o),
(398,194,o),
(387,197,cs),
(374,200,o),
(355,191,o),
(352,169,cs),
(346,112,o),
(313,50,o),
(228,50,cs),
(162,50,o),
(105,86,o),
(112,147,cs),
(117,193,o),
(131,332,o),
(293,332,c),
(294,382,l)
);
},
{
closed = 1;
nodes = (
(330,466,o),
(320,476,o),
(308,479,cs),
(294,481,o),
(281,474,o),
(278,452,cs),
(267,351,ls),
(267,344,o),
(275,332,o),
(295,332,cs),
(306,332,o),
(317,340,o),
(318,351,cs),
(329,452,ls)
);
},
{
closed = 1;
nodes = (
(342,585,o),
(355,601,o),
(354,619,cs),
(353,634,o),
(338,650,o),
(321,650,cs),
(303,650,o),
(288,635,o),
(289,619,cs),
(290,600,o),
(306,585,o),
(325,585,cs)
);
}
);
width = 450;
},
{
layerId = m002;
shapes = (
{
closed = 1;
nodes = (
(167,398,o),
(93,296,o),
(78,160,cs),
(70,76,o),
(146,1,o),
(241,1,cs),
(356,1,o),
(423,67,o),
(434,159,cs),
(436,194,o),
(422,212,o),
(401,217,cs),
(376,224,o),
(342,208,o),
(339,175,cs),
(335,128,o),
(313,89,o),
(253,89,cs),
(203,89,o),
(173,108,o),
(178,148,cs),
(182,192,o),
(198,300,o),
(320,289,c),
(342,386,l)
);
},
{
closed = 1;
nodes = (
(380,454,o),
(360,473,o),
(336,479,cs),
(309,484,o),
(280,470,o),
(277,435,cs),
(266,333,ls),
(263,310,o),
(289,289,o),
(320,289,cs),
(342,289,o),
(364,304,o),
(366,326,cs),
(377,428,ls)
);
},
{
closed = 1;
nodes = (
(379,540,o),
(399,568,o),
(397,597,cs),
(395,625,o),
(370,650,o),
(340,650,cs),
(309,650,o),
(285,625,o),
(287,598,cs),
(289,568,o),
(316,540,o),
(348,540,cs)
);
}
);
width = 486;
}
);
metricLeft = O;
metricRight = O;
unicode = 191;
},
{
glyphname = periodcentered;
lastChange = "2022-03-08 22:52:02 +0000";
layers = (
{
layerId = m01;
shapes = (
{
closed = 1;
nodes = (
(124,138,o),
(141,157,o),
(140,177,cs),
(138,198,o),
(119,214,o),
(99,214,cs),
(78,214,o),
(63,197,o),
(65,177,cs),
(66,158,o),
(83,138,o),
(104,138,cs)
);
}
);
width = 204;
},
{
layerId = m002;
shapes = (
{
closed = 1;
nodes = (
(168,121,o),
(193,149,o),
(191,178,cs),
(188,209,o),
(160,231,o),
(131,231,cs),
(100,231,o),
(79,207,o),
(81,178,cs),
(82,151,o),
(108,121,o),
(139,121,cs)
);
}
);
width = 271;
}
);
metricLeft = n;
metricRight = n;
unicode = 183;
},
{
glyphname = bullet;
lastChange = "2022-03-08 22:52:02 +0000";
layers = (
{
layerId = m01;
shapes = (
{
closed = 1;
nodes = (
(203,278,o),
(237,314,o),
(234,355,cs),
(231,396,o),
(193,430,o),
(153,430,cs),
(111,430,o),
(81,395,o),
(84,355,cs),
(87,316,o),
(121,278,o),
(163,278,cs)
);
}
);
width = 280;
},
{
layerId = m002;
shapes = (
{
closed = 1;
nodes = (
(258,254,o),
(304,301,o),
(300,355,cs),
(296,409,o),
(245,454,o),
(191,454,cs),
(136,454,o),
(96,408,o),
(100,355,cs),
(104,304,o),
(148,254,o),
(204,254,cs)
);
}
);
width = 362;
}
);
metricLeft = n;
metricRight = n;
unicode = 8226;
},
{
glyphname = asterisk;
lastChange = "2022-03-08 22:52:02 +0000";
layers = (
{
layerId = m01;
shapes = (
{
closed = 1;
nodes = (
(283,584,o),
(285,598,o),
(279,607,cs),
(273,614,o),
(261,617,o),
(246,608,cs),
(116,524,ls),
(100,513,o),
(97,499,o),
(104,491,cs),
(109,483,o),
(121,481,o),
(137,490,cs),
(267,574,ls)
);
},
{
closed = 1;
nodes = (
(250,482,o),
(263,484,o),
(270,492,cs),
(274,499,o),
(273,511,o),
(260,521,cs),
(146,606,ls),
(133,616,o),
(121,614,o),
(116,606,cs),
(109,599,o),
(110,586,o),
(124,576,cs),
(237,492,ls)
);
},
{
closed = 1;
nodes = (
(220,641,o),
(212,650,o),
(203,650,cs),
(193,650,o),
(181,641,o),
(179,623,cs),
(164,475,ls),
(162,458,o),
(170,450,o),
(179,448,cs),
(189,447,o),
(201,456,o),
(203,475,cs),
(218,623,ls)
);
}
);
width = 302;
},
{
layerId = m002;
shapes = (
{
closed = 1;
nodes = (
(336,570,o),
(344,594,o),
(328,617,cs),
(316,633,o),
(287,639,o),
(263,625,cs),
(136,543,l),
(115,527,o),
(105,504,o),
(119,483,cs),
(131,464,o),
(162,458,o),
(188,474,cs),
(311,554,ls)
);
},
{
closed = 1;
nodes = (
(279,460,o),
(308,464,o),
(320,481,cs),
(332,499,o),
(329,521,o),
(305,538,cs),
(195,621,ls),
(171,638,o),
(143,634,o),
(131,617,cs),
(117,599,o),
(121,576,o),
(146,558,cs),
(253,477,l)
);
},
{
closed = 1;
nodes = (
(279,648,o),
(257,668,o),
(233,668,cs),
(212,668,o),
(190,651,o),
(187,624,cs),
(172,482,ls),
(169,453,o),
(187,436,o),
(208,431,cs),
(230,426,o),
(257,443,o),
(261,474,cs),
(276,616,ls)
);
}
);
width = 373;
}
);
metricLeft = N;
metricRight = N;
unicode = 42;
},
{
glyphname = numbersign;
lastChange = "2022-03-08 22:52:02 +0000";
layers = (
{
layerId = m01;
shapes = (
{
closed = 1;
nodes = (
(304,559,o),
(292,568,o),
(279,568,cs),
(266,568,o),
(253,560,o),
(251,543,cs),
(196,28,ls),
(194,10,o),
(205,0,o),
(217,0,cs),
(230,-1,o),
(244,8,o),
(247,28,cs),
(302,543,ls)
);
},
{
closed = 1;
nodes = (
(656,147,o),
(664,159,o),
(663,170,cs),
(662,181,o),
(654,192,o),
(636,192,cs),
(91,192,ls),
(73,192,o),
(65,181,o),
(66,170,cs),
(67,159,o),
(77,147,o),
(94,147,cs),
(639,147,ls)
);
},
{
closed = 1;
nodes = (
(560,559,o),
(548,567,o),
(536,568,cs),
(523,568,o),
(509,560,o),
(507,543,cs),
(452,28,ls),
(450,9,o),
(462,-1,o),
(475,0,cs),
(488,0,o),
(501,9,o),
(503,28,cs),
(558,543,ls)
);
},
{
closed = 1;
nodes = (
(681,384,o),
(689,395,o),
(689,406,cs),
(688,417,o),
(678,429,o),
(660,429,cs),
(116,429,ls),
(98,429,o),
(90,417,o),
(91,406,cs),
(91,395,o),
(101,384,o),
(119,384,cs),
(663,384,ls)
);
}
);
width = 729;
},
{
layerId = m002;
shapes = (
{
closed = 1;
nodes = (
(595,555,o),
(570,568,o),
(547,568,cs),
(523,568,o),
(496,558,o),
(493,531,cs),
(442,47,ls),
(438,13,o),
(465,0,o),
(492,0,cs),
(516,0,o),
(537,11,o),
(540,39,cs),
(591,523,ls)
);
},
{
closed = 1;
nodes = (
(673,133,o),
(691,153,o),
(690,177,cs),
(688,200,o),
(668,218,o),
(638,218,cs),
(126,218,ls),
(96,218,o),
(77,200,o),
(79,177,cs),
(80,153,o),
(103,133,o),
(132,133,cs),
(644,133,ls)
);
},
{
closed = 1;
nodes = (
(353,552,o),
(328,568,o),
(301,568,cs),
(276,568,o),
(256,557,o),
(253,530,cs),
(201,47,ls),
(197,16,o),
(218,0,o),
(244,0,cs),
(268,0,o),
(296,10,o),
(299,39,cs),
(350,523,ls)
);
},
{
closed = 1;
nodes = (
(696,357,o),
(716,375,o),
(714,399,cs),
(712,422,o),
(690,442,o),
(660,442,cs),
(149,442,ls),
(119,442,o),
(100,422,o),
(102,399,cs),
(104,375,o),
(125,357,o),
(155,357,cs),
(666,357,ls)
);
}
);
width = 771;
}
);
metricLeft = N;
metricRight = N;
unicode = 35;
},
{
glyphname = slash;
lastChange = "2022-03-08 22:52:02 +0000";
layers = (
{
layerId = m01;
shapes = (
{
closed = 1;
nodes = (
(325,637,o),
(310,650,o),
(295,650,cs),
(284,650,o),
(273,644,o),
(267,627,cs),
(52,31,ls),
(45,12,o),
(60,0,o),
(76,0,cs),
(87,0,o),
(98,6,o),
(103,20,cs),
(318,616,ls)
);
}
);
width = 336;
},
{
layerId = m002;
shapes = (
{
closed = 1;
nodes = (
(381,624,o),
(349,650,o),
(319,650,cs),
(299,650,o),
(277,639,o),
(268,614,cs),
(67,60,ls),
(54,25,o),
(85,0,o),
(117,0,cs),
(136,0,o),
(157,10,o),
(166,32,cs),
(368,588,ls)
);
}
);
width = 406;
}
);
metricLeft = N;
metricRight = N;
unicode = 47;
},
{
glyphname = backslash;
lastChange = "2022-03-08 22:52:02 +0000";
layers = (
{
layerId = m01;
shapes = (
{
closed = 1;
nodes = (
(159,644,o),
(148,650,o),
(137,650,cs),
(122,650,o),
(107,637,o),
(118,616,cs),
(417,20,ls),
(424,5,o),
(436,0,o),
(447,0,cs),
(462,0,o),
(475,13,o),
(466,31,cs),
(167,627,ls)
);
}
);
width = 549;
},
{
layerId = m002;
shapes = (
{
closed = 1;
nodes = (
(204,648,o),
(172,655,o),
(148,646,cs),
(126,638,o),
(114,608,o),
(132,574,cs),
(405,32,ls),
(420,1,o),
(454,-6,o),
(479,4,cs),
(499,13,o),
(509,41,o),
(495,69,cs),
(221,614,ls)
);
}
);
width = 596;
}
);
metricLeft = N;
metricRight = N;
unicode = 92;
},
{
glyphname = exclam.c2sc;
lastChange = "2022-03-08 22:52:02 +0000";
layers = (
{
layerId = m01;
shapes = (
{
closed = 1;
nodes = (
(98,-24,o),
(114,-8,o),
(114,9,cs),
(114,26,o),
(98,41,o),
(80,41,cs),
(62,41,o),
(49,25,o),
(49,9,cs),
(49,-7,o),
(62,-24,o),
(80,-24,cs)
);
},
{
closed = 1;
nodes = (
(173,382,o),
(164,396,o),
(150,396,cs),
(132,396,o),
(123,386,o),
(120,372,cs),
(90,205,ls),
(87,188,o),
(99,175,o),
(112,175,cs),
(127,175,o),
(137,185,o),
(140,199,cs),
(170,367,ls)
);
}
);
width = 214;
},
{
layerId = m002;
shapes = (
{
closed = 1;
nodes = (
(144,-47,o),
(171,-20,o),
(171,9,cs),
(171,38,o),
(144,64,o),
(114,64,cs),
(83,64,o),
(61,36,o),
(61,9,cs),
(61,-18,o),
(83,-47,o),
(114,-47,cs)
);
},
{
closed = 1;
nodes = (
(231,370,o),
(211,396,o),
(181,396,cs),
(155,396,o),
(131,381,o),
(126,353,cs),
(96,186,ls),
(90,154,o),
(115,129,o),
(143,129,cs),
(169,129,o),
(189,146,o),
(195,172,cs),
(225,340,ls)
);
}
);
width = 288;
}
);
metricLeft = N;
metricRight = N;
},
{
glyphname = exclamdown.c2sc;
lastChange = "2022-03-08 22:52:02 +0000";
layers = (
{
layerId = m01;
shapes = (
{
closed = 1;
nodes = (
(123,420,o),
(107,404,o),
(107,387,cs),
(107,370,o),
(123,355,o),
(141,355,cs),
(159,355,o),
(172,371,o),
(172,387,cs),
(172,403,o),
(159,420,o),
(141,420,cs)
);
},
{
closed = 1;
nodes = (
(48,14,o),
(57,0,o),
(71,0,cs),
(89,0,o),
(98,10,o),
(101,24,cs),
(131,191,ls),
(134,208,o),
(122,221,o),
(109,221,cs),
(94,221,o),
(84,211,o),
(81,197,cs),
(51,29,ls)
);
}
);
width = 214;
},
{
layerId = m002;
shapes = (
{
closed = 1;
nodes = (
(147,443,o),
(120,416,o),
(120,387,cs),
(120,358,o),
(147,332,o),
(177,332,cs),
(208,332,o),
(230,360,o),
(230,387,cs),
(230,414,o),
(208,443,o),
(177,443,cs)
);
},
{
closed = 1;
nodes = (
(60,26,o),
(80,0,o),
(110,0,cs),
(136,0,o),
(160,15,o),
(165,43,cs),
(195,210,ls),
(201,242,o),
(176,267,o),
(148,267,cs),
(122,267,o),
(102,250,o),
(96,224,cs),
(66,56,ls)
);
}
);
width = 288;
}
);
metricLeft = N;
metricRight = N;
},
{
glyphname = question.c2sc;
lastChange = "2022-03-09 00:19:28 +0000";
layers = (
{
layerId = m01;
shapes = (
{
closed = 1;
nodes = (
(246,139,o),
(316,167,o),
(324,275,cs),
(330,345,o),
(295,395,o),
(210,395,cs),
(148,395,o),
(105,366,o),
(80,308,cs),
(73,292,o),
(81,277,o),
(89,274,cs),
(97,271,o),
(119,271,o),
(125,286,cs),
(140,324,o),
(163,345,o),
(207,345,cs),
(277,345,o),
(277,308,o),
(274,273,cs),
(265,184,o),
(201,189,o),
(152,189,cs),
(149,189,o),
(148,187,o),
(146,185,c),
(160,139,l)
);
},
{
closed = 1;
nodes = (
(138,-24,o),
(154,-9,o),
(154,7,cs),
(154,26,o),
(139,41,o),
(120,41,cs),
(103,41,o),
(89,25,o),
(89,7,cs),
(89,-8,o),
(103,-24,o),
(120,-24,cs)
);
},
{
closed = 1;
nodes = (
(149,87,o),
(163,94,o),
(167,116,cs),
(177,170,ls),
(178,177,o),
(171,189,o),
(151,189,cs),
(140,189,o),
(128,181,o),
(126,170,cs),
(116,116,ls),
(113,102,o),
(124,92,o),
(136,89,cs)
);
}
);
width = 360;
},
{
layerId = m002;
shapes = (
{
closed = 1;
nodes = (
(281,120,o),
(379,157,o),
(389,273,cs),
(396,356,o),
(350,418,o),
(250,418,cs),
(178,418,o),
(125,383,o),
(97,317,cs),
(86,291,o),
(96,262,o),
(120,252,cs),
(140,245,o),
(177,251,o),
(188,278,cs),
(202,311,o),
(216,322,o),
(247,322,cs),
(279,322,o),
(294,307,o),
(289,275,cs),
(280,218,o),
(236,222,o),
(189,222,cs),
(191,222,o),
(184,217,o),
(156,198,c),
(178,127,l)
);
},
{
closed = 1;
nodes = (
(187,-70,o),
(215,-44,o),
(215,-17,cs),
(215,15,o),
(189,41,o),
(157,41,cs),
(128,41,o),
(105,13,o),
(105,-17,cs),
(105,-42,o),
(128,-70,o),
(157,-70,cs)
);
},
{
closed = 1;
nodes = (
(196,72,o),
(224,86,o),
(231,122,cs),
(241,176,ls),
(246,201,o),
(222,222,o),
(190,222,cs),
(168,222,o),
(144,206,o),
(140,184,cs),
(130,131,ls),
(125,104,o),
(144,83,o),
(169,77,cs)
);
}
);
width = 429;
}
);
metricLeft = O;
metricRight = O;
},
{
glyphname = questiondown.c2sc;
lastChange = "2022-03-09 00:19:28 +0000";
layers = (
{
layerId = m01;
shapes = (
{
closed = 1;
nodes = (
(136,256,o),
(66,228,o),
(58,120,cs),
(52,50,o),
(87,0,o),
(172,0,cs),
(234,0,o),
(277,29,o),
(302,87,cs),
(309,103,o),
(301,118,o),
(293,121,cs),
(285,124,o),
(263,124,o),
(257,109,cs),
(242,71,o),
(219,50,o),
(175,50,cs),
(105,50,o),
(105,87,o),
(108,122,cs),
(117,211,o),
(181,206,o),
(230,206,cs),
(233,206,o),
(234,208,o),
(236,210,c),
(222,256,l)
);
},
{
closed = 1;
nodes = (
(244,419,o),
(228,404,o),
(228,388,cs),
(228,369,o),
(243,354,o),
(262,354,cs),
(279,354,o),
(293,370,o),
(293,388,cs),
(293,403,o),
(279,419,o),
(262,419,cs)
);
},
{
closed = 1;
nodes = (
(233,308,o),
(219,301,o),
(215,279,cs),
(205,225,ls),
(204,218,o),
(211,206,o),
(231,206,cs),
(242,206,o),
(254,214,o),
(256,225,cs),
(266,279,ls),
(269,293,o),
(258,303,o),
(246,306,cs)
);
}
);
width = 359;
},
{
layerId = m002;
shapes = (
{
closed = 1;
nodes = (
(185,298,o),
(87,261,o),
(77,145,cs),
(70,62,o),
(116,0,o),
(216,0,cs),
(288,0,o),
(341,35,o),
(369,101,cs),
(380,127,o),
(370,156,o),
(346,166,cs),
(326,173,o),
(289,167,o),
(278,140,cs),
(264,107,o),
(250,96,o),
(219,96,cs),
(187,96,o),
(172,111,o),
(177,143,cs),
(186,200,o),
(230,196,o),
(277,196,cs),
(275,196,o),
(282,201,o),
(310,220,c),
(288,291,l)
);
},
{
closed = 1;
nodes = (
(279,488,o),
(251,462,o),
(251,435,cs),
(251,403,o),
(277,377,o),
(309,377,cs),
(338,377,o),
(361,405,o),
(361,435,cs),
(361,460,o),
(338,488,o),
(309,488,cs)
);
},
{
closed = 1;
nodes = (
(270,346,o),
(242,332,o),
(235,296,cs),
(225,242,ls),
(220,217,o),
(244,196,o),
(276,196,cs),
(298,196,o),
(322,212,o),
(326,234,cs),
(336,287,ls),
(341,314,o),
(322,335,o),
(297,341,cs)
);
}
);
width = 429;
}
);
metricLeft = O;
metricRight = O;
},
{
glyphname = asterisk.c2sc;
lastChange = "2022-03-08 22:52:02 +0000";
layers = (
{
layerId = m01;
shapes = (
{
closed = 1;
nodes = (
(266,423,o),
(268,437,o),
(262,446,cs),
(256,453,o),
(244,456,o),
(229,447,cs),
(99,363,ls),
(83,352,o),
(80,338,o),
(87,330,cs),
(92,322,o),
(104,320,o),
(120,329,cs),
(250,413,ls)
);
},
{
closed = 1;
nodes = (
(233,321,o),
(246,323,o),
(253,331,cs),
(257,338,o),
(256,350,o),
(243,360,cs),
(129,445,ls),
(116,455,o),
(104,453,o),
(99,445,cs),
(92,438,o),
(93,425,o),
(107,415,cs),
(220,331,ls)
);
},
{
closed = 1;
nodes = (
(203,480,o),
(195,489,o),
(186,489,cs),
(176,489,o),
(164,480,o),
(162,462,cs),
(147,314,ls),
(145,297,o),
(153,289,o),
(162,287,cs),
(172,286,o),
(184,295,o),
(186,314,cs),
(201,462,ls)
);
}
);
width = 302;
},
{
layerId = m002;
shapes = (
{
closed = 1;
nodes = (
(321,402,o),
(330,425,o),
(315,449,cs),
(303,465,o),
(273,473,o),
(250,459,cs),
(120,381,l),
(99,366,o),
(88,343,o),
(101,322,cs),
(112,303,o),
(143,295,o),
(170,311,cs),
(295,386,ls)
);
},
{
closed = 1;
nodes = (
(269,302,o),
(298,307,o),
(309,324,cs),
(320,343,o),
(317,364,o),
(292,381,cs),
(179,460,ls),
(156,476,o),
(127,471,o),
(115,454,cs),
(102,435,o),
(107,413,o),
(132,395,cs),
(242,318,l)
);
},
{
closed = 1;
nodes = (
(266,488,o),
(244,508,o),
(220,508,cs),
(199,508,o),
(177,491,o),
(174,464,cs),
(159,322,ls),
(156,293,o),
(174,276,o),
(195,271,cs),
(217,266,o),
(245,283,o),
(248,314,cs),
(263,456,ls)
);
}
);
width = 377;
}
);
metricLeft = N;
metricRight = N;
},
{
glyphname = hyphen;
lastChange = "2022-03-08 22:52:02 +0000";
layers = (
{
layerId = m01;
shapes = (
{
closed = 1;
nodes = (
(262,175,o),
(270,186,o),
(269,198,cs),
(268,209,o),
(259,220,o),
(241,220,cs),
(93,220,ls),
(74,220,o),
(65,208,o),
(67,196,cs),
(69,185,o),
(79,175,o),
(96,175,cs),
(244,175,ls)
);
}
);
width = 331;
},
{
layerId = m002;
shapes = (
{
closed = 1;
nodes = (
(317,153,o),
(337,173,o),
(335,198,cs),
(333,222,o),
(311,242,o),
(280,242,cs),
(132,242,ls),
(99,242,o),
(80,220,o),
(83,194,cs),
(87,171,o),
(109,153,o),
(138,153,cs),
(286,153,ls)
);
}
);
width = 413;
}
);
metricLeft = n;
metricRight = n;
unicode = 45;
},
{
glyphname = endash;
lastChange = "2022-03-08 22:52:02 +0000";
layers = (
{
layerId = m01;
shapes = (
{
closed = 1;
nodes = (
(341,175,o),
(349,187,o),
(348,199,cs),
(347,210,o),
(338,220,o),
(320,220,cs),
(93,220,ls),
(75,220,o),
(66,210,o),
(67,199,cs),
(68,187,o),
(78,175,o),
(96,175,cs),
(323,175,ls)
);
}
);
width = 410;
},
{
layerId = m002;
shapes = (
{
closed = 1;
nodes = (
(396,153,o),
(416,174,o),
(414,199,cs),
(412,223,o),
(390,242,o),
(359,242,cs),
(132,242,ls),
(101,242,o),
(81,223,o),
(83,199,cs),
(85,174,o),
(107,153,o),
(138,153,cs),
(365,153,ls)
);
}
);
width = 492;
}
);
metricLeft = n;
metricRight = n;
unicode = 8211;
},
{
glyphname = emdash;
lastChange = "2022-03-08 22:52:02 +0000";
layers = (
{
layerId = m01;
shapes = (
{
closed = 1;
nodes = (
(442,175,o),
(452,187,o),
(451,199,cs),
(450,209,o),
(440,220,o),
(419,220,cs),
(96,220,ls),
(76,220,o),
(66,209,o),
(67,199,cs),
(68,187,o),
(80,175,o),
(99,175,cs),
(422,175,ls)
);
}
);
width = 513;
},
{
layerId = m002;
shapes = (
{
closed = 1;
nodes = (
(497,153,o),
(519,174,o),
(517,199,cs),
(515,222,o),
(492,242,o),
(458,242,cs),
(135,242,ls),
(102,242,o),
(81,222,o),
(83,199,cs),
(85,174,o),
(109,153,o),
(141,153,cs),
(464,153,ls)
);
}
);
width = 595;
}
);
metricLeft = n;
metricRight = n;
unicode = 8212;
},
{
glyphname = underscore;
lastChange = "2022-03-08 22:52:02 +0000";
layers = (
{
layerId = m01;
shapes = (
{
closed = 1;
nodes = (
(375,-77,o),
(384,-66,o),
(383,-54,cs),
(382,-43,o),
(372,-32,o),
(354,-32,cs),
(65,-32,ls),
(46,-32,o),
(39,-43,o),
(40,-55,cs),
(41,-66,o),
(51,-77,o),
(68,-77,cs),
(357,-77,ls)
);
}
);
width = 471;
},
{
layerId = m002;
shapes = (
{
closed = 1;
nodes = (
(432,-99,o),
(452,-79,o),
(450,-54,cs),
(448,-30,o),
(426,-10,o),
(395,-10,cs),
(106,-10,ls),
(74,-10,o),
(55,-30,o),
(57,-55,cs),
(59,-79,o),
(82,-99,o),
(112,-99,cs),
(401,-99,ls)
);
}
);
width = 555;
}
);
metricLeft = n;
metricRight = n;
unicode = 95;
},
{
glyphname = parenleft;
lastChange = "2022-03-08 22:52:02 +0000";
layers = (
{
layerId = m01;
shapes = (
{
closed = 1;
nodes = (
(241,-292,o),
(241,-278,o),
(232,-261,cs),
(134,-81,o),
(110,77,o),
(125,219,cs),
(139,347,o),
(205,480,o),
(323,607,cs),
(339,625,o),
(340,639,o),
(333,646,cs),
(324,654,o),
(306,651,o),
(288,633,cs),
(165,506,o),
(80,329,o),
(69,219,cs),
(55,94,o),
(95,-101,o),
(198,-283,cs),
(207,-299,o),
(223,-303,o),
(234,-297,cs)
);
}
);
width = 353;
},
{
layerId = m002;
shapes = (
{
closed = 1;
nodes = (
(300,-283,o),
(303,-264,o),
(289,-235,c),
(197,-66,o),
(174,80,o),
(189,213,cs),
(202,333,o),
(263,456,o),
(373,574,cs),
(402,605,o),
(395,628,o),
(380,643,cs),
(364,658,o),
(331,659,o),
(302,631,cs),
(179,505,o),
(96,330,o),
(85,221,cs),
(72,96,o),
(111,-95,o),
(212,-275,cs),
(229,-303,o),
(266,-310,o),
(286,-295,cs)
);
}
);
width = 427;
}
);
metricLeft = O;
metricRight = N;
unicode = 40;
},
{
glyphname = parenright;
lastChange = "2022-03-09 00:19:28 +0000";
layers = (
{
layerId = m01;
shapes = (
{
closed = 1;
nodes = (
(32,-284,o),
(49,-285,o),
(61,-273,cs),
(197,-133,o),
(276,42,o),
(290,167,cs),
(302,276,o),
(258,476,o),
(165,640,cs),
(151,664,o),
(135,673,o),
(124,668,cs),
(116,664,o),
(114,650,o),
(126,627,cs),
(212,465,o),
(249,314,o),
(236,186,cs),
(221,44,o),
(165,-100,o),
(32,-240,cs),
(20,-253,o),
(17,-267,o),
(23,-274,cs)
);
}
);
width = 337;
},
{
layerId = m002;
shapes = (
{
closed = 1;
nodes = (
(253,-132,o),
(330,41,o),
(345,164,cs),
(355,274,o),
(313,469,o),
(222,631,cs),
(198,669,o),
(169,679,o),
(147,669,cs),
(130,660,o),
(119,640,o),
(139,601,cs),
(221,448,o),
(254,309,o),
(242,190,cs),
(228,56,o),
(176,-76,o),
(53,-207,cs),
(35,-225,o),
(26,-249,o),
(43,-267,cs),
(60,-289,o),
(97,-291,o),
(117,-270,cs)
);
}
);
width = 396;
}
);
metricLeft = N;
metricRight = O;
unicode = 41;
},
{
glyphname = braceleft;
lastChange = "2022-03-08 22:52:02 +0000";
layers = (
{
layerId = m01;
shapes = (
{
closed = 1;
nodes = (
(151,237,o),
(162,268,o),
(167,312,cs),
(172,365,o),
(150,476,o),
(166,535,cs),
(181,585,o),
(225,606,o),
(256,617,cs),
(269,622,o),
(272,631,o),
(267,642,cs),
(261,655,o),
(245,649,o),
(232,644,cs),
(204,630,o),
(148,603,o),
(132,551,cs),
(115,489,o),
(136,376,o),
(130,318,cs),
(125,290,o),
(114,265,o),
(91,241,cs),
(79,229,o),
(69,222,o),
(69,206,c),
(113,198,l)
);
},
{
closed = 1;
nodes = (
(70,188,o),
(77,179,o),
(87,163,cs),
(105,130,o),
(112,101,o),
(111,72,cs),
(108,15,o),
(71,-93,o),
(78,-159,cs),
(85,-216,o),
(124,-266,o),
(150,-293,cs),
(162,-305,o),
(175,-309,o),
(182,-299,cs),
(189,-290,o),
(181,-281,o),
(170,-271,cs),
(141,-244,o),
(120,-211,o),
(114,-157,cs),
(108,-94,o),
(146,10,o),
(149,64,cs),
(150,108,o),
(144,145,o),
(113,198,c),
(69,206,l)
);
}
);
width = 298;
},
{
layerId = m002;
shapes = (
{
closed = 1;
nodes = (
(205,219,o),
(217,255,o),
(223,302,cs),
(228,357,o),
(207,459,o),
(221,511,cs),
(234,552,o),
(267,567,o),
(296,576,cs),
(318,585,o),
(329,605,o),
(317,628,cs),
(305,656,o),
(272,652,o),
(250,642,cs),
(222,629,o),
(158,599,o),
(141,540,cs),
(124,475,o),
(142,369,o),
(137,316,cs),
(133,291,o),
(124,273,o),
(106,254,cs),
(87,235,o),
(76,225,o),
(85,187,c),
(156,173,l)
);
},
{
closed = 1;
nodes = (
(75,182,o),
(88,172,o),
(99,153,cs),
(114,126,o),
(120,103,o),
(118,79,cs),
(115,26,o),
(77,-75,o),
(85,-143,cs),
(92,-203,o),
(133,-256,o),
(162,-285,cs),
(187,-311,o),
(218,-308,o),
(230,-289,cs),
(246,-268,o),
(233,-252,o),
(216,-235,cs),
(191,-211,o),
(174,-187,o),
(169,-139,cs),
(164,-83,o),
(203,12,o),
(204,66,cs),
(207,114,o),
(198,155,o),
(163,216,c),
(84,224,l)
);
}
);
width = 364;
}
);
metricLeft = N;
metricRight = N;
unicode = 123;
},
{
glyphname = braceright;
lastChange = "2022-03-08 22:52:02 +0000";
layers = (
{
layerId = m01;
shapes = (
{
closed = 1;
nodes = (
(142,125,o),
(129,91,o),
(123,48,cs),
(114,-5,o),
(131,-119,o),
(113,-178,cs),
(97,-228,o),
(71,-253,o),
(37,-270,cs),
(25,-276,o),
(15,-282,o),
(20,-293,cs),
(25,-305,o),
(38,-305,o),
(52,-297,cs),
(83,-280,o),
(130,-244,o),
(147,-191,cs),
(168,-130,o),
(152,-13,o),
(160,43,cs),
(165,72,o),
(177,97,o),
(201,123,cs),
(213,136,o),
(222,142,o),
(227,159,c),
(182,166,l)
);
},
{
closed = 1;
nodes = (
(229,175,o),
(221,185,o),
(212,200,cs),
(194,231,o),
(189,259,o),
(189,288,cs),
(195,346,o),
(237,448,o),
(231,514,cs),
(226,569,o),
(177,614,o),
(153,636,cs),
(141,645,o),
(126,657,o),
(118,646,cs),
(111,637,o),
(113,627,o),
(125,618,cs),
(152,597,o),
(191,563,o),
(196,509,cs),
(200,447,o),
(157,347,o),
(151,294,cs),
(148,250,o),
(153,216,o),
(182,166,c),
(227,159,l)
);
}
);
width = 293;
},
{
layerId = m002;
shapes = (
{
closed = 1;
nodes = (
(158,139,o),
(143,101,o),
(136,55,cs),
(128,0,o),
(140,-99,o),
(125,-151,cs),
(110,-195,o),
(91,-213,o),
(63,-227,cs),
(39,-240,o),
(27,-254,o),
(35,-275,cs),
(44,-300,o),
(78,-309,o),
(104,-291,c),
(137,-273,o),
(186,-235,o),
(205,-179,cs),
(226,-116,o),
(214,-10,o),
(221,40,cs),
(226,66,o),
(235,85,o),
(256,107,cs),
(268,122,o),
(284,130,o),
(284,175,c),
(208,187,l)
);
},
{
closed = 1;
nodes = (
(292,171,o),
(283,182,o),
(269,205,cs),
(254,231,o),
(249,253,o),
(250,278,c),
(256,332,o),
(296,430,o),
(290,497,cs),
(285,558,o),
(233,607,o),
(206,630,cs),
(184,648,o),
(152,662,o),
(135,637,cs),
(122,618,o),
(125,598,o),
(148,580,cs),
(173,562,o),
(202,536,o),
(207,493,cs),
(209,437,o),
(169,343,o),
(163,289,cs),
(159,241,o),
(166,202,o),
(203,143,c),
(276,132,l)
);
}
);
width = 365;
}
);
metricLeft = N;
metricRight = N;
unicode = 125;
},
{
glyphname = bracketleft;
lastChange = "2022-03-08 22:52:02 +0000";
layers = (
{
layerId = m01;
shapes = (
{
closed = 1;
nodes = (
(167,636,o),
(166,650,o),
(145,650,cs),
(124,650,o),
(116,639,o),
(114,623,cs),
(19,-273,ls),
(17,-288,o),
(26,-300,o),
(46,-300,cs),
(68,-300,o),
(69,-283,o),
(70,-273,cs),
(165,618,ls)
);
},
{
closed = 1;
nodes = (
(188,-300,ls),
(205,-300,o),
(213,-288,o),
(212,-277,cs),
(212,-266,o),
(203,-255,o),
(185,-255,cs),
(46,-255,l),
(43,-300,l)
);
},
{
closed = 1;
nodes = (
(284,605,ls),
(301,605,o),
(309,616,o),
(309,627,cs),
(309,638,o),
(300,650,o),
(281,650,cs),
(143,650,l),
(141,605,l)
);
}
);
width = 326;
},
{
layerId = m002;
shapes = (
{
closed = 1;
nodes = (
(229,640,o),
(204,650,o),
(177,650,cs),
(147,650,o),
(127,637,o),
(124,609,cs),
(33,-251,ls),
(30,-279,o),
(51,-300,o),
(85,-300,cs),
(118,-300,o),
(131,-278,o),
(134,-255,cs),
(225,600,ls)
);
},
{
closed = 1;
nodes = (
(221,-300,ls),
(251,-300,o),
(267,-284,o),
(270,-258,cs),
(273,-230,o),
(246,-215,o),
(215,-215,cs),
(89,-215,l),
(83,-300,l)
);
},
{
closed = 1;
nodes = (
(313,565,ls),
(341,565,o),
(359,582,o),
(362,605,cs),
(365,633,o),
(337,650,o),
(308,650,cs),
(175,650,l),
(170,565,l)
);
}
);
width = 397;
}
);
metricLeft = N;
metricRight = N;
unicode = 91;
},
{
glyphname = bracketright;
lastChange = "2022-03-08 22:52:02 +0000";
layers = (
{
layerId = m01;
shapes = (
{
closed = 1;
nodes = (
(310,638,o),
(302,650,o),
(282,650,cs),
(260,650,o),
(259,634,o),
(257,624,cs),
(163,-268,ls),
(161,-286,o),
(162,-300,o),
(183,-300,c),
(205,-300,o),
(211,-289,o),
(213,-273,cs),
(308,623,ls)
);
},
{
closed = 1;
nodes = (
(190,-255,l),
(45,-255,ls),
(28,-255,o),
(19,-266,o),
(19,-277,cs),
(20,-289,o),
(29,-300,o),
(48,-300,cs),
(186,-300,l)
);
},
{
closed = 1;
nodes = (
(286,650,l),
(141,650,ls),
(123,650,o),
(114,638,o),
(115,627,cs),
(116,616,o),
(126,605,o),
(144,605,cs),
(281,605,l)
);
}
);
width = 325;
},
{
layerId = m002;
shapes = (
{
closed = 1;
nodes = (
(364,629,o),
(343,650,o),
(309,650,cs),
(275,650,o),
(263,632,o),
(260,610,cs),
(169,-246,ls),
(164,-291,o),
(190,-300,o),
(217,-300,cs),
(248,-300,o),
(266,-287,o),
(269,-259,cs),
(361,601,ls)
);
},
{
closed = 1;
nodes = (
(226,-215,l),
(81,-215,ls),
(55,-215,o),
(35,-233,o),
(33,-257,cs),
(31,-281,o),
(53,-300,o),
(87,-300,cs),
(218,-300,l)
);
},
{
closed = 1;
nodes = (
(310,650,l),
(174,650,ls),
(143,650,o),
(128,634,o),
(125,607,cs),
(122,583,o),
(148,565,o),
(179,565,cs),
(299,565,l)
);
}
);
width = 396;
}
);
metricLeft = N;
metricRight = N;
unicode = 93;
},
{
glyphname = quotedbl;
lastChange = "2022-03-08 22:52:02 +0000";
layers = (
{
layerId = m01;
shapes = (
{
closed = 1;
nodes = (
(167,640,o),
(154,650,o),
(141,650,cs),
(129,650,o),
(115,641,o),
(113,624,cs),
(103,528,ls),
(101,510,o),
(114,500,o),
(127,500,cs),
(139,500,o),
(152,508,o),
(154,524,cs),
(165,620,ls)
);
},
{
closed = 1;
nodes = (
(274,640,o),
(262,650,o),
(248,650,cs),
(236,650,o),
(224,642,o),
(222,628,cs),
(211,528,ls),
(209,509,o),
(222,500,o),
(236,500,cs),
(248,500,o),
(262,507,o),
(263,521,cs),
(273,620,ls)
);
}
);
width = 291;
},
{
layerId = m002;
shapes = (
{
closed = 1;
nodes = (
(387,629,o),
(360,650,o),
(332,650,cs),
(309,650,o),
(286,635,o),
(282,610,cs),
(271,510,ls),
(267,472,o),
(299,456,o),
(323,456,cs),
(345,456,o),
(371,470,o),
(373,496,cs),
(383,595,ls)
);
},
{
closed = 1;
nodes = (
(228,628,o),
(203,650,o),
(175,650,cs),
(152,650,o),
(127,634,o),
(124,606,cs),
(113,510,ls),
(110,477,o),
(136,456,o),
(164,456,cs),
(187,456,o),
(211,471,o),
(214,498,cs),
(224,594,ls)
);
}
);
width = 419;
}
);
metricLeft = N;
metricRight = N;
unicode = 34;
},
{
glyphname = quotesingle;
lastChange = "2022-03-08 22:52:02 +0000";
layers = (
{
layerId = m01;
shapes = (
{
closed = 1;
nodes = (
(166,640,o),
(154,650,o),
(140,650,cs),
(128,650,o),
(116,642,o),
(114,628,cs),
(103,528,ls),
(101,509,o),
(114,500,o),
(128,500,cs),
(140,500,o),
(154,507,o),
(155,521,cs),
(165,620,ls)
);
}
);
width = 183;
},
{
layerId = m002;
shapes = (
{
closed = 1;
nodes = (
(228,629,o),
(202,650,o),
(174,650,cs),
(151,650,o),
(129,635,o),
(124,610,cs),
(113,510,ls),
(110,472,o),
(141,456,o),
(165,456,cs),
(187,456,o),
(213,470,o),
(215,496,cs),
(225,595,ls)
);
}
);
width = 261;
}
);
metricLeft = N;
metricRight = N;
unicode = 39;
},
{
glyphname = quotedbl.c2sc;
lastChange = "2022-03-08 22:52:02 +0000";
layers = (
{
layerId = m01;
shapes = (
{
closed = 1;
nodes = (
(147,448,o),
(134,458,o),
(121,458,cs),
(109,458,o),
(95,449,o),
(93,432,cs),
(83,336,ls),
(81,318,o),
(94,308,o),
(107,308,cs),
(119,308,o),
(132,316,o),
(134,332,cs),
(145,428,ls)
);
},
{
closed = 1;
nodes = (
(254,448,o),
(242,458,o),
(228,458,cs),
(216,458,o),
(204,450,o),
(202,436,cs),
(191,336,ls),
(189,317,o),
(202,308,o),
(216,308,cs),
(228,308,o),
(242,315,o),
(243,329,cs),
(253,428,ls)
);
}
);
width = 291;
},
{
layerId = m002;
shapes = (
{
closed = 1;
nodes = (
(370,461,o),
(343,482,o),
(315,482,cs),
(292,482,o),
(269,467,o),
(265,442,cs),
(254,342,ls),
(250,304,o),
(282,288,o),
(306,288,cs),
(328,288,o),
(354,302,o),
(356,328,cs),
(366,427,ls)
);
},
{
closed = 1;
nodes = (
(211,460,o),
(186,482,o),
(158,482,cs),
(135,482,o),
(110,466,o),
(107,438,cs),
(96,342,ls),
(93,309,o),
(119,288,o),
(147,288,cs),
(170,288,o),
(194,303,o),
(197,330,cs),
(207,426,ls)
);
}
);
width = 420;
}
);
metricLeft = N;
metricRight = N;
},
{
glyphname = quotesingle.c2sc;
lastChange = "2022-03-08 22:52:02 +0000";
layers = (
{
layerId = m01;
shapes = (
{
closed = 1;
nodes = (
(146,448,o),
(134,458,o),
(120,458,cs),
(108,458,o),
(96,450,o),
(94,436,cs),
(83,336,ls),
(81,317,o),
(94,308,o),
(108,308,cs),
(120,308,o),
(134,315,o),
(135,329,cs),
(145,428,ls)
);
}
);
width = 183;
},
{
layerId = m002;
shapes = (
{
closed = 1;
nodes = (
(210,458,o),
(184,479,o),
(156,479,cs),
(133,479,o),
(111,464,o),
(106,439,cs),
(95,339,ls),
(92,301,o),
(123,285,o),
(147,285,cs),
(169,285,o),
(195,299,o),
(197,325,cs),
(207,424,ls)
);
}
);
width = 261;
}
);
metricLeft = N;
metricRight = N;
},
{
glyphname = at;
lastChange = "2022-03-08 22:52:02 +0000";
layers = (
{
layerId = m01;
shapes = (
{
closed = 1;
nodes = (
(641,153,o),
(653,204,o),
(654,238,cs),
(665,403,o),
(577,476,o),
(420,476,cs),
(330,476,o),
(231,458,o),
(177,418,cs),
(93,356,o),
(59,228,o),
(53,124,cs),
(44,-20,o),
(104,-118,o),
(251,-118,cs),
(305,-118,o),
(346,-105,o),
(378,-84,cs),
(414,-60,o),
(421,-36,o),
(409,-22,cs),
(400,-11,o),
(387,-15,o),
(367,-29,cs),
(325,-60,o),
(281,-68,o),
(244,-68,cs),
(133,-68,o),
(94,4,o),
(104,123,cs),
(111,192,o),
(131,317,o),
(206,375,cs),
(249,409,o),
(337,426,o),
(421,426,cs),
(543,426,o),
(611,379,o),
(606,256,cs),
(604,214,o),
(590,166,o),
(564,125,c),
(607,98,l)
);
},
{
closed = 1;
nodes = (
(447,300,l),
(422,253,o),
(393,204,o),
(355,152,cs),
(300,76,o),
(265,46,o),
(246,46,cs),
(232,46,o),
(231,61,o),
(230,77,cs),
(227,115,o),
(239,205,o),
(262,244,cs),
(289,289,o),
(339,299,o),
(373,299,cs),
(380,299,o),
(448,299,o),
(456,299,c),
(467,299,l),
(467,301,o),
(464,346,o),
(464,349,c),
(452,349,o),
(390,349,o),
(370,349,cs),
(313,349,o),
(255,332,o),
(221,275,cs),
(192,227,o),
(176,130,o),
(180,72,cs),
(184,21,o),
(208,0,o),
(241,0,cs),
(299,0,o),
(345,49,o),
(383,101,cs),
(427,162,o),
(469,239,o),
(489,291,cs),
(492,300,l)
);
},
{
closed = 1;
nodes = (
(545,92,o),
(504,48,o),
(488,48,cs),
(477,48,o),
(478,66,o),
(478,78,cs),
(476,93,o),
(479,124,o),
(480,132,cs),
(501,327,ls),
(503,343,o),
(497,349,o),
(482,349,cs),
(452,349,l),
(430,146,ls),
(427,122,o),
(426,95,o),
(428,75,cs),
(431,26,o),
(450,0,o),
(486,0,cs),
(539,0,o),
(579,54,o),
(612,105,c),
(571,135,l)
);
}
);
width = 697;
},
{
layerId = m002;
shapes = (
{
closed = 1;
nodes = (
(645,131,o),
(657,193,o),
(660,228,cs),
(678,391,o),
(592,487,o),
(410,487,cs),
(327,487,o),
(224,473,o),
(159,423,cs),
(70,353,o),
(45,227,o),
(36,134,cs),
(21,-4,o),
(71,-128,o),
(250,-128,cs),
(302,-128,o),
(346,-116,o),
(376,-96,cs),
(424,-65,o),
(420,-43,o),
(402,-19,cs),
(391,-4,o),
(366,9,o),
(336,-12,cs),
(303,-36,o),
(270,-40,o),
(240,-40,cs),
(160,-40,o),
(120,28,o),
(130,127,cs),
(136,186,o),
(149,295,o),
(217,349,cs),
(266,389,o),
(343,397,o),
(414,397,cs),
(542,397,o),
(577,348,o),
(567,249,cs),
(562,208,o),
(546,160,o),
(515,118,c),
(595,69,l)
);
},
{
closed = 1;
nodes = (
(432,303,l),
(408,258,o),
(382,211,o),
(348,163,cs),
(299,97,o),
(278,86,o),
(273,86,cs),
(268,86,o),
(267,105,o),
(266,110,cs),
(265,133,o),
(274,195,o),
(291,225,cs),
(311,258,o),
(343,265,o),
(367,265,cs),
(373,265,o),
(433,265,o),
(440,265,cs),
(474,265,l),
(473,289,o),
(470,328,o),
(469,350,c),
(446,350,o),
(381,350,o),
(362,350,cs),
(307,350,o),
(245,335,o),
(211,276,cs),
(184,229,o),
(170,139,o),
(174,85,cs),
(178,25,o),
(197,-2,o),
(238,-2,cs),
(301,-2,o),
(359,52,o),
(394,97,cs),
(433,153,o),
(479,223,o),
(491,269,cs),
(501,307,l)
);
},
{
closed = 1;
nodes = (
(520,116,o),
(494,111,o),
(490,111,cs),
(483,111,o),
(483,121,o),
(484,131,cs),
(485,143,o),
(488,169,o),
(489,175,cs),
(504,305,ls),
(507,333,o),
(488,350,o),
(460,350,cs),
(413,350,l),
(390,153,ls),
(388,132,o),
(388,106,o),
(389,87,cs),
(393,27,o),
(431,-1,o),
(474,-1,cs),
(542,-1,o),
(598,60,o),
(622,113,c),
(543,166,l)
);
}
);
width = 689;
}
);
metricLeft = o;
metricRight = "=o-5";
unicode = 64;
},
{
glyphname = ampersand;
lastChange = "2022-03-09 00:19:28 +0000";
layers = (
{
layerId = m01;
shapes = (
{
closed = 1;
nodes = (
(411,4,o),
(429,-7,o),
(444,4,cs),
(456,14,o),
(452,29,o),
(443,41,cs),
(234,317,l),
(164,324,l),
(106,279,o),
(69,227,o),
(64,178,cs),
(55,103,o),
(116,-4,o),
(236,-4,cs),
(326,-4,o),
(361,56,o),
(421,169,c),
(428,181,o),
(423,195,o),
(411,201,cs),
(398,208,o),
(383,203,o),
(375,190,c),
(320,96,o),
(302,46,o),
(233,46,cs),
(159,46,o),
(106,103,o),
(113,164,cs),
(118,205,o),
(150,249,o),
(198,285,c),
(403,14,ls)
);
},
{
closed = 1;
nodes = (
(196,363,o),
(146,424,o),
(144,455,cs),
(142,487,o),
(186,518,o),
(243,518,cs),
(287,518,o),
(305,500,o),
(310,486,cs),
(322,449,o),
(254,383,o),
(158,319,c),
(234,309,l),
(317,371,o),
(380,432,o),
(355,500,cs),
(339,547,o),
(292,568,o),
(239,568,cs),
(151,568,o),
(90,510,o),
(94,453,cs),
(98,403,o),
(151,342,o),
(175,309,c),
(217,335,l)
);
}
);
width = 514;
},
{
layerId = m002;
shapes = (
{
closed = 1;
nodes = (
(414,3,o),
(451,-9,o),
(473,8,cs),
(497,27,o),
(490,52,o),
(475,73,cs),
(278,335,l),
(190,344,l),
(129,297,o),
(88,243,o),
(82,190,cs),
(72,108,o),
(140,-4,o),
(267,-4,cs),
(366,-4,o),
(404,63,o),
(458,168,cs),
(471,190,o),
(461,213,o),
(439,225,cs),
(416,238,o),
(385,231,o),
(371,209,cs),
(320,120,o),
(308,86,o),
(261,86,cs),
(205,86,o),
(171,123,o),
(177,169,cs),
(180,197,o),
(198,225,o),
(227,251,c),
(399,23,ls)
);
},
{
closed = 1;
nodes = (
(248,369,o),
(208,419,o),
(206,441,cs),
(205,460,o),
(229,478,o),
(274,478,cs),
(301,478,o),
(308,473,o),
(310,465,cs),
(318,438,o),
(257,386,o),
(167,333,c),
(273,284,l),
(355,344,o),
(427,409,o),
(399,489,cs),
(380,543,o),
(324,568,o),
(267,568,cs),
(172,568,o),
(106,504,o),
(110,439,cs),
(114,386,o),
(167,325,o),
(204,276,c),
(282,325,l)
);
}
);
width = 553;
}
);
metricLeft = O;
metricRight = O;
unicode = 38;
},
{
glyphname = degree;
lastChange = "2022-03-09 00:19:28 +0000";
layers = (
{
layerId = m01;
shapes = (
{
closed = 1;
nodes = (
(214,433,o),
(273,532,o),
(268,595,cs),
(266,634,o),
(241,655,o),
(196,655,cs),
(159,655,o),
(135,630,o),
(122,604,cs),
(112,583,o),
(98,543,o),
(101,496,cs),
(105,449,o),
(123,433,o),
(150,433,cs)
);
},
{
closed = 1;
nodes = (
(142,472,o),
(141,486,o),
(140,503,cs),
(138,530,o),
(148,559,o),
(160,588,c),
(170,608,o),
(180,615,o),
(197,615,cs),
(219,615,o),
(227,609,o),
(229,588,cs),
(232,550,o),
(185,472,o),
(154,472,cs)
);
}
);
width = 272;
},
{
layerId = m002;
shapes = (
{
closed = 1;
nodes = (
(264,398,o),
(327,508,o),
(323,577,cs),
(319,625,o),
(285,654,o),
(229,654,cs),
(180,654,o),
(151,621,o),
(137,593,cs),
(126,573,o),
(112,528,o),
(116,478,cs),
(120,410,o),
(157,398,o),
(185,398,cs)
);
},
{
closed = 1;
nodes = (
(193,476,o),
(190,492,o),
(190,504,cs),
(191,524,o),
(196,543,o),
(205,562,cs),
(212,577,o),
(221,580,o),
(231,580,cs),
(242,580,o),
(243,571,o),
(243,555,cs),
(243,523,o),
(215,476,o),
(197,476,cs)
);
}
);
width = 332;
}
);
metricLeft = O;
metricRight = O;
unicode = 176;
},
{
glyphname = bar;
lastChange = "2022-03-08 22:52:02 +0000";
layers = (
{
layerId = m01;
shapes = (
{
closed = 1;
nodes = (
(173,690,o),
(161,700,o),
(148,700,cs),
(136,700,o),
(122,690,o),
(120,672,cs),
(19,-273,ls),
(17,-288,o),
(27,-300,o),
(45,-300,cs),
(67,-300,o),
(69,-285,o),
(70,-275,cs),
(170,668,ls)
);
}
);
width = 182;
},
{
layerId = m002;
shapes = (
{
closed = 1;
nodes = (
(233,681,o),
(209,702,o),
(181,702,cs),
(159,702,o),
(134,685,o),
(131,657,cs),
(33,-250,ls),
(29,-278,o),
(53,-302,o),
(85,-302,cs),
(119,-302,o),
(130,-281,o),
(133,-260,c),
(230,645,ls)
);
}
);
width = 261;
}
);
metricLeft = N;
metricRight = N;
unicode = 124;
},
{
glyphname = brokenbar;
lastChange = "2022-03-08 22:52:02 +0000";
layers = (
{
layerId = m01;
shapes = (
{
closed = 1;
nodes = (
(115,152,o),
(104,162,o),
(92,162,cs),
(79,162,o),
(64,152,o),
(63,135,cs),
(19,-273,ls),
(17,-288,o),
(27,-300,o),
(45,-300,cs),
(67,-300,o),
(69,-285,o),
(70,-275,cs),
(114,135,ls)
);
},
{
closed = 1;
nodes = (
(173,690,o),
(161,700,o),
(148,700,cs),
(136,700,o),
(122,690,o),
(120,672,cs),
(76,266,ls),
(75,249,o),
(86,238,o),
(99,239,cs),
(112,239,o),
(126,249,o),
(127,266,cs),
(170,668,ls)
);
}
);
width = 182;
},
{
layerId = m002;
shapes = (
{
closed = 1;
nodes = (
(176,141,o),
(153,163,o),
(126,163,cs),
(103,163,o),
(77,146,o),
(74,119,cs),
(34,-248,ls),
(31,-276,o),
(54,-300,o),
(86,-300,cs),
(120,-300,o),
(132,-279,o),
(134,-258,cs),
(173,111,ls)
);
},
{
closed = 1;
nodes = (
(234,679,o),
(209,700,o),
(181,700,cs),
(159,700,o),
(134,683,o),
(131,655,cs),
(92,290,ls),
(88,259,o),
(113,236,o),
(141,238,cs),
(164,239,o),
(188,256,o),
(191,282,cs),
(230,643,ls)
);
}
);
width = 261;
}
);
metricLeft = N;
metricRight = N;
unicode = 166;
},
{
glyphname = degree.c2sc;
lastChange = "2022-03-09 00:19:28 +0000";
layers = (
{
layerId = m01;
shapes = (
{
closed = 1;
nodes = (
(197,272,o),
(256,371,o),
(251,434,cs),
(249,473,o),
(224,494,o),
(179,494,cs),
(142,494,o),
(118,469,o),
(105,443,cs),
(95,422,o),
(81,382,o),
(84,335,cs),
(88,288,o),
(106,272,o),
(133,272,cs)
);
},
{
closed = 1;
nodes = (
(125,311,o),
(124,325,o),
(123,342,cs),
(121,369,o),
(131,398,o),
(143,427,c),
(153,447,o),
(163,454,o),
(180,454,cs),
(202,454,o),
(210,448,o),
(212,427,cs),
(215,389,o),
(168,311,o),
(137,311,cs)
);
}
);
width = 272;
},
{
layerId = m002;
shapes = (
{
closed = 1;
nodes = (
(249,255,o),
(312,365,o),
(308,434,cs),
(304,482,o),
(270,511,o),
(214,511,cs),
(165,511,o),
(136,478,o),
(122,450,cs),
(111,430,o),
(97,385,o),
(101,335,cs),
(105,267,o),
(142,255,o),
(170,255,cs)
);
},
{
closed = 1;
nodes = (
(178,333,o),
(175,349,o),
(175,361,cs),
(176,381,o),
(181,400,o),
(190,419,cs),
(197,434,o),
(206,437,o),
(216,437,cs),
(227,437,o),
(228,428,o),
(228,412,cs),
(228,380,o),
(200,333,o),
(182,333,cs)
);
}
);
width = 332;
}
);
metricLeft = O;
metricRight = O;
},
{
glyphname = dollar;
lastChange = "2022-03-09 00:19:28 +0000";
layers = (
{
layerId = m01;
shapes = (
{
closed = 1;
nodes = (
(278,0,o),
(451,17,o),
(441,153,cs),
(435,236,o),
(370,262,o),
(280,312,cs),
(212,350,o),
(144,381,o),
(141,425,cs),
(137,482,o),
(244,519,o),
(321,519,cs),
(464,519,ls),
(479,519,o),
(486,532,o),
(485,545,cs),
(484,557,o),
(475,569,o),
(456,569,cs),
(318,569,ls),
(186,569,o),
(86,503,o),
(92,420,cs),
(97,349,o),
(176,315,o),
(257,269,cs),
(336,225,o),
(388,206,o),
(391,152,cs),
(398,57,o),
(242,50,o),
(177,50,cs),
(74,50,ls),
(58,50,o),
(47,37,o),
(48,24,cs),
(49,12,o),
(58,0,o),
(77,0,cs),
(180,0,ls)
);
},
{
closed = 1;
nodes = (
(334,639,o),
(324,650,o),
(312,650,cs),
(301,650,o),
(288,641,o),
(287,622,cs),
(215,-52,ls),
(213,-71,o),
(224,-80,o),
(235,-80,cs),
(246,-80,o),
(258,-71,o),
(260,-54,cs),
(332,618,ls)
);
}
);
width = 493;
},
{
layerId = m002;
shapes = (
{
closed = 1;
nodes = (
(312,-4,o),
(497,13,o),
(487,161,cs),
(480,253,o),
(405,282,o),
(322,329,cs),
(257,365,o),
(207,388,o),
(205,417,cs),
(202,455,o),
(283,477,o),
(351,477,cs),
(485,477,ls),
(512,477,o),
(530,498,o),
(528,523,cs),
(527,548,o),
(505,568,o),
(474,568,cs),
(345,568,ls),
(210,568,o),
(102,504,o),
(108,412,cs),
(114,331,o),
(201,294,o),
(277,251,cs),
(353,209,o),
(387,197,o),
(390,160,cs),
(395,92,o),
(271,87,o),
(211,87,cs),
(115,87,ls),
(87,87,o),
(65,66,o),
(67,41,cs),
(69,16,o),
(90,-4,o),
(121,-4,cs),
(217,-4,ls)
);
},
{
closed = 1;
nodes = (
(389,629,o),
(365,650,o),
(339,650,cs),
(317,650,o),
(293,635,o),
(290,606,cs),
(223,-28,ls),
(219,-61,o),
(244,-80,o),
(269,-80,cs),
(291,-80,o),
(315,-65,o),
(318,-38,cs),
(385,594,ls)
);
}
);
width = 542;
}
);
metricLeft = O;
metricRight = O;
unicode = 36;
},
{
glyphname = plus;
lastChange = "2022-03-08 22:52:02 +0000";
layers = (
{
layerId = m01;
shapes = (
{
closed = 1;
nodes = (
(243,323,o),
(231,334,o),
(219,334,cs),
(209,334,o),
(199,327,o),
(197,311,cs),
(174,87,ls),
(172,68,o),
(185,57,o),
(197,57,cs),
(207,57,o),
(217,64,o),
(218,80,cs),
(242,304,ls)
);
},
{
closed = 1;
nodes = (
(341,175,o),
(349,187,o),
(348,198,cs),
(347,209,o),
(338,220,o),
(320,220,cs),
(93,220,ls),
(75,220,o),
(66,209,o),
(67,198,cs),
(68,187,o),
(78,175,o),
(96,175,cs),
(323,175,ls)
);
}
);
width = 410;
},
{
layerId = m002;
shapes = (
{
closed = 1;
nodes = (
(303,329,o),
(279,350,o),
(252,350,cs),
(232,350,o),
(210,337,o),
(207,310,cs),
(185,95,ls),
(183,62,o),
(207,41,o),
(234,41,cs),
(254,41,o),
(275,54,o),
(278,81,cs),
(300,296,ls)
);
},
{
closed = 1;
nodes = (
(385,154,o),
(404,174,o),
(402,198,cs),
(401,221,o),
(379,241,o),
(348,241,cs),
(131,241,ls),
(100,241,o),
(82,221,o),
(83,198,cs),
(85,174,o),
(106,154,o),
(137,154,cs),
(354,154,ls)
);
}
);
width = 480;
}
);
metricLeft = n;
metricRight = n;
unicode = 43;
},
{
glyphname = multiply;
lastChange = "2022-03-08 22:52:02 +0000";
layers = (
{
layerId = m01;
shapes = (
{
closed = 1;
nodes = (
(364,302,o),
(361,317,o),
(351,325,cs),
(342,334,o),
(325,337,o),
(312,325,cs),
(62,101,ls),
(51,91,o),
(54,76,o),
(62,67,cs),
(72,58,o),
(87,54,o),
(102,67,cs),
(351,290,ls)
);
},
{
closed = 1;
nodes = (
(111,336,o),
(96,335,o),
(87,327,cs),
(79,318,o),
(76,303,o),
(87,291,cs),
(291,69,ls),
(303,56,o),
(318,58,o),
(326,66,cs),
(336,74,o),
(339,89,o),
(327,102,cs),
(125,321,ls)
);
}
);
width = 410;
},
{
layerId = m002;
shapes = (
{
closed = 1;
nodes = (
(422,292,o),
(419,319,o),
(398,336,cs),
(379,351,o),
(348,355,o),
(326,337,cs),
(86,122,ls),
(66,102,o),
(68,78,o),
(85,59,cs),
(104,40,o),
(136,36,o),
(161,56,cs),
(400,270,l)
);
},
{
closed = 1;
nodes = (
(157,355,o),
(122,353,o),
(107,335,cs),
(93,317,o),
(90,294,o),
(110,273,cs),
(306,59,l),
(327,38,o),
(360,40,o),
(376,55,cs),
(394,72,o),
(397,97,o),
(376,120,cs),
(182,331,l)
);
}
);
width = 482;
}
);
metricLeft = n;
metricRight = n;
unicode = 215;
},
{
glyphname = divide;
lastChange = "2022-03-08 22:52:02 +0000";
layers = (
{
layerId = m01;
shapes = (
{
closed = 1;
nodes = (
(357,175,o),
(356,220,o),
(319,220,cs),
(92,220,ls),
(55,220,o),
(60,175,o),
(95,175,cs),
(322,175,ls)
);
},
{
closed = 1;
nodes = (
(214,57,o),
(229,73,o),
(228,90,cs),
(226,108,o),
(208,122,o),
(191,122,cs),
(172,122,o),
(162,106,o),
(163,90,cs),
(164,73,o),
(178,57,o),
(196,57,cs)
);
},
{
closed = 1;
nodes = (
(237,273,o),
(252,289,o),
(251,306,cs),
(249,323,o),
(232,338,o),
(215,338,cs),
(197,338,o),
(184,322,o),
(186,306,cs),
(187,290,o),
(202,273,o),
(220,273,cs)
);
}
);
width = 409;
},
{
layerId = m002;
shapes = (
{
closed = 1;
nodes = (
(420,154,o),
(417,241,o),
(348,241,cs),
(131,241,ls),
(62,241,o),
(71,154,o),
(137,154,cs),
(354,154,ls)
);
},
{
closed = 1;
nodes = (
(263,16,o),
(288,40,o),
(286,69,cs),
(284,100,o),
(254,122,o),
(225,122,cs),
(194,122,o),
(172,98,o),
(174,69,cs),
(176,40,o),
(203,16,o),
(233,16,cs)
);
},
{
closed = 1;
nodes = (
(291,273,o),
(316,297,o),
(314,327,cs),
(312,356,o),
(283,379,o),
(253,379,cs),
(223,379,o),
(200,355,o),
(202,327,cs),
(204,298,o),
(231,273,o),
(261,273,cs)
);
}
);
width = 480;
}
);
metricLeft = n;
metricRight = n;
unicode = 247;
},
{
glyphname = equal;
lastChange = "2022-03-08 22:52:02 +0000";
layers = (
{
layerId = m01;
shapes = (
{
closed = 1;
nodes = (
(348,248,o),
(356,260,o),
(355,271,cs),
(354,282,o),
(345,293,o),
(327,293,cs),
(100,293,ls),
(82,293,o),
(73,282,o),
(74,271,cs),
(75,260,o),
(85,248,o),
(103,248,cs),
(330,248,ls)
);
},
{
closed = 1;
nodes = (
(332,97,o),
(340,108,o),
(340,120,cs),
(339,131,o),
(329,142,o),
(311,142,cs),
(84,142,ls),
(66,142,o),
(58,131,o),
(59,120,cs),
(59,109,o),
(69,97,o),
(87,97,cs),
(314,97,ls)
);
}
);
width = 410;
},
{
layerId = m002;
shapes = (
{
closed = 1;
nodes = (
(395,248,o),
(414,266,o),
(413,290,cs),
(411,314,o),
(389,333,o),
(359,333,cs),
(141,333,ls),
(111,333,o),
(91,314,o),
(93,290,cs),
(94,266,o),
(117,248,o),
(147,248,cs),
(365,248,ls)
);
},
{
closed = 1;
nodes = (
(379,97,o),
(399,116,o),
(397,141,cs),
(395,165,o),
(373,182,o),
(343,182,cs),
(125,182,ls),
(95,182,o),
(75,165,o),
(77,141,cs),
(79,117,o),
(101,97,o),
(131,97,cs),
(349,97,ls)
);
}
);
width = 481;
}
);
metricLeft = n;
metricRight = n;
unicode = 61;
},
{
glyphname = notequal;
lastChange = "2022-03-08 22:52:02 +0000";
layers = (
{
layerId = m01;
shapes = (
{
closed = 1;
nodes = (
(288,337,o),
(276,350,o),
(262,350,cs),
(252,350,o),
(242,345,o),
(237,333,cs),
(134,72,ls),
(127,54,o),
(136,42,o),
(147,38,cs),
(158,35,o),
(170,38,o),
(175,51,cs),
(278,312,ls)
);
},
{
closed = 1;
nodes = (
(332,97,o),
(340,108,o),
(340,120,cs),
(339,131,o),
(329,142,o),
(311,142,cs),
(84,142,ls),
(66,142,o),
(58,131,o),
(59,120,cs),
(59,109,o),
(69,97,o),
(87,97,cs),
(314,97,ls)
);
},
{
closed = 1;
nodes = (
(348,248,o),
(356,260,o),
(355,271,cs),
(354,282,o),
(345,293,o),
(327,293,cs),
(100,293,ls),
(82,293,o),
(73,282,o),
(74,271,cs),
(75,260,o),
(85,248,o),
(103,248,cs),
(330,248,ls)
);
}
);
width = 410;
},
{
layerId = m002;
shapes = (
{
closed = 1;
nodes = (
(368,376,o),
(338,401,o),
(309,401,cs),
(292,401,o),
(271,391,o),
(263,372,cs),
(140,60,ls),
(128,30,o),
(144,8,o),
(170,-1,cs),
(190,-7,o),
(218,-1,o),
(227,22,cs),
(351,333,ls)
);
},
{
closed = 1;
nodes = (
(379,97,o),
(399,116,o),
(397,141,cs),
(395,165,o),
(373,182,o),
(343,182,cs),
(125,182,ls),
(95,182,o),
(75,165,o),
(77,141,cs),
(79,117,o),
(101,97,o),
(131,97,cs),
(349,97,ls)
);
},
{
closed = 1;
nodes = (
(395,248,o),
(414,266,o),
(413,290,cs),
(411,314,o),
(389,333,o),
(359,333,cs),
(141,333,ls),
(111,333,o),
(91,314,o),
(93,290,cs),
(94,266,o),
(117,248,o),
(147,248,cs),
(365,248,ls)
);
}
);
width = 481;
}
);
metricLeft = n;
metricRight = n;
unicode = 8800;
},
{
glyphname = greater;
lastChange = "2022-03-08 22:52:02 +0000";
layers = (
{
layerId = m01;
shapes = (
{
closed = 1;
nodes = (
(280,216,l),
(73,103,ls),
(53,93,o),
(51,81,o),
(56,70,cs),
(61,60,o),
(73,50,o),
(91,60,cs),
(308,179,l)
);
},
{
closed = 1;
nodes = (
(297,171,o),
(308,176,o),
(314,186,cs),
(321,197,o),
(321,207,o),
(305,217,cs),
(120,330,ls),
(103,340,o),
(90,339,o),
(83,329,cs),
(76,318,o),
(80,304,o),
(95,294,cs),
(281,181,ls)
);
}
);
width = 380;
},
{
layerId = m002;
shapes = (
{
closed = 1;
nodes = (
(319,245,l),
(102,127,ls),
(73,112,o),
(67,92,o),
(74,70,cs),
(83,46,o),
(114,30,o),
(144,45,cs),
(376,173,l)
);
},
{
closed = 1;
nodes = (
(326,147,o),
(356,154,o),
(369,176,cs),
(380,198,o),
(376,218,o),
(350,235,cs),
(171,344,ls),
(145,359,o),
(116,355,o),
(103,337,cs),
(89,315,o),
(96,291,o),
(122,272,c),
(301,164,l)
);
}
);
width = 456;
}
);
metricLeft = n;
metricRight = n;
unicode = 62;
},
{
glyphname = less;
lastChange = "2022-03-08 22:52:02 +0000";
layers = (
{
layerId = m01;
shapes = (
{
closed = 1;
nodes = (
(312,290,ls),
(331,300,o),
(333,312,o),
(328,323,cs),
(324,333,o),
(312,343,o),
(294,333,cs),
(76,214,l),
(105,177,l)
);
},
{
closed = 1;
nodes = (
(281,53,o),
(294,54,o),
(302,64,cs),
(309,75,o),
(305,89,o),
(289,99,cs),
(103,212,ls),
(87,222,o),
(77,217,o),
(71,207,cs),
(63,196,o),
(64,186,o),
(80,176,cs),
(265,63,ls)
);
}
);
width = 380;
},
{
layerId = m002;
shapes = (
{
closed = 1;
nodes = (
(358,266,ls),
(387,281,o),
(394,301,o),
(386,323,cs),
(378,347,o),
(347,363,o),
(317,348,cs),
(85,220,l),
(142,148,l)
);
},
{
closed = 1;
nodes = (
(316,34,o),
(344,38,o),
(357,56,cs),
(372,78,o),
(365,102,o),
(339,121,c),
(160,229,l),
(135,246,o),
(104,239,o),
(92,217,cs),
(80,195,o),
(85,175,o),
(111,158,cs),
(290,49,ls)
);
}
);
width = 455;
}
);
metricLeft = n;
metricRight = n;
unicode = 60;
},
{
glyphname = greaterequal;
lastChange = "2022-03-08 22:52:02 +0000";
layers = (
{
layerId = m01;
shapes = (
{
closed = 1;
nodes = (
(306,198,o),
(317,202,o),
(323,212,cs),
(330,223,o),
(330,233,o),
(314,243,cs),
(123,360,ls),
(106,370,o),
(93,369,o),
(86,359,cs),
(79,348,o),
(83,334,o),
(98,324,cs),
(291,207,ls)
);
},
{
closed = 1;
nodes = (
(311,97,o),
(319,108,o),
(319,120,cs),
(318,131,o),
(308,142,o),
(290,142,cs),
(86,142,ls),
(68,142,o),
(60,131,o),
(61,120,cs),
(61,109,o),
(71,97,o),
(89,97,cs),
(293,97,ls)
);
},
{
closed = 1;
nodes = (
(306,248,l),
(100,248,ls),
(78,248,o),
(70,239,o),
(69,227,cs),
(69,216,o),
(75,202,o),
(97,202,cs),
(310,202,l)
);
}
);
width = 389;
},
{
layerId = m002;
shapes = (
{
closed = 1;
nodes = (
(341,197,o),
(368,200,o),
(380,219,cs),
(393,241,o),
(390,261,o),
(363,279,c),
(178,393,ls),
(148,411,o),
(121,403,o),
(110,386,cs),
(96,364,o),
(104,344,o),
(130,325,c),
(317,212,ls)
);
},
{
closed = 1;
nodes = (
(354,57,o),
(373,75,o),
(371,99,cs),
(369,123,o),
(348,142,o),
(317,142,cs),
(121,142,ls),
(91,142,o),
(71,122,o),
(73,98,cs),
(75,75,o),
(97,57,o),
(127,57,cs),
(323,57,ls)
);
},
{
closed = 1;
nodes = (
(341,287,l),
(142,287,ls),
(108,287,o),
(90,271,o),
(89,247,cs),
(88,223,o),
(107,202,o),
(142,202,cs),
(349,202,l)
);
}
);
width = 461;
}
);
metricLeft = n;
metricRight = n;
unicode = 8805;
},
{
glyphname = lessequal;
lastChange = "2022-03-08 22:52:02 +0000";
layers = (
{
layerId = m01;
shapes = (
{
closed = 1;
nodes = (
(344,332,o),
(345,348,o),
(336,359,cs),
(327,369,o),
(315,369,o),
(299,360,cs),
(81,243,ls),
(67,235,o),
(67,223,o),
(76,212,cs),
(84,202,o),
(95,199,o),
(110,207,cs),
(328,324,ls)
);
},
{
closed = 1;
nodes = (
(310,97,o),
(318,109,o),
(318,120,cs),
(317,131,o),
(307,142,o),
(289,142,cs),
(85,142,ls),
(67,142,o),
(59,131,o),
(60,120,cs),
(60,108,o),
(70,97,o),
(88,97,cs),
(292,97,ls)
);
},
{
closed = 1;
nodes = (
(304,202,ls),
(320,202,o),
(329,213,o),
(328,225,cs),
(328,236,o),
(318,248,o),
(295,248,cs),
(89,248,l),
(91,202,l)
);
}
);
width = 388;
},
{
layerId = m002;
shapes = (
{
closed = 1;
nodes = (
(402,337,o),
(409,362,o),
(390,386,cs),
(377,403,o),
(350,408,o),
(323,393,cs),
(113,281,ls),
(86,266,o),
(84,242,o),
(102,221,cs),
(116,201,o),
(141,197,o),
(165,210,cs),
(375,322,ls)
);
},
{
closed = 1;
nodes = (
(353,57,o),
(373,75,o),
(371,98,cs),
(369,122,o),
(347,142,o),
(317,142,cs),
(121,142,ls),
(91,142,o),
(71,122,o),
(73,98,cs),
(75,74,o),
(97,57,o),
(127,57,cs),
(323,57,ls)
);
},
{
closed = 1;
nodes = (
(341,202,ls),
(369,202,o),
(389,222,o),
(388,245,cs),
(388,272,o),
(361,287,o),
(329,287,cs),
(136,287,l),
(140,202,l)
);
}
);
width = 462;
}
);
metricLeft = n;
metricRight = n;
unicode = 8804;
},
{
glyphname = plusminus;
lastChange = "2022-03-08 22:52:02 +0000";
layers = (
{
layerId = m01;
shapes = (
{
closed = 1;
nodes = (
(234,364,o),
(221,375,o),
(209,375,cs),
(199,375,o),
(189,368,o),
(187,352,cs),
(170,196,ls),
(169,177,o),
(181,166,o),
(193,166,cs),
(203,166,o),
(213,173,o),
(215,189,cs),
(232,345,ls)
);
},
{
closed = 1;
nodes = (
(302,97,o),
(310,108,o),
(310,120,cs),
(309,131,o),
(299,142,o),
(281,142,cs),
(84,142,ls),
(66,142,o),
(58,131,o),
(59,120,cs),
(59,109,o),
(69,97,o),
(87,97,cs),
(284,97,ls)
);
},
{
closed = 1;
nodes = (
(318,248,o),
(326,260,o),
(325,271,cs),
(324,282,o),
(315,293,o),
(297,293,cs),
(100,293,ls),
(82,293,o),
(73,282,o),
(74,271,cs),
(75,260,o),
(85,248,o),
(103,248,cs),
(300,248,ls)
);
}
);
width = 380;
},
{
layerId = m002;
shapes = (
{
closed = 1;
nodes = (
(298,390,o),
(271,411,o),
(245,411,cs),
(224,411,o),
(204,398,o),
(201,371,cs),
(184,222,ls),
(181,188,o),
(207,167,o),
(233,167,cs),
(254,167,o),
(274,181,o),
(278,207,cs),
(294,357,ls)
);
},
{
closed = 1;
nodes = (
(348,57,o),
(368,74,o),
(366,99,cs),
(364,122,o),
(342,142,o),
(312,142,cs),
(122,142,ls),
(92,142,o),
(73,122,o),
(75,99,cs),
(77,75,o),
(98,57,o),
(128,57,cs),
(318,57,ls)
);
},
{
closed = 1;
nodes = (
(366,248,o),
(384,266,o),
(383,290,cs),
(381,313,o),
(360,333,o),
(330,333,cs),
(140,333,ls),
(110,333,o),
(91,313,o),
(93,290,cs),
(94,266,o),
(116,248,o),
(146,248,cs),
(336,248,ls)
);
}
);
width = 455;
}
);
metricLeft = n;
metricRight = n;
unicode = 177;
},
{
glyphname = approxequal;
lastChange = "2022-03-08 22:52:02 +0000";
layers = (
{
layerId = m01;
shapes = (
{
closed = 1;
nodes = (
(291,227,o),
(310,237,o),
(331,246,cs),
(348,254,o),
(356,260,o),
(355,271,cs),
(354,282,o),
(341,302,o),
(324,294,cs),
(306,285,o),
(294,272,o),
(264,272,cs),
(236,272,o),
(190,310,o),
(159,310,cs),
(133,310,o),
(117,301,o),
(99,294,cs),
(82,287,o),
(73,282,o),
(74,271,cs),
(75,259,o),
(86,238,o),
(104,246,cs),
(118,253,o),
(131,265,o),
(154,265,cs),
(185,265,o),
(231,227,o),
(259,227,cs)
);
},
{
closed = 1;
nodes = (
(276,76,o),
(295,86,o),
(315,95,cs),
(333,103,o),
(340,109,o),
(340,120,cs),
(339,131,o),
(325,151,o),
(309,143,cs),
(291,134,o),
(279,121,o),
(249,121,cs),
(221,121,o),
(175,159,o),
(144,159,cs),
(118,159,o),
(102,150,o),
(84,143,cs),
(66,136,o),
(58,131,o),
(59,120,cs),
(59,108,o),
(71,87,o),
(88,95,cs),
(103,102,o),
(116,114,o),
(139,114,cs),
(170,114,o),
(216,76,o),
(244,76,cs)
);
}
);
width = 410;
},
{
layerId = m002;
shapes = (
{
closed = 1;
nodes = (
(334,229,o),
(358,241,o),
(376,249,cs),
(403,262,o),
(414,273,o),
(413,293,cs),
(411,321,o),
(376,351,o),
(346,335,cs),
(322,323,o),
(318,316,o),
(299,316,cs),
(282,316,o),
(237,352,o),
(198,352,cs),
(167,352,o),
(146,342,o),
(131,335,cs),
(104,324,o),
(91,313,o),
(93,293,cs),
(95,261,o),
(129,234,o),
(159,249,cs),
(176,258,o),
(183,265,o),
(196,265,cs),
(216,265,o),
(260,229,o),
(297,229,cs)
);
},
{
closed = 1;
nodes = (
(314,35,o),
(338,47,o),
(355,55,cs),
(382,68,o),
(393,79,o),
(392,99,cs),
(390,127,o),
(356,157,o),
(325,141,cs),
(302,129,o),
(297,122,o),
(278,122,cs),
(261,122,o),
(217,158,o),
(178,158,cs),
(147,158,o),
(126,148,o),
(110,141,cs),
(84,130,o),
(71,119,o),
(72,99,cs),
(74,67,o),
(108,40,o),
(138,55,cs),
(156,64,o),
(163,71,o),
(176,71,cs),
(196,71,o),
(240,35,o),
(277,35,cs)
);
}
);
width = 481;
}
);
metricLeft = n;
metricRight = n;
unicode = 8776;
},
{
glyphname = asciitilde;
lastChange = "2022-03-08 22:52:02 +0000";
layers = (
{
layerId = m01;
shapes = (
{
closed = 1;
nodes = (
(284,158,o),
(303,168,o),
(324,177,cs),
(341,185,o),
(349,191,o),
(348,202,cs),
(347,213,o),
(334,233,o),
(317,225,cs),
(299,216,o),
(287,203,o),
(257,203,cs),
(229,203,o),
(183,241,o),
(152,241,cs),
(126,241,o),
(110,232,o),
(92,225,cs),
(75,218,o),
(66,213,o),
(67,202,cs),
(68,190,o),
(79,169,o),
(97,177,cs),
(111,184,o),
(124,196,o),
(147,196,cs),
(178,196,o),
(224,158,o),
(252,158,cs)
);
}
);
width = 410;
},
{
layerId = m002;
shapes = (
{
closed = 1;
nodes = (
(325,139,o),
(349,151,o),
(367,159,cs),
(394,172,o),
(405,183,o),
(404,203,cs),
(402,231,o),
(368,261,o),
(337,245,cs),
(314,233,o),
(309,226,o),
(290,226,cs),
(273,226,o),
(229,262,o),
(190,262,cs),
(159,262,o),
(137,252,o),
(122,245,cs),
(96,234,o),
(82,223,o),
(84,203,cs),
(86,171,o),
(120,144,o),
(150,159,cs),
(167,168,o),
(175,175,o),
(188,175,cs),
(208,175,o),
(251,139,o),
(288,139,cs)
);
}
);
width = 482;
}
);
metricLeft = n;
metricRight = n;
unicode = 126;
},
{
glyphname = asciicircum;
lastChange = "2022-03-08 22:52:02 +0000";
layers = (
{
layerId = m01;
shapes = (
{
closed = 1;
nodes = (
(286,619,o),
(283,634,o),
(273,642,cs),
(263,651,o),
(247,654,o),
(234,642,cs),
(109,531,ls),
(98,521,o),
(101,506,o),
(109,497,cs),
(119,488,o),
(134,484,o),
(149,497,cs),
(273,607,ls)
);
},
{
closed = 1;
nodes = (
(237,609,l),
(338,499,ls),
(350,486,o),
(365,488,o),
(373,496,cs),
(383,504,o),
(385,520,o),
(374,532,cs),
(274,641,l)
);
}
);
width = 410;
},
{
layerId = m002;
shapes = (
{
closed = 1;
nodes = (
(350,590,o),
(346,617,o),
(327,635,cs),
(308,653,o),
(274,657,o),
(252,638,cs),
(127,527,ls),
(105,507,o),
(110,481,o),
(125,464,cs),
(144,442,o),
(179,439,o),
(202,459,cs),
(325,569,ls)
);
},
{
closed = 1;
nodes = (
(256,573,l),
(356,464,ls),
(376,441,o),
(411,443,o),
(428,460,cs),
(446,477,o),
(448,502,o),
(427,525,cs),
(327,635,l)
);
}
);
width = 489;
}
);
metricLeft = N;
metricRight = N;
unicode = 94;
},
{
glyphname = infinity;
lastChange = "2022-03-08 22:52:02 +0000";
layers = (
{
layerId = m01;
shapes = (
{
closed = 1;
nodes = (
(325,196,ls),
(362,146,o),
(415,90,o),
(473,80,cs),
(538,69,o),
(631,109,o),
(642,211,cs),
(653,307,o),
(578,349,o),
(520,359,cs),
(467,368,o),
(391,356,o),
(315,279,c),
(313,213,l)
);
},
{
closed = 1;
nodes = (
(264,214,o),
(159,123,o),
(134,127,cs),
(115,130,o),
(111,191,o),
(114,227,cs),
(118,267,o),
(138,322,o),
(195,312,cs),
(237,305,o),
(267,267,o),
(287,241,c),
(317,279,l),
(293,309,o),
(261,352,o),
(206,361,cs),
(119,377,o),
(71,298,o),
(63,226,cs),
(57,168,o),
(75,90,o),
(129,81,cs),
(186,71,o),
(257,140,o),
(321,210,c),
(318,280,l)
);
},
{
closed = 1;
nodes = (
(415,307,o),
(469,319,o),
(508,312,cs),
(557,303,o),
(599,263,o),
(593,214,cs),
(587,158,o),
(522,123,o),
(479,130,cs),
(437,137,o),
(394,186,o),
(363,227,cs),
(352,241,l)
);
}
);
width = 692;
},
{
layerId = m002;
shapes = (
{
closed = 1;
nodes = (
(292,179,ls),
(329,127,o),
(385,71,o),
(447,61,cs),
(517,49,o),
(614,92,o),
(626,205,cs),
(637,314,o),
(557,362,o),
(496,373,cs),
(440,383,o),
(359,369,o),
(280,284,c),
(275,204,l)
);
},
{
closed = 1;
nodes = (
(226,221,o),
(152,151,o),
(137,154,cs),
(122,156,o),
(124,195,o),
(128,227,cs),
(132,261,o),
(152,284,o),
(190,278,cs),
(232,271,o),
(256,220,o),
(274,198,c),
(332,272,l),
(314,296,o),
(278,361,o),
(205,374,cs),
(107,391,o),
(54,301,o),
(45,225,cs),
(39,164,o),
(60,72,o),
(127,60,cs),
(194,49,o),
(264,126,o),
(329,197,c),
(268,272,l)
);
},
{
closed = 1;
nodes = (
(413,277,o),
(450,284,o),
(478,279,cs),
(519,272,o),
(544,247,o),
(540,215,cs),
(536,175,o),
(500,150,o),
(466,156,cs),
(423,163,o),
(382,212,o),
(371,227,cs),
(367,233,l)
);
}
);
width = 663;
}
);
metricLeft = o;
metricRight = o;
unicode = 8734;
},
